<?xml version="1.0" encoding="UTF-8"?>
<!DOCTYPE svg PUBLIC "-//W3C//DTD SVG 1.1//EN" "http://www.w3.org/Graphics/SVG/1.1/DTD/svg11.dtd">
<!-- Creator: CorelDRAW 2019 (64-Bit) -->
<svg xmlns="http://www.w3.org/2000/svg" xml:space="preserve" width="19.6664mm" height="19.6664mm" version="1.1" style="shape-rendering:geometricPrecision; text-rendering:geometricPrecision; image-rendering:optimizeQuality; fill-rule:evenodd; clip-rule:evenodd"
viewBox="0 0 772.31 772.31"
 xmlns:xlink="http://www.w3.org/1999/xlink"
 xmlns:xodm="http://www.corel.com/coreldraw/odm/2003">
 <defs>
  <style type="text/css">
   <![CDATA[
    .fil0 {fill:none}
    .fil1 {fill:black}
    .fil10 {fill:#9ED267}
    .fil9 {fill:#B07745}
    .fil2 {fill:#B3DC7E}
    .fil3 {fill:#D19E6B}
    .fil6 {fill:#E5E8EC}
    .fil4 {fill:#F0D0B4}
    .fil8 {fill:#FB6D51}
    .fil5 {fill:#FBD570}
    .fil7 {fill:#FD806D}
   ]]>
  </style>
 </defs>
 <g id="Layer_x0020_1">
  <metadata id="CorelCorpID_0Corel-Layer"/>
  <rect class="fil0" width="772.31" height="772.31"/>
  <g id="_1983389482512">
   <path class="fil1" d="M280.16 608.22c0,-9.05 0.01,-18.1 0,-27.16 -0.02,-14.38 -1.92,-13.37 6.28,-20.87 10.5,-9.6 35.51,-8 42.62,-0.88 8,8 7.98,35.5 -0.01,43.5 -8.64,8.64 -34.23,5.41 -48.9,5.41zm379.5 -35.07c-5.65,41.3 -42.84,77.04 -91.46,70.56 -40.94,-5.45 -76.5,-43.24 -70.11,-91.4 5.44,-40.95 43.37,-76.5 91.41,-70.1 40.6,5.41 76.67,43.27 70.15,90.94zm-330.85 -73.55l101.55 0c9.3,0 12.74,3.42 12.74,12.45l0 119.93c0,9.01 -3.44,12.45 -12.45,12.45l-101.83 0c-12.76,0 -12.45,-6.55 -12.45,-18.14 22.51,-1.17 36.2,-16.38 36.2,-39.57l0 -11.31c0,-23.08 -13.72,-38.59 -36.2,-39.57 0,-23.01 -3.88,-36.24 12.45,-36.24zm-30.54 36.49c-6.88,0.59 -12.79,2.23 -17.81,5.71 -4.01,2.77 -10.14,10.24 -12.39,11.31 -4.88,2.33 -39.1,1.41 -46.5,0.35 -13.32,-1.92 -22.91,-10.52 -27.66,-19.69 -6.24,-12.04 -4.28,-28.74 -4.28,-43.21l-18.1 0c0.01,34.7 -1.86,47.71 18.76,67.24 18.94,17.95 41.92,14.21 71.76,14.21l0 36.22c-28.58,0 -63.19,3.53 -85.83,-9.24 -67.78,-38.26 -46.18,-139.64 25.33,-179.18l8.27 71.69 42.8 -42.27 43.19 42.41 9.16 -78.79c35.46,7.64 63.82,26.68 82.02,55.74 2.24,3.58 4.89,9.28 6.94,12.43 -34.87,6.64 -82.2,-13.73 -93.9,18.12 -3.1,8.44 -1.76,26.85 -1.76,36.96zm-18.47 -120.56c4.23,-5.84 2.94,-4.57 6.02,-5.6 1.52,3.11 0.53,6.9 0.1,10.48 -0.66,5.47 -2.03,28.2 -4.83,31.82 -4.41,-6.23 -12.28,-10.3 -15.66,-17.11l14.37 -19.59zm-39.22 19.59c-3.17,6.6 -11.33,11 -15.64,17.13 -1.06,-1.36 -0.51,-0.31 -1.32,-2.57l-1.13 -7.79c-0.81,-8.46 -4.34,-26.16 -2.29,-30.51 4.12,0.17 4.14,1.43 6.51,4.78l13.87 18.96zm335.17 -61.29c10.15,-4.89 17.35,11.63 6.65,16.27 -9.75,4.24 -18.97,-10.35 -6.65,-16.27zm-340.85 -145.76l108.62 0c0,31.55 -0.9,16.84 15.71,44.26 7.95,13.12 -5.87,18.86 -15.71,22.28 -0.1,65.61 -1.8,60.18 -72.41,60.18l0 38.47c0,6.09 -13.74,22.96 -18.1,27.15 -4.43,-4.26 -8.82,-11.09 -12.94,-16.48 -7.14,-9.36 -5.17,-8.4 -5.17,-23.12 0.01,-19.38 0,-38.77 0,-58.15 -5.33,-3 -30.36,-21.64 -33.18,-26.33 -4.25,-7.07 -3.36,-16.48 0.6,-22.77 6.92,-10.99 19.81,-9.28 32.57,-9.28l0 -36.21zm389.2 -108.63c39.18,0 36.23,-5.47 36.23,33.95l0 105.22c0.01,31.25 2.76,23.77 -81.47,23.77 -84.31,0 -81.48,7.46 -81.47,-23.77l0 -105.22c0,-39.43 -2.96,-33.95 36.23,-33.95l-0.01 54.31 90.5 0 0 -54.31zm-461.61 108.61l56.57 0 -2.25 18.32c-34.18,3.29 -61.32,51.46 0,85.32l0 18.89c-16.44,-4.43 -30.9,-18.21 -38.52,-28.57 -9.99,-13.57 -15.81,-29.54 -15.81,-50.95l0.02 -43.01zm199.13 13.59l0 -13.58c11.82,0 36.2,3.91 36.2,-18.1l81.46 0 0 65.62c0,12.44 12.44,24.89 24.89,24.89l65.62 0 0 53.18c0,4.65 -5.86,3.73 -11.51,9.99 -10.1,11.19 -9.33,31.31 5.69,41.08 2.84,1.84 5.82,2.01 5.82,5.5l0 53.18c-10.25,0.23 -26.43,5.84 -35.08,10.17 -20.18,10.14 -35.12,25.08 -45.26,45.26 -4.34,8.65 -9.95,24.83 -10.17,35.08l-18.1 0 0 -47.52c0,-10.11 -7.31,-18.1 -14.31,-21.89 -8.33,-4.52 -20.98,-3 -33.21,-3 -0.66,-7.95 -14.51,-28.38 -19.08,-34.1 -8.22,-10.28 -16.12,-18.25 -26.81,-26.37 -19.87,-15.08 -52.5,-28.92 -78.56,-28.92l0 -19.23c26.89,0 48.6,4.15 64.98,-19.87 9.53,-13.96 7.43,-24.97 7.43,-46.88 10.74,-2.87 18.1,-14.93 18.1,-29.42 0,-12.92 -18.1,-30.14 -18.1,-35.08zm-217.24 -49.79l2.27 0 233.08 0 -0.01 18.12 -235.34 0 0 -18.12zm18.92 -18.08c3.49,-23.04 16.08,-36.86 31.3,-45.97 18.87,-11.3 43.61,-8.36 67.45,-8.36 24.38,0 48.97,-3.03 68.13,8.79 15.04,9.28 27.1,22.48 31.44,45.54l-198.31 0zm388.96 -54.33l53.76 0 -0.02 36.23 -54.32 0 0.58 -36.23zm-407.87 54.32c-22.39,0 -18.1,25.29 -18.1,38.47 0,6.6 7.28,15.84 18.1,15.84 0,45.71 -5.47,74.86 22.89,109.49 6.33,7.74 13,14.15 21.29,19.44 12.8,8.17 17.44,8.45 28.23,13.63l0 22.63c-50.97,11.88 -99.57,73.77 -99.57,130.11 0,30.96 5.6,52.55 28,74.96 15.4,15.4 38.97,28 62.51,28l90.51 0 0 11.31c0,12.44 12.44,24.89 24.89,24.89l113.14 0c12.44,0 24.89,-12.44 24.89,-24.89l0 -65.62 18.1 0c0.23,10.25 5.84,26.43 10.17,35.08 6,11.94 10.41,17.73 19.53,26.86 8.94,8.97 15.26,13.17 27.23,19.16 25.59,12.79 59.67,12.79 85.26,0 31.75,-15.88 56.93,-48.96 56.93,-84.49 0,-32.09 -7.15,-54.22 -28,-74.96 -8.99,-8.94 -14.6,-13.67 -26.68,-19.71 -9.28,-4.64 -24.98,-10.32 -35.83,-10.56l0 -53.18c0,-6.64 18.1,-4.29 18.1,-30.55 0,-18.54 -18.1,-20.75 -18.1,-26.02l0 -53.18 65.62 0c12.44,0 24.89,-12.44 24.89,-24.89l0 -149.35c0,-12.44 -12.44,-24.89 -24.89,-24.89l-149.35 0c-12.44,0 -24.89,12.44 -24.89,24.89l0 65.62 -81.46 0c0,-10.49 -7.61,-18.1 -18.1,-18.1 -1.17,-5.03 -1.83,-10.32 -3.23,-14.87 -1.67,-5.39 -3.06,-7.89 -5.44,-12.67 -6.33,-12.72 -10.87,-17.35 -20.46,-25.93l-17.11 -11.17c-7.63,-3.51 -18.28,-7.77 -29.57,-7.77l-83.72 0c-36.3,0 -72.68,34.84 -75.8,72.41z"/>
   <path class="fil2" d="M298.27 536.08c0,-10.11 -1.34,-28.53 1.76,-36.96 11.7,-31.85 59.04,-11.48 93.9,-18.12 -2.05,-3.14 -4.7,-8.85 -6.94,-12.43 -18.2,-29.06 -46.55,-48.09 -82.02,-55.74l-9.16 78.79 -43.19 -42.41 -42.8 42.27 -8.27 -71.69c-71.51,39.54 -93.12,140.91 -25.33,179.18 22.64,12.78 57.24,9.24 85.83,9.24l0 -36.22c-29.84,0 -52.81,3.74 -71.76,-14.21 -20.62,-19.53 -18.75,-32.54 -18.76,-67.24l18.1 0c0,14.46 -1.96,31.16 4.28,43.21 4.75,9.17 14.34,17.77 27.66,19.69 7.4,1.07 41.62,1.98 46.5,-0.35 2.25,-1.08 8.38,-8.54 12.39,-11.31 5.02,-3.48 10.92,-5.12 17.81,-5.71z"/>
   <path class="fil3" d="M624.1 119.44l0 54.31 -90.5 0 0.01 -54.31c-39.19,0 -36.23,-5.48 -36.23,33.95l0 105.22c-0.01,31.23 -2.84,23.77 81.47,23.77 84.24,0 81.49,7.48 81.47,-23.77l0 -105.22c0,-39.43 2.95,-33.95 -36.23,-33.95z"/>
   <path class="fil4" d="M234.9 264.27c-12.77,0 -25.65,-1.7 -32.57,9.28 -3.96,6.29 -4.86,15.7 -0.6,22.77 2.82,4.69 27.85,23.33 33.18,26.33 0,19.38 0.01,38.77 0,58.15 -0,14.72 -1.98,13.76 5.17,23.12 4.11,5.39 8.51,12.22 12.94,16.48 4.36,-4.19 18.1,-21.06 18.1,-27.15l0 -38.47c70.61,0 72.31,5.43 72.41,-60.18 9.84,-3.42 23.66,-9.16 15.71,-22.28 -16.61,-27.42 -15.71,-12.71 -15.71,-44.26l-108.62 0 0 36.21z"/>
   <path class="fil5" d="M569.8 499.61l18.1 0 0 19.64c17.41,5.23 18.1,19.65 18.11,34.65l-18.1 0 0 -6.78c0,-18.34 -20.38,-12.54 -17.74,-1.56 1.54,6.4 17.36,10.94 23.55,14.96 18.93,12.26 14.99,39.77 -5.83,46.15l-0.01 19.65 -18.08 0 0 -19.64c-17.38,-5.26 -18.1,-19.65 -18.11,-34.65l18.1 0 0 6.78c0,18.32 20.37,12.52 17.73,1.57 -1.57,-6.51 -17.3,-10.96 -23.55,-14.97 -18.61,-11.94 -15.17,-39.85 5.83,-46.15l-0 -19.64zm89.85 73.54c6.52,-47.67 -29.55,-85.53 -70.15,-90.94 -48.04,-6.4 -85.98,29.15 -91.41,70.1 -6.39,48.16 29.17,85.95 70.11,91.4 48.61,6.48 85.81,-29.26 91.46,-70.56z"/>
   <path class="fil6" d="M352.57 517.71l54.3 0 -0.14 18.1 -54.16 0 -0 -18.1zm-23.76 -18.11c-16.32,0 -12.45,13.23 -12.45,36.24 22.49,0.99 36.2,16.49 36.2,39.57l0 11.31c0,23.19 -13.69,38.4 -36.2,39.57 0,11.59 -0.31,18.14 12.45,18.14l101.83 0c9.01,0 12.45,-3.44 12.45,-12.45l0 -119.93c0,-9.03 -3.43,-12.45 -12.74,-12.45l-101.55 0z"/>
   <path class="fil7" d="M163.31 173.77l198.31 0c-4.33,-23.06 -16.4,-36.26 -31.44,-45.54 -19.16,-11.82 -43.75,-8.79 -68.13,-8.79 -23.84,0 -48.57,-2.95 -67.45,8.36 -15.22,9.11 -27.82,22.93 -31.3,45.97z"/>
   <polygon class="fil8" points="144.39,209.97 379.72,209.97 379.73,191.85 146.65,191.85 144.39,191.85 "/>
   <path class="fil1" d="M569.81 519.25c-21,6.3 -24.43,34.21 -5.83,46.15 6.25,4.01 21.98,8.45 23.55,14.97 2.64,10.95 -17.73,16.75 -17.73,-1.57l0 -6.78 -18.1 0c0.01,15.01 0.73,29.39 18.11,34.65l0 19.64 18.08 0 0.01 -19.65c20.82,-6.37 24.76,-33.88 5.83,-46.15 -6.2,-4.01 -22.01,-8.55 -23.55,-14.96 -2.64,-10.98 17.74,-16.78 17.74,1.56l0 6.78 18.1 0c-0.01,-15.01 -0.7,-29.43 -18.11,-34.65l0 -19.64 -18.1 0 0 19.64z"/>
   <path class="fil9" d="M162.48 271.06c0,21.41 5.83,37.38 15.81,50.95 7.62,10.36 22.08,24.14 38.52,28.57l0 -18.89c-61.32,-33.86 -34.18,-82.03 0,-85.32l2.25 -18.32 -56.57 0 -0.02 43.01z"/>
   <path class="fil4" d="M280.16 608.22c14.67,0 40.26,3.23 48.9,-5.41 7.98,-7.99 8,-35.49 0.01,-43.5 -7.11,-7.12 -32.12,-8.72 -42.62,0.88 -8.2,7.5 -6.3,6.49 -6.28,20.87 0.01,9.05 0,18.1 0,27.16z"/>
   <polygon class="fil9" points="551.68,155.67 606.01,155.67 606.02,119.43 552.27,119.43 "/>
   <polygon class="fil1" points="352.58,535.8 406.74,535.8 406.88,517.71 352.57,517.71 "/>
   <path class="fil10" d="M265.43 435.11c3.38,6.81 11.25,10.88 15.66,17.11 2.8,-3.62 4.17,-26.35 4.83,-31.82 0.43,-3.58 1.42,-7.37 -0.1,-10.48 -3.08,1.03 -1.79,-0.24 -6.02,5.6l-14.37 19.59z"/>
   <path class="fil10" d="M224.94 452.24c4.31,-6.12 12.47,-10.53 15.64,-17.13l-13.87 -18.96c-2.38,-3.35 -2.4,-4.61 -6.51,-4.78 -2.04,4.35 1.49,22.05 2.29,30.51l1.13 7.79c0.81,2.26 0.25,1.21 1.32,2.57z"/>
   <path class="fil7" d="M575.75 373.82c-12.32,5.93 -3.1,20.51 6.65,16.27 10.69,-4.65 3.5,-21.16 -6.65,-16.27z"/>
  </g>
 </g>
</svg>
