<?xml version="1.0" encoding="UTF-8"?>
<!DOCTYPE svg PUBLIC "-//W3C//DTD SVG 1.1//EN" "http://www.w3.org/Graphics/SVG/1.1/DTD/svg11.dtd">
<!-- Creator: CorelDRAW 2019 (64-Bit) -->
<svg xmlns="http://www.w3.org/2000/svg" xml:space="preserve" width="19.6664mm" height="19.6664mm" version="1.1" style="shape-rendering:geometricPrecision; text-rendering:geometricPrecision; image-rendering:optimizeQuality; fill-rule:evenodd; clip-rule:evenodd"
viewBox="0 0 809.44 809.44"
 xmlns:xlink="http://www.w3.org/1999/xlink"
 xmlns:xodm="http://www.corel.com/coreldraw/odm/2003">
 <defs>
  <style type="text/css">
   <![CDATA[
    .fil0 {fill:none}
    .fil1 {fill:black}
    .fil12 {fill:#552E24}
    .fil10 {fill:#5A442E}
    .fil6 {fill:#646D78}
    .fil11 {fill:#835933}
    .fil9 {fill:#B27946}
    .fil5 {fill:#B4DC7F}
    .fil4 {fill:#D19E6B}
    .fil2 {fill:#F0D0B4}
    .fil8 {fill:#FC806D}
    .fil7 {fill:#FCD770}
    .fil3 {fill:#FEE9A5}
   ]]>
  </style>
 </defs>
 <g id="Layer_x0020_1">
  <metadata id="CorelCorpID_0Corel-Layer"/>
  <rect class="fil0" width="809.44" height="809.44"/>
  <g id="_1983214840992">
   <path class="fil1" d="M404.32 634.22c0.23,-3.54 12.89,-19.73 23.1,-17 8.74,2.34 7.47,11.11 7.8,19.92 9.52,0 24.76,-2.25 28.83,4.92 4.5,7.92 -1.46,19.42 -5.29,24.37 -11.24,14.52 -32.03,11.37 -54.13,11.37l-0.32 -43.57zm-304.31 -300.72l0 -20.62c0.97,-11.45 5.2,-21.18 20.9,-21.18 0,-70.63 70.74,-141.41 141.41,-141.41 0,-11.84 7.98,-20.9 19.67,-20.9 17.21,0 41.25,-4.11 41.8,20.9 26.96,0 59.15,13.48 78.7,28.27 13.97,10.57 25.02,20.81 34.92,35.17 14.94,21.64 27.78,50.76 27.78,77.97 25.46,0 20.9,27.42 20.9,43.04 0,8.41 -9.5,14.96 -9.83,15.99 -1.36,4.15 1.84,147.93 -0.51,164.26 -0.48,3.34 -0.81,7.54 -1.41,10.88 -0.72,4.03 -1.47,5.72 -1.77,9.3l43.04 0 0 -98.37c0,-2.84 0.85,-3.69 3.69,-3.69l196.74 0c2.83,0 3.69,0.86 3.69,3.69l0 180.75 -90.99 0 0 100.83 -204.11 0 0 -19.67 -19.67 0c-0.23,10.54 -8.78,19.67 -19.67,19.67l-95.91 0c-20.51,0 -41.36,-12.93 -50.61,-24.4 -16.2,-20.08 -17.02,-33.4 -17.02,-57.98 -24.98,-5.82 -48.69,-13.76 -67.34,-32.26 -49.65,-49.2 -44.55,-82.5 -44.55,-154.65 0,-33.2 0,-66.4 0,-99.6 -5.63,-1.5 -9.84,-8.72 -9.84,-15.99zm284.33 364.54c-23.72,0 -94.38,3.26 -111.15,-4.05 -13.03,-5.68 -23.01,-15.68 -28.05,-29.76 -4.64,-12.95 -2.98,-38.72 -2.98,-54.07 0,-19.21 -1.69,-38.41 10.85,-47.4 12.86,-9.22 30.33,-8.85 41.22,1.95 11.57,11.49 8.71,29.95 8.88,49.15 0.12,13.19 -1.44,12.08 -7.42,21.06 -3.41,5.1 -8.56,11.97 -10.87,16.9l16.77 10.95c3,-4.37 14.87,-23.7 18.82,-25.65l63.91 0 0.01 60.91zm60.88 -142.15l40.65 0.27 0.11 40.39 81.05 -0.16 0.07 -40.5 40.62 0.14 0 141.89c-26,0.68 -139.84,1.16 -161.38,-0.13 0.28,-0.21 0.68,-0.43 0.9,-0.55 11.56,-6.43 30.28,-9.47 37.16,-38.33 9.42,-39.52 -29.39,-42.39 -29.77,-42.63 -0,-0 -9.4,-10.44 -9.4,-15.95l-0.02 -44.44zm61.29 -0.32l40.29 0.33 -0.12 19.72c-3.46,1.84 -5.9,1.23 -10.16,1.19 -3.28,-0.03 -6.56,-0.01 -9.84,-0.01 -6.75,0 -13.71,0.44 -20.4,-0.34 -1.51,-4.06 -2.14,-16.74 0.23,-20.89zm-143.6 61.19l-39.54 0.04c0,-19.14 1.3,-31.99 -3.57,-49.79 20.86,5.25 39.46,26.16 43.11,49.75zm295.32 -121.94l0.34 -40.5 31.67 -0.24c1.12,-0.01 4.01,-0.14 4.96,-0.03 5.6,0.58 2.18,0.32 3.86,1.3l-0.03 141.21 -70.42 0.21c-1.01,-1.35 -0.87,1.16 -1.59,-3.75l0.05 -56.91 -80.73 0.01c-9.34,0.09 -7.1,0.54 -9.59,-1.43l0.17 -80.36 40.29 -0.02 0.06 40.65 80.96 -0.14zm-223.16 -141.98l20.33 0c0,27.1 1.36,149.47 -1.14,167.66 -2.58,18.82 0.14,14.99 -29.29,15.27l-0.14 60.78c-16.28,0.35 -22.09,7.65 -31.22,17.06 -11.8,12.16 -11.88,-8.03 -15.4,-17.3 -2.65,-6.97 -5.32,-11.34 -9.02,-16.78 -8.4,-12.35 -15.5,-16.78 -26.55,-25.04 4.61,-2 13.86,-3.61 19.42,-5.67 16.69,-6.18 35.59,-18.47 45.85,-31.6 15.8,-20.2 27.17,-40.7 27.17,-75.53l-0.02 -88.86zm-304.33 0l20.03 0 0 88.86c0,31.2 9.8,53.53 24.58,72.19 7.07,8.93 15.51,16.29 25.84,23.37 11.65,8 19.03,9.23 32.82,15.1 -3.38,8.58 -9.59,12.6 -11.59,26.57 -1.6,11.15 0.23,24.29 -0.86,35.86 -50.98,-9.54 -91.1,-53.6 -91.1,-112.85l0.28 -149.11zm466.82 102.39l40.85 -0.83 -0.17 20.18c-6.72,0.94 -13.77,0.43 -20.58,0.43l-20.19 -1.04 0.08 -18.74zm-426.48 -102.38l243.71 0 0 88.86c0,52.79 -39.48,93.86 -92.22,93.86l-59.02 0c-53.04,0 -92.46,-40.87 -92.46,-93.86l0 -88.86zm-50.17 -40.66l344.65 0 -0.35 20.32 -344.89 0 0.6 -20.32zm243.12 -81.24l20.3 0 -0 60.91 -20.3 0 0.01 -60.91zm-81.27 -81.24l20.33 0 0.11 142.15 -20.42 0 -0.02 -142.15zm-81.21 81.24l20.31 0 0.19 60.91 -20.49 0 0 -60.91zm121.84 -60.31c64.77,4.65 116.24,56.67 121.21,121.22l-39.98 0 0 -57.96c0,-16.21 -8.12,-23.28 -24.25,-23.28 -17.96,0 -36.67,-2.15 -36.66,23.28l0.06 57.96 -20.39 0 0 -121.22zm-182.19 121.22c4.97,-64.83 56.58,-116.43 121.27,-121.23l-0.16 121.23 -20.16 0c0,-18.92 0.1,-37.87 0.03,-56.79 -0.08,-21.04 -10.02,-24.46 -30.28,-24.46 -20.89,0.01 -30.69,3.81 -30.68,25.72 0.01,18.51 0.03,37.02 -0.07,55.53l-39.95 0z"/>
   <path class="fil2" d="M356.39 454.62c-4.48,33.27 -27.34,60.54 -63.33,60.62 -34.78,0.08 -60.85,-27.67 -63.5,-60.9l126.83 0.28zm-43.09 -40.86c2.51,-53.8 78.57,-53.94 81.13,0l-18.99 0 -1.93 -4.66c-5.98,-18.42 -30.46,-24.64 -39.94,1.85l-1.16 2.81 -19.11 0zm-121.85 -0.55c2.87,-53.08 78.59,-52.57 81.1,0.55l-20.27 0c-1.76,-23 -26.43,-24.95 -35.88,-13.04 -10.91,13.75 7.01,13.31 -24.95,12.49zm-20.36 28.5c0,52.99 39.43,93.86 92.46,93.86l59.02 0c52.74,0 92.22,-41.08 92.22,-93.86l0 -88.86 -243.71 0 0 88.86z"/>
   <path class="fil3" d="M577.31 275.34l-37.24 -36.13c1.96,-3.46 11.58,-13.16 14.82,-15.01l21.95 22.51c4.82,-2.39 7.75,-6.52 11.46,-10.22 3.78,-3.78 6.67,-6.67 10.45,-10.45l62.68 -62.85c4.35,3.91 10.68,9.39 13.78,14.15l-97.89 98zm-70.76 -56.19c4.4,52.97 50.82,97.66 109.95,92.64 52.72,-4.47 97.47,-51.17 92.36,-109.91 -4.63,-53.19 -51.46,-97.66 -110.89,-92.29 -52.03,4.71 -96.24,51.38 -91.41,109.56z"/>
   <path class="fil4" d="M445.24 600.33c0,5.51 9.39,15.95 9.4,15.95 0.38,0.23 39.19,3.1 29.77,42.63 -6.87,28.86 -25.6,31.89 -37.16,38.33 -0.22,0.12 -0.61,0.34 -0.9,0.55 21.54,1.29 135.38,0.81 161.38,0.13l0 -141.89 -40.62 -0.14 -0.07 40.5 -81.05 0.16 -0.11 -40.39 -40.65 -0.27 0.02 44.44z"/>
   <path class="fil1" d="M506.55 219.15c-4.83,-58.18 39.38,-104.85 91.41,-109.56 59.43,-5.37 106.26,39.1 110.89,92.29 5.11,58.75 -39.64,105.44 -92.36,109.91 -59.13,5.02 -105.55,-39.67 -109.95,-92.64zm94.11 -130.34l12.1 0c16.55,0.78 32.94,4.72 47.54,11.47 6.39,2.96 13.16,7.01 18.51,11 3.48,2.6 4.89,3.98 8.09,6.66 13.22,11.11 24.46,25.03 31.58,40.97 6.62,14.83 10.26,30.13 11.08,45.29l0 13.17c-1.62,29.75 -14.17,58.25 -36.57,80.79 -44.75,45.01 -124.48,46.36 -169.08,1.23 -11.21,-11.34 -17.53,-18.68 -25.1,-33.92 -12.94,-26.06 -12.71,-35.54 -12.71,-63.53 0,-29 17.41,-59.7 35.96,-78.4l15.43 -12.86c6.59,-4.36 10.4,-6.66 17.87,-10.4 13.92,-6.99 29.5,-10.71 45.31,-11.46z"/>
   <path class="fil4" d="M536.76 534.7c19.03,1.67 79.07,-2.66 91.59,1.12l0.27 60.96 70.42 -0.21 0.03 -141.21 -39.86 0c0,9.95 2.4,31.94 -0.97,39.47l-80.96 0.14 -0.06 -40.65 -40.29 0.02 -0.17 80.36z"/>
   <path class="fil5" d="M384.34 698.04l-0.01 -60.91 -63.91 0c-3.94,1.94 -15.82,21.27 -18.82,25.65l-16.77 -10.95c2.31,-4.93 7.47,-11.8 10.87,-16.9 5.98,-8.98 7.54,-7.87 7.42,-21.06 -0.17,-19.2 2.69,-37.66 -8.88,-49.15 -10.89,-10.8 -28.36,-11.17 -41.22,-1.95 -12.54,8.98 -10.85,28.19 -10.85,47.4 0,15.35 -1.66,41.11 2.98,54.07 5.04,14.08 15.01,24.08 28.05,29.76 16.78,7.31 87.44,4.05 111.15,4.05z"/>
   <path class="fil6" d="M130.47 501.96c0,59.25 40.12,103.31 91.1,112.85 1.09,-11.57 -0.74,-24.72 0.86,-35.86 2,-13.97 8.22,-17.99 11.59,-26.57 -13.8,-5.87 -21.18,-7.1 -32.82,-15.1 -10.32,-7.09 -18.76,-14.44 -25.84,-23.37 -14.78,-18.67 -24.58,-40.99 -24.58,-72.19l0 -88.86 -20.03 0 -0.28 149.11z"/>
   <path class="fil6" d="M435.09 441.71c0,34.83 -11.38,55.33 -27.17,75.53 -10.26,13.13 -29.17,25.42 -45.85,31.6 -5.56,2.06 -14.81,3.67 -19.42,5.67 11.05,8.26 18.15,12.69 26.55,25.04 3.7,5.44 6.37,9.81 9.02,16.78 3.52,9.27 3.6,29.46 15.4,17.3 9.12,-9.4 14.94,-16.71 31.22,-17.06l0.14 -60.78c29.43,-0.29 26.71,3.55 29.29,-15.27 2.5,-18.2 1.14,-140.57 1.14,-167.66l-20.33 0 0.02 88.86z"/>
   <polygon class="fil7" points="120.32,332.51 465.21,332.51 465.56,312.19 120.91,312.19 "/>
   <path class="fil3" d="M141.21 291.87l39.95 0c0.09,-18.51 0.08,-37.02 0.07,-55.53 -0.01,-21.91 9.78,-25.71 30.68,-25.72 20.27,-0 30.21,3.42 30.28,24.46 0.07,18.92 -0.03,37.87 -0.03,56.79l20.16 0 0.16 -121.23c-64.69,4.8 -116.31,56.4 -121.27,121.23z"/>
   <path class="fil3" d="M323.39 291.87l20.39 0 -0.06 -57.96c-0.01,-25.42 18.69,-23.28 36.66,-23.28 16.13,0 24.25,7.06 24.25,23.28l0 57.96 39.98 0c-4.97,-64.55 -56.44,-116.57 -121.21,-121.22l0 121.22z"/>
   <path class="fil1" d="M328.25 475.13c-5.52,9.89 -18.17,19.7 -35.2,19.83 -15.88,0.12 -31.47,-10.77 -35.42,-20.11l4.69 -0.2 61.49 -0.1 4.44 0.58zm28.14 -20.52l-126.83 -0.28c2.65,33.23 28.72,60.98 63.5,60.9 35.99,-0.08 58.85,-27.35 63.33,-60.62z"/>
   <path class="fil1" d="M515.62 396.21c0,12.71 -1.78,18.45 3.69,18.45l177.07 0c5.46,0 3.69,-5.74 3.69,-18.45 0,-2.83 -0.86,-3.68 -3.69,-3.68l-177.07 0c-2.84,0 -3.69,0.85 -3.69,3.68z"/>
   <path class="fil1" d="M515.62 355.63c0,12.71 -1.78,18.45 3.69,18.45l177.07 0c5.46,0 3.69,-5.74 3.69,-18.45 0,-2.83 -0.86,-3.68 -3.69,-3.68l-177.07 0c-2.84,0 -3.69,0.86 -3.69,3.68z"/>
   <path class="fil1" d="M675.2 177.34c-3.1,-4.76 -9.43,-10.24 -13.78,-14.15l-62.68 62.85c-3.78,3.78 -6.67,6.67 -10.45,10.45 -3.71,3.7 -6.64,7.83 -11.46,10.22l-21.95 -22.51c-3.24,1.85 -12.86,11.55 -14.82,15.01l37.24 36.13 97.89 -98z"/>
   <polygon class="fil7" points="282.78,291.86 303.2,291.86 303.09,149.72 282.76,149.72 "/>
   <path class="fil2" d="M404.64 677.79c22.1,0 42.89,3.16 54.13,-11.37 3.83,-4.95 9.79,-16.45 5.29,-24.37 -4.07,-7.17 -19.31,-4.92 -28.83,-4.92 -0.33,-8.8 0.94,-17.58 -7.8,-19.92 -10.21,-2.73 -22.87,13.45 -23.1,17l0.32 43.57z"/>
   <path class="fil1" d="M313.3 413.75l19.11 -0 1.16 -2.81c9.48,-26.49 33.96,-20.27 39.94,-1.85l1.93 4.66 18.99 0c-2.56,-53.94 -78.63,-53.8 -81.13,0z"/>
   <path class="fil1" d="M191.44 413.21c31.96,0.82 14.04,1.26 24.95,-12.49 9.45,-11.92 34.12,-9.96 35.88,13.04l20.27 0c-2.5,-53.12 -78.22,-53.63 -81.1,-0.55z"/>
   <path class="fil5" d="M323.38 616.81l39.54 -0.04c-3.65,-23.59 -22.25,-44.5 -43.11,-49.75 4.88,17.8 3.57,30.65 3.57,49.79z"/>
   <polygon class="fil7" points="201.55,291.86 222.05,291.86 221.86,230.95 201.55,230.95 "/>
   <polygon class="fil7" points="364.02,291.86 384.32,291.86 384.32,230.95 364.03,230.95 "/>
   <path class="fil8" d="M328.25 475.13l-4.44 -0.58 -61.49 0.1 -4.69 0.2c3.96,9.34 19.54,20.23 35.42,20.11 17.03,-0.13 29.68,-9.93 35.2,-19.83z"/>
   <polygon class="fil9" points="546.69,575.62 546.81,555.9 506.51,555.57 506.51,575.62 "/>
   <polygon class="fil9" points="597.49,473.97 637.07,473.97 637.07,455.23 597.57,455.23 "/>
   <path class="fil10" d="M628.61 596.78l-0.27 -60.96c-12.52,-3.78 -72.56,0.55 -91.59,-1.12 2.49,1.97 0.25,1.52 9.59,1.43l80.73 -0.01 -0.05 56.91c0.72,4.91 0.58,2.4 1.59,3.75z"/>
   <path class="fil9" d="M658.24 494.82c3.36,-7.53 0.97,-29.52 0.97,-39.47l39.86 0c-1.68,-0.98 1.74,-0.72 -3.86,-1.3 -0.95,-0.1 -3.84,0.02 -4.96,0.03l-31.67 0.24 -0.34 40.5z"/>
   <path class="fil11" d="M597.49 473.97l20.19 1.04c6.81,0 13.86,0.51 20.58,-0.43l0.17 -20.18 -40.85 0.83 39.5 0 0 18.74 -39.58 0z"/>
   <path class="fil12" d="M546.69 575.62l-40.18 0 0 -20.05c-2.37,4.15 -1.74,16.83 -0.23,20.89 6.69,0.79 13.65,0.34 20.4,0.34 3.28,0 6.56,-0.02 9.84,0.01 4.26,0.03 6.7,0.64 10.16,-1.19z"/>
  </g>
 </g>
</svg>
