<?xml version="1.0" encoding="UTF-8"?>
<!DOCTYPE svg PUBLIC "-//W3C//DTD SVG 1.1//EN" "http://www.w3.org/Graphics/SVG/1.1/DTD/svg11.dtd">
<!-- Creator: CorelDRAW 2019 (64-Bit) -->
<svg xmlns="http://www.w3.org/2000/svg" xml:space="preserve" width="19.6664mm" height="19.6664mm" version="1.1" style="shape-rendering:geometricPrecision; text-rendering:geometricPrecision; image-rendering:optimizeQuality; fill-rule:evenodd; clip-rule:evenodd"
viewBox="0 0 485.07 485.07"
 xmlns:xlink="http://www.w3.org/1999/xlink"
 xmlns:xodm="http://www.corel.com/coreldraw/odm/2003">
 <defs>
  <style type="text/css">
   <![CDATA[
    .fil0 {fill:none}
    .fil9 {fill:#3176A6}
    .fil11 {fill:#3F4042}
    .fil7 {fill:#40873C}
    .fil8 {fill:#4196CD}
    .fil4 {fill:#50BAE3}
    .fil5 {fill:#51200A}
    .fil6 {fill:#52A04F}
    .fil10 {fill:#5A5B5C}
    .fil3 {fill:#90DEF6}
    .fil2 {fill:#E6B541}
    .fil1 {fill:#F8CA6E}
   ]]>
  </style>
 </defs>
 <g id="Layer_x0020_1">
  <metadata id="CorelCorpID_0Corel-Layer"/>
  <rect class="fil0" width="485.07" height="485.07"/>
  <g id="_1983214798592">
   <path class="fil1" d="M220.09 332.23c3.09,-1.32 8.67,-1.72 12.31,-2.87 11.91,-3.76 20.33,-9.59 28.31,-18.13 23.27,-24.92 21.79,-64.7 -2.46,-88.28 -11.38,-11.06 -22.93,-16.78 -44.37,-18.49l28.66 -28.57c4.81,4.82 9.4,9.4 14.34,14.34 3.56,3.56 10.79,11.99 14.68,13.96l0 -80.87 63.85 0c0,26.84 0,53.68 0,80.52 0,21.59 2.36,58.83 -3.99,77.27 -10.65,30.97 -38.73,50.53 -70.73,51.12 -12.07,0.22 -28.98,0.85 -40.6,-0.01z"/>
   <path class="fil1" d="M213.89 204.45c-24.06,1.84 -43.5,10.63 -55.63,31.9 -10.8,18.95 -11.43,40.73 -1.71,60.71 1.31,2.69 3,5.02 3.94,7.45 -1.69,0.76 -1.91,1 -3.4,2.56 -1.45,1.52 -1.45,0.92 -1.61,2.64 -5.94,3.45 -8.84,10.27 -14.67,13.28l-2.68 -2.25 -11.67 10.94 0 -208.36 87.06 0 0.36 81.13z"/>
   <path class="fil2" d="M150.01 355.46c3.18,-3.34 8.79,-7.59 10.89,-11.61 -0.94,-1.83 -0.02,-0.84 -1.77,-2.29 0.4,-2.51 2.29,-3.55 4.02,-5.27 1.66,-1.65 2.73,-3 4.54,-4.11l39.25 0.05 13.14 0c11.62,0.86 28.54,0.23 40.6,0.01 32,-0.59 60.08,-20.16 70.73,-51.12 6.34,-18.44 3.99,-55.68 3.99,-77.27 0,-26.84 0,-53.68 0,-80.52l23.2 0 0 232.14 -208.59 0z"/>
   <path class="fil3" d="M184.46 245.21l-11.55 0 -0.01 46.4 11.6 0 -0.03 -46.4zm23.25 0l-11.59 0 -0.01 46.4 11.6 0 0 -46.4zm23.21 0l-11.59 0 -0.01 46.4 11.6 0 0 -46.4zm23.21 0l-11.58 0 -0.01 46.4 11.6 0 0 -46.4zm-34.16 -28.6c26.88,3.5 49.21,27.41 45.37,58.61 -3.26,26.47 -27.89,48.82 -58.62,45.02 -26.52,-3.28 -48.78,-27.81 -45,-58.67 3.21,-26.2 27.83,-48.92 58.26,-44.96z"/>
   <path class="fil4" d="M219.97 216.6c-30.42,-3.96 -55.05,18.76 -58.26,44.96 -3.78,30.86 18.49,55.39 45,58.67 30.73,3.8 55.37,-18.55 58.62,-45.02 3.84,-31.2 -18.49,-55.11 -45.37,-58.61zm0.12 115.63l-13.14 0c-3.01,-1.29 -11.01,-2.27 -15.57,-3.96 -5.38,-2 -9.27,-4.58 -13.56,-6.71 -3.36,-2.83 -6.39,-5.07 -9.4,-8.06 -1.35,-1.34 -2.63,-2.65 -4.2,-4.5 -1.44,-1.7 -1.98,-2.74 -3.73,-4.49 -0.95,-2.43 -2.63,-4.76 -3.94,-7.45 -9.72,-19.98 -9.09,-41.76 1.71,-60.71 12.12,-21.27 31.57,-30.06 55.63,-31.9l-0.01 0.01c21.44,1.7 32.99,7.42 44.37,18.49 24.25,23.58 25.73,63.35 2.46,88.28 -7.98,8.54 -16.4,14.37 -28.31,18.13 -3.64,1.15 -9.22,1.56 -12.31,2.87z"/>
   <path class="fil5" d="M213.88 204.46l0.01 -0.01 -0.36 -81.13 58.03 0 0 80.87c-3.89,-1.97 -11.12,-10.4 -14.68,-13.96 -4.93,-4.93 -9.52,-9.52 -14.34,-14.34l-28.66 28.57z"/>
   <polygon class="fil6" points="178.7,76.89 80.04,76.89 80.04,175.55 68.43,175.55 68.43,65.28 178.7,65.28 "/>
   <polygon class="fil6" points="405.04,175.55 405.04,76.89 306.37,76.89 306.37,65.28 416.64,65.28 416.64,175.55 "/>
   <polygon class="fil6" points="178.7,401.89 178.7,413.5 68.43,413.5 68.43,303.23 80.04,303.23 80.04,401.89 "/>
   <polygon class="fil6" points="306.37,401.89 405.04,401.89 405.04,303.23 416.64,303.23 416.64,413.5 306.37,413.5 "/>
   <polygon class="fil7" points="405.04,175.55 393.43,175.55 393.43,88.5 306.37,88.5 306.37,76.89 405.04,76.89 "/>
   <polygon class="fil7" points="80.04,175.55 80.04,76.89 178.7,76.89 178.7,88.5 91.65,88.5 91.65,175.55 "/>
   <polygon class="fil7" points="306.37,401.89 306.37,390.28 393.43,390.28 393.43,303.23 405.04,303.23 405.04,401.89 "/>
   <path class="fil7" d="M91.71 366.34c-1.45,3.13 -3.24,2.82 -4.52,7.15 -4.14,8.22 1.31,17.19 6.73,20.31 3.21,1.85 7.51,2.8 11.86,1.86 4.92,-1.07 6.72,-3.57 9.8,-5.4l63.12 0.01 0 11.61 -98.66 0 0 -98.66 11.61 0 0.06 63.12z"/>
   <path class="fil8" d="M140.81 322.99l13.94 14.4c-0.07,3.07 -2.7,4.43 -6.71,8.44l-23.75 23.41c-6.53,6.3 -9.97,12.02 -16.85,14.36 -9.28,3.15 -18.74,-2.86 -20.25,-10.11 1.28,-4.34 3.07,-4.02 4.52,-7.15l34.76 -34.66 11.67 -10.94 2.68 2.25z"/>
   <path class="fil9" d="M159.14 341.56c1.75,1.46 0.83,0.47 1.77,2.29 -2.11,4.01 -7.71,8.27 -10.89,11.61l-34.43 34.81c-3.07,1.83 -4.88,4.33 -9.8,5.4 -4.35,0.94 -8.65,-0.01 -11.86,-1.86 -5.42,-3.12 -10.87,-12.1 -6.73,-20.31 1.5,7.25 10.97,13.26 20.25,10.11 6.88,-2.34 10.32,-8.06 16.85,-14.36l23.75 -23.41c4.01,-4.01 6.63,-5.37 6.71,-8.44 2.03,1.49 2.88,2.75 4.39,4.16z"/>
   <polygon class="fil10" points="207.7,291.61 196.11,291.61 196.12,245.21 207.7,245.21 "/>
   <polygon class="fil10" points="254.13,291.61 242.54,291.61 242.55,245.21 254.13,245.21 "/>
   <polygon class="fil10" points="230.92,291.61 219.32,291.61 219.33,245.21 230.92,245.21 "/>
   <polygon class="fil10" points="184.49,291.61 172.89,291.61 172.9,245.21 184.46,245.21 "/>
   <path class="fil10" d="M172.05 326.73l-4.36 5.45c-1.81,1.11 -2.88,2.46 -4.54,4.11 -1.73,1.72 -3.62,2.76 -4.02,5.27 -1.52,-1.42 -2.36,-2.68 -4.39,-4.16l-13.94 -14.4c5.83,-3.01 8.73,-9.83 14.67,-13.28 0.36,4.03 12.69,15.64 16.57,17.02z"/>
   <path class="fil11" d="M177.82 321.56l-5.76 5.17c-3.89,-1.38 -16.22,-12.99 -16.57,-17.02 0.16,-1.72 0.16,-1.12 1.61,-2.64 1.49,-1.56 1.71,-1.8 3.4,-2.56 1.75,1.75 2.29,2.79 3.73,4.49 1.56,1.85 2.84,3.15 4.2,4.5 3,2.99 6.04,5.23 9.4,8.06z"/>
   <path class="fil1" d="M206.95 332.23l-39.25 -0.05 4.36 -5.45 5.76 -5.17c4.29,2.13 8.19,4.71 13.56,6.71 4.56,1.69 12.56,2.67 15.57,3.96z"/>
  </g>
 </g>
</svg>
