<?xml version="1.0" encoding="UTF-8"?>
<!DOCTYPE svg PUBLIC "-//W3C//DTD SVG 1.1//EN" "http://www.w3.org/Graphics/SVG/1.1/DTD/svg11.dtd">
<!-- Creator: CorelDRAW 2019 (64-Bit) -->
<svg xmlns="http://www.w3.org/2000/svg" xml:space="preserve" width="19.6664mm" height="19.6664mm" version="1.1" style="shape-rendering:geometricPrecision; text-rendering:geometricPrecision; image-rendering:optimizeQuality; fill-rule:evenodd; clip-rule:evenodd"
viewBox="0 0 471.49 471.49"
 xmlns:xlink="http://www.w3.org/1999/xlink"
 xmlns:xodm="http://www.corel.com/coreldraw/odm/2003">
 <defs>
  <style type="text/css">
   <![CDATA[
    .fil0 {fill:none}
    .fil1 {fill:black}
    .fil13 {fill:#474849}
    .fil8 {fill:#4B4021}
    .fil9 {fill:#5E4830}
    .fil12 {fill:#72573A}
    .fil14 {fill:#848588}
    .fil11 {fill:#8B773E}
    .fil10 {fill:#9D8646}
    .fil7 {fill:#AE944D}
    .fil5 {fill:#B17946}
    .fil6 {fill:#B4DD7E}
    .fil2 {fill:#D29F6C}
    .fil4 {fill:#E6E9ED}
    .fil3 {fill:#FBD670}
   ]]>
  </style>
 </defs>
 <g id="Layer_x0020_1">
  <metadata id="CorelCorpID_0Corel-Layer"/>
  <rect class="fil0" width="471.49" height="471.49"/>
  <g id="_1983391915408">
   <path class="fil1" d="M93.66 296.14l93.64 0 -0.81 -0.09 14.72 -29.46 0.41 3.36 -0.03 140.46 -107.92 0 -0 -114.28zm215.87 89.4l-0.09 -3.51 0 -6.73 0.08 -3.51 0.77 -1.9 -0.02 -1.54 0.06 -1.41c-0.09,-1.47 -0.52,-1.23 0.71,-1.23l0.12 -0.96 -0.07 -1.11c-0.04,-1.24 -0.38,-0.99 0.77,-0.99l-0.01 -0.69 -0.02 -0.93 0.81 -0.83 0.01 -0.59 -0.03 -0.91c-0.05,-1.14 -0.31,-0.84 0.86,-0.84l0.03 -0.45 0.72 -1.13 0.01 -0.53 0.77 -1.11 0.74 -2.24 0.79 -0.97 0.04 -0.52 0.85 -0.92 -0.01 -0.63c0.01,-1.17 -0.29,-0.89 0.88,-0.89l0.7 -1.43 0.94 -0.86 0.67 -1.54 0.81 -0.86c-0.02,-1.14 -0.29,-0.85 0.87,-0.85l3.01 -3.9 0.9 -0.81 0.81 -0.9 3.93 -2.99c0,-1.15 -0.29,-0.88 0.83,-0.87l0.84 -0.82 1.55 -0.66 0.86 -0.95 1.44 -0.7c0,-1.17 -0.29,-0.87 0.88,-0.88l0.63 0.01 0.93 -0.85 0.52 -0.04 0.97 -0.79 2.25 -0.74 1.1 -0.77 0.54 -0 1.13 -0.72 0.47 -0.03c0,-1.16 -0.3,-0.9 0.82,-0.86l0.89 0.02 0.61 -0 0.84 -0.8 0.91 0.01 0.69 0.01c0,-1.15 -0.26,-0.81 0.99,-0.77l1.12 0.07 0.96 -0.12c0,-1.23 -0.24,-0.79 1.25,-0.7l1.38 -0.07 1.55 0.03 1.89 -0.77 3.49 -0.09 6.77 0 3.48 0.09 1.89 0.77 1.54 -0.02 1.4 0.07c1.47,-0.09 1.24,-0.52 1.24,0.7l1.13 0.08 1.11 -0.06 0.81 0.81 0.7 -0.02 0.91 -0.01 0.84 0.8 0.6 0.01 0.88 -0.01c1.12,-0.03 0.82,-0.29 0.82,0.85l0.47 0.03 1.14 0.72 0.7 -0.04 1.05 0.74 0.61 0.01 0.98 0.75 0.55 0.05 0.97 0.8 0.5 0.04 0.94 0.86 0.62 -0.01c1.17,0.03 0.88,-0.28 0.88,0.87l1.63 0.61c1.16,0.04 0.85,-0.25 0.85,0.94l1.46 0.68c1.2,-0.01 0.93,-0.31 0.84,0.87l0.77 0.91 3.96 2.96 0.8 0.92 0.87 0.82 2.99 3.93 0.91 0.77c1.16,-0.07 0.86,-0.34 0.85,0.84l0.69 1.45c1.2,0 0.91,-0.31 0.95,0.84l0.6 1.64c1.15,0 0.85,-0.28 0.88,0.87l-0.01 0.63 0.85 0.95 0.03 0.5 0.8 0.98 0.04 0.54 0.76 0.98 0.01 0.61 0.75 1.05 -0.04 0.68 0.72 1.15 0.03 0.5c1.13,0 0.86,-0.29 0.84,0.83l0 0.87 0 0.6 0.79 0.87 -0 0.89 -0.01 0.7 0.79 0.84 -0.05 1.08 0.08 1.14 0.7 1.23 0.07 1.4 -0.02 1.54 0.75 1.9 0.1 3.49 -0 6.65 0.02 3.1 -0.92 2.13 0.07 1.71 -0.07 1.4 -0.7 1.23 -0.08 1.14 0.05 1.06 -0.79 0.85 0.02 0.7 -0 0.88 -0.78 0.87 -0 0.6 0 0.88c0.03,1.13 0.3,0.85 -0.83,0.85l-0.03 0.48 -0.72 1.15 0.04 0.67 -0.75 1.05 -0.01 0.61 -0.76 0.99 -0.04 0.53 -0.81 0.98 0.02 0.64 -0.84 0.91 -0.06 0.52c-0.04,1.16 0.27,0.88 -0.88,0.88l-0.61 1.64c-0.04,1.16 0.25,0.85 -0.94,0.85l-0.69 1.45c-0.01,1.16 0.29,0.9 -0.86,0.83l-0.78 0.84c0.07,1.15 0.35,0.87 -0.78,0.87l-2.34 3 -0.89 0.81 -0.8 0.9 -3 2.34c0,1.12 0.28,0.85 -0.86,0.8l-0.84 0.77c0.05,1.13 0.31,0.83 -0.85,0.85l-1.44 0.7c0,1.19 0.31,0.9 -0.85,0.93l-1.65 0.6c0,1.14 0.28,0.84 -0.88,0.87l-0.62 -0.01 -0.94 0.86 -0.5 0.03 -0.99 0.8 -0.54 0.03 -0.99 0.77 -0.59 0.01 -1.05 0.74 -0.68 -0.04 -1.14 0.72 -0.5 0.03c0,1.13 0.29,0.86 -0.84,0.83l-0.88 -0 -0.59 0.01 -0.86 0.79 -0.9 -0 -0.7 -0.02 -0.85 0.79 -1.07 -0.05 -1.16 0.08 -1.22 0.7 -1.38 0.08 -1.55 -0.02 -1.88 0.76 -3.49 0.1 -6.68 0 -3.5 -0.1 -1.87 -0.76 -1.56 0.02 -1.39 -0.08 -1.23 -0.7 -1.16 -0.08 -1.08 0.05 -0.82 -0.8 -0.7 0.02 -0.9 0.01 -0.86 -0.79 -0.59 -0.01 -0.88 0c-1.13,0.02 -0.85,0.3 -0.85,-0.83l-0.5 -0.03 -1.14 -0.72 -0.69 0.04 -1.04 -0.74 -0.6 -0.01 -0.98 -0.76 -0.56 -0.04 -0.98 -0.79 -0.5 -0.04 -0.93 -0.86 -0.63 0.01c-1.17,-0.03 -0.89,0.28 -0.89,-0.88l-1.64 -0.61c-1.16,-0.03 -0.85,0.26 -0.85,-0.95l-1.45 -0.69c-1.19,0.01 -0.92,0.3 -0.81,-0.88l-0.76 -0.91 -4.78 -3.75 -0.9 -0.92 -3 -3.91 -0.91 -0.77c-1.17,0.07 -0.87,0.34 -0.85,-0.86l-0.6 -1.61 -0.95 -0.87 -0.7 -1.43c-1.16,0 -0.86,0.29 -0.88,-0.89l0.01 -0.63 -0.86 -0.94 -0.05 -0.5 -0.78 -0.98 -0.82 -2.14 -0.74 -1.05 0.03 -0.69 -0.72 -1.13 -0.03 -0.48c-1.15,0 -0.89,0.3 -0.85,-0.83l0.02 -0.89 -0.01 -0.6 -0.8 -0.84 0.01 -0.91 0.01 -0.69 -0.81 -0.8 0.07 -1.12 -0.07 -1.15c-1.23,0 -0.79,0.24 -0.71,-1.23l-0.07 -1.4 0.02 -1.55 -0.77 -1.87zm11.09 -59.22l-0.84 0.85 -4.64 4.64 -0.89 0.81 -0.81 0.78 -0.88 0.81 -1.38 2.39 -0.98 0.82 -1.39 2.3 -0.93 0.89 -1.49 3.11 -0.86 0.91 -0.02 0.56c-0,1.22 0.33,0.96 -0.8,0.96l0.05 0.69c0.09,1.28 0.41,1 -0.82,1l-0.06 0.44 -0.75 1.04 -0 0.61 -0.76 1.05 -0 0.56 -0.73 1.16 -0.09 1.21c0.1,1.43 0.51,1.19 -0.7,1.19l-0.18 0.96 -0.64 1.33 -0.1 1.16 -0.63 1.47 -0.01 1.35 -0.9 1.53 -0.63 6.52 -0.99 3.81 0 10.22 0.93 3.99 -0.19 2.55 0.95 2.23 -0.11 1.7 0.84 1.65 0.13 1.75 0.61 1.47 0.15 0.98c1.24,0 0.79,-0.23 0.68,1.29l0.08 1.2 0.69 1.23 0.92 2.72 0.75 1.06 -0.04 0.7 0.77 1.02 0.04 0.5c1.14,0.83 1.18,0.12 0.02,0.96l-89.71 -0.02 0 -143.73 15.1 29.36 92.82 0.09 0.05 28.69 -0.76 0.75 -0.87 0.74zm4.75 -80.29c1.16,0 0.86,-0.29 0.89,0.88l3.08 5.47c1.16,0 0.86,-0.29 0.89,0.88l3.08 5.47c1.16,0 0.86,-0.29 0.89,0.88l3.08 5.47c1.16,0 0.86,-0.29 0.89,0.88l3.08 5.47c1.16,0 0.86,-0.29 0.89,0.88l3.08 5.47c1.16,0 0.86,-0.29 0.89,0.88l2.5 4.81 -111.42 -0.07 -18.77 -37.86c9.88,-0.79 104.38,-0.79 106.96,0.51zm-255.59 32.63c0.02,-1.17 -0.28,-0.88 0.89,-0.88l3.08 -5.47c0.02,-1.17 -0.28,-0.88 0.89,-0.88l3.08 -5.47c0.02,-1.17 -0.28,-0.88 0.89,-0.88l3.08 -5.47c0.02,-1.17 -0.28,-0.88 0.89,-0.88l3.08 -5.47c0.02,-1.17 -0.28,-0.88 0.89,-0.88l3.08 -5.47c0.02,-1.17 -0.28,-0.88 0.89,-0.88 2.62,-1.34 96.86,-1.27 107.08,-0.47l-18.77 37.89 -111.61 -0.05 2.57 -4.74zm201.69 -134.87l12.65 0 -0 88.88 -12.7 0 0.05 -88.88zm-50.83 38.09l12.7 0 0 50.79 -12.7 0 0 -50.79zm-50.79 12.7l12.7 0 0 38.09 -12.7 0 0 -38.09zm-50.78 12.7l12.7 0 -0.1 25.39 -12.6 0 0 -25.39zm139.66 25.39l-12.69 0 0 -63.48 -38.09 0 0 63.48 -12.7 0 0 -50.79 -38.09 0 0 50.79 -12.7 0 0 -38.09 -38.09 0 0 38.09c-28.89,0 -19.95,-3.68 -32.06,14.75 -2.62,3.99 -29.16,45.83 -29.83,48.73l36.5 0 0 126.96 230.12 0c3.27,0 20.37,25.39 51.58,25.39 13.72,0 21.43,-0.39 33.87,-6.6 22.27,-11.13 39.93,-34.34 39.93,-59.26 0,-22.05 -4.88,-37.82 -20.43,-53.37 -11.05,-11.05 -28.13,-20.43 -45.43,-20.43 -26.59,0 -25.37,4.73 -35.71,7.14l0 -19.84 36.5 0c-0.76,-3.26 -26.67,-43.84 -29.52,-48.25 -2.32,-3.6 -8.58,-15.23 -10.95,-15.23l-34.12 0 0 -101.57 -38.09 0 0 101.57z"/>
   <path class="fil2" d="M157.16 385.03l12.69 0 -0 12.69 -12.69 0 0 -12.69zm-25.39 0l12.69 0 0 12.69 -12.69 0 0 -12.69zm-25.39 0l12.69 0 -0 12.69 -12.69 0 0 -12.69zm0 -25.39l63.48 0 -0 12.69 -63.48 0 0 -12.69zm-12.7 50.79l107.92 0 0.03 -140.46 -0.41 -3.36 -14.72 29.46 0.81 0.09 -93.64 0 0 114.28z"/>
   <path class="fil2" d="M303.99 410.44l-0.02 -0.96 -0.04 -0.5c-1.17,0 -0.82,0.26 -0.77,-1.02l0.04 -0.7c-1.16,0 -0.79,0.24 -0.75,-1.06l-0.92 -2.72c-1.22,0 -0.79,0.23 -0.69,-1.23l-0.08 -1.2 -0.68 -1.29 -0.15 -0.98 -0.61 -1.47 -0.13 -1.75 -0.84 -1.65 0.11 -1.7 -0.95 -2.23 0.19 -2.55 -0.93 -3.99 -0 -10.22 0.99 -3.81 0.63 -6.52 0.9 -1.53 0.01 -1.35 0.63 -1.47 0.1 -1.16 0.64 -1.33 0.18 -0.96 0.7 -1.19 0.09 -1.21c-0.17,-1.43 -0.56,-1.16 0.73,-1.16l0 -0.56c-0.06,-1.3 -0.42,-1.05 0.76,-1.05l0 -0.61 0.75 -1.04 0.06 -0.44 0.82 -1 -0.05 -0.69 0.8 -0.96 0.02 -0.56c0.03,-1.18 -0.29,-0.91 0.86,-0.91l1.49 -3.11c-0.03,-1.21 -0.32,-0.89 0.93,-0.89l1.39 -2.3 0.98 -0.82 1.38 -2.39 0.88 -0.81 0.81 -0.78c-0.01,-1.12 -0.27,-0.81 0.89,-0.81l4.64 -4.64c0,-1.16 -0.3,-0.89 0.84,-0.85l0.87 -0.74 0.76 -0.75 -0.05 -28.69 -92.82 -0.09 -15.1 -29.36 -0 143.73 89.71 0.02z"/>
   <path class="fil3" d="M357.65 360.35l-0.57 -0.01 -0.83 0.94 -0.65 0.65 -0.94 0.83 0 0.57 -0.66 1.32 0 2.64 0.66 1.32 -0 0.56 0.94 0.84 0.66 0.66 0.84 0.94 0.57 -0.01 1.33 0.66 16.93 0.08 1.78 0.82 1.28 0.07 1.21 0.69 0.63 -0.01 1 0.78 0.61 -0c1.18,0.02 0.89,-0.28 0.89,0.88l1.47 0.71 0.86 0.8c1.11,-0.04 0.84,-0.31 0.82,0.78l0.76 0.83 0.82 0.84 0.7 1.5c1.16,0 0.85,-0.29 0.88,0.89l-0.01 0.61 0.78 1 -0.01 0.63 0.69 1.21 0.17 0.95c1.24,0 0.83,-0.25 0.73,1.2l0.01 1.6 0 4.47 -0.01 1.59c0.09,1.44 0.51,1.19 -0.73,1.19l-0.1 1.09c0.15,1.49 0.57,1.24 -0.71,1.24l-0.04 0.46 -0.78 1.01 0.01 0.62c-0.03,1.17 0.27,0.89 -0.88,0.89l-0.71 1.49 -0.82 0.84 -0.76 0.84c0.02,1.11 0.29,0.83 -0.83,0.79l-0.86 0.79 -1.44 0.73c0,1.18 0.3,0.89 -0.88,0.89l-0.67 -0.03 -1 0.78 -0.47 0.04c0,1.28 0.25,0.85 -1.24,0.71l-1.41 0.01 -1.78 0.82 -2.92 0 -0.05 12.72 -12.64 0 0 -12.7 -19.05 0 -0 -19.04 12.69 0 0 6.36 20.34 -0.08 1.33 -0.66 0.56 0 0.84 -0.94 0.67 -0.66 0.95 -0.83 -0 -0.57 0.66 -1.33 0 -2.59 -0.66 -1.33 0 -0.57 -0.94 -0.84 -0.65 -0.66 -0.83 -0.94 -0.56 0 -1.33 -0.66 -16.93 -0.08 -1.79 -0.82 -1.28 -0.07 -1.21 -0.69 -0.63 0.01 -1 -0.78 -0.62 0c-1.17,-0.03 -0.89,0.28 -0.89,-0.88l-1.49 -0.71 -0.84 -0.83 -0.82 -0.76 -0.8 -0.81 -0.82 -0.85 -0.71 -1.47c-1.16,0 -0.86,0.29 -0.88,-0.89l0 -0.61 -0.78 -1 0.01 -0.64 -0.69 -1.21 -0.16 -0.95c-1.24,0 -0.83,0.25 -0.73,-1.2l-0 -1.6 -0 -4.52 0.08 -1.38 0.69 -1.23 0.12 -1.14 0.69 -1.2 -0.01 -0.64 0.78 -1 -0.01 -0.62c0.02,-1.18 -0.29,-0.89 0.88,-0.89l0.71 -1.47 0.82 -0.85 0.8 -0.8 0.81 -0.77 0.84 -0.84 1.52 -0.69c0,-1.14 -0.28,-0.84 0.88,-0.88l0.57 -0.01 1 -0.78 0.64 0.01 1.21 -0.69 1.28 -0.07 1.79 -0.82 2.95 0.01 -0 -12.72 12.69 0 0.1 12.7 18.94 0 0 19.04 -12.69 0 0 -6.36 -20.36 0.07 -1.33 0.66zm2.12 -37.8l-1.89 -0.21 -1.55 -0.03 -1.38 0.91 -1.25 -0.13 -0.96 0.12c0,1.17 0.24,0.78 -1.12,0.74l-0.99 -0.04 -0.69 -0.01 -0.91 0.75 -0.84 0.03 -0.61 0 -0.89 0.77 -0.82 0.06 -0.47 0.03c0,1.19 0.24,0.79 -1.13,0.72l-0.54 0c0,1.27 0.28,0.91 -1.1,0.77l-2.25 0.74c0,1.16 0.27,0.84 -0.97,0.79l-0.52 0.04c0,1.19 0.29,0.88 -0.93,0.85l-0.63 -0.01 -0.88 0.88 -1.44 0.7c0,1.19 0.3,0.89 -0.86,0.95l-1.55 0.66 -0.84 0.82 -0.83 0.87 -3.93 2.99c0,1.17 0.31,0.9 -0.81,0.9 0,1.12 0.27,0.81 -0.9,0.81l-3.01 3.9 -0.87 0.85c0.02,1.13 0.3,0.86 -0.81,0.86l-0.67 1.54c-0.05,1.17 0.25,0.86 -0.94,0.86l-0.7 1.43 -0.88 0.89 0.01 0.63c0.02,1.21 0.33,0.92 -0.85,0.92l-0.04 0.52c0.05,1.24 0.37,0.97 -0.79,0.97l-0.74 2.24c0.15,1.38 0.51,1.11 -0.77,1.11l-0.01 0.53c0.07,1.37 0.46,1.13 -0.72,1.13l-0.03 0.45 -0.06 0.84 -0.77 0.91 -0.01 0.59 -0.03 0.83 -0.75 0.93 0.01 0.69 0.04 0.99c0.05,1.36 0.43,1.11 -0.74,1.11l-0.12 0.96 0.12 1.23 -0.9 1.41 0.02 1.54 0.21 1.9 -1.06 3.51 0 6.73 1.06 3.51 -0.21 1.87 -0.02 1.55 0.9 1.4 -0.13 1.23 0.07 1.15 0.72 1.12 0.03 0.8 -0.01 0.69 0.76 0.91 0.03 0.84 0.01 0.6 0.78 0.89 0.06 0.83 0.03 0.48c1.18,0 0.79,-0.24 0.72,1.13l-0.03 0.69c1.16,0 0.79,-0.24 0.74,1.05l0.82 2.14c1.16,0 0.83,-0.27 0.78,0.98l0.05 0.5c1.2,0 0.89,-0.29 0.86,0.94l-0.01 0.63 0.88 0.89 0.7 1.43c1.2,0 0.9,-0.3 0.95,0.87l0.6 1.61 0.85 0.86 0.91 0.77 3 3.91c1.21,0 0.9,-0.3 0.9,0.92l4.78 3.75c1.13,0.07 0.87,-0.22 0.76,0.91l0.81 0.88 1.45 0.69 0.85 0.95 1.64 0.61 0.89 0.88 0.63 -0.01c1.23,-0.04 0.93,-0.35 0.93,0.86l0.5 0.04c1.25,-0.06 0.98,-0.39 0.98,0.79l0.56 0.04c1.24,-0.05 0.98,-0.38 0.98,0.76l0.6 0.01c1.29,-0.06 1.04,-0.41 1.04,0.74l0.69 -0.04c1.38,-0.07 1.14,-0.47 1.14,0.72l0.5 0.03 0.85 0.04 0.88 0.79 0.59 0.01 0.86 0.02 0.9 0.76 0.7 -0.02 0.82 0.02 1.08 0.73 1.16 0.08 1.23 -0.13 1.39 0.91 1.56 -0.02 1.87 -0.22 3.5 1.08 6.68 0 3.49 -1.08 1.88 0.22 1.55 0.02 1.38 -0.91 1.22 0.13 1.16 -0.08 1.07 -0.73 0.85 -0.02 0.7 0.02 0.9 -0.77 0.86 -0.02 0.59 -0.01 0.88 -0.79 0.84 -0.04 0.5 -0.03c0,-1.19 -0.24,-0.8 1.14,-0.72l0.68 0.04c0,-1.16 -0.25,-0.8 1.05,-0.74l0.59 -0.01c0,-1.16 -0.26,-0.82 0.99,-0.77l0.54 -0.03c0,-1.2 -0.28,-0.87 0.99,-0.8l0.5 -0.03c0,-1.22 -0.3,-0.91 0.94,-0.86l0.62 0.01 0.88 -0.87 1.65 -0.6 0.85 -0.93 1.44 -0.7 0.85 -0.85c-0.05,-1.11 -0.3,-0.83 0.84,-0.77l0.86 -0.8 3 -2.34 0.8 -0.9 0.89 -0.81 2.34 -3 0.78 -0.87c-0.07,-1.16 -0.35,-0.91 0.78,-0.84l0.86 -0.83 0.69 -1.45 0.94 -0.85 0.61 -1.64 0.88 -0.88 0.06 -0.52 0.84 -0.91 -0.02 -0.64c-0.08,-1.27 -0.4,-0.98 0.81,-0.98l0.04 -0.53c-0.06,-1.25 -0.4,-0.99 0.76,-0.99l0.01 -0.61c-0.07,-1.3 -0.42,-1.05 0.75,-1.05l-0.04 -0.67c-0.08,-1.39 -0.48,-1.15 0.72,-1.15l0.03 -0.48 0.04 -0.85 0.8 -0.88 0 -0.6 0.01 -0.87 0.77 -0.88 -0.02 -0.7 0.02 -0.85 0.73 -1.06 0.08 -1.14 -0.13 -1.23 0.9 -1.4 -0.07 -1.71 0.03 -2.13 0.87 -3.1 0 -6.65 -1.08 -3.49 0.22 -1.9 0.02 -1.54 -0.9 -1.4 0.13 -1.23 -0.08 -1.14 -0.72 -1.08 -0.02 -0.84 0.01 -0.7 -0.77 -0.89 -0.01 -0.87 -0 -0.6 -0.79 -0.87 -0.04 -0.83 -0.03 -0.5c-1.2,0 -0.8,0.24 -0.72,-1.15l0.04 -0.68c-1.17,0 -0.81,0.25 -0.75,-1.05l-0.01 -0.61c-1.14,0 -0.81,0.25 -0.76,-0.98l-0.04 -0.54c-1.19,0 -0.87,0.27 -0.8,-0.98l-0.03 -0.5c-1.22,0 -0.91,0.29 -0.85,-0.95l0.01 -0.63 -0.88 -0.87 -0.6 -1.64 -0.95 -0.84 -0.69 -1.45 -0.85 -0.84 -0.91 -0.77 -2.99 -3.93c-1.17,0 -0.91,0.31 -0.87,-0.82l-0.8 -0.92 -3.96 -2.96 -0.77 -0.91 -0.84 -0.87 -1.46 -0.68 -0.85 -0.94 -1.63 -0.61 -0.88 -0.87 -0.62 0.01c-1.23,0.04 -0.94,0.35 -0.94,-0.86l-0.5 -0.04c-1.24,0.06 -0.97,0.38 -0.97,-0.8l-0.55 -0.05c-1.23,0.04 -0.98,0.37 -0.98,-0.75l-0.61 -0.01c-1.3,0.06 -1.05,0.42 -1.05,-0.74l-0.7 0.04c-1.38,0.08 -1.14,0.47 -1.14,-0.72l-0.47 -0.03 -0.82 -0.06 -0.88 -0.78 -0.6 -0.01 -0.84 -0.03 -0.91 -0.76 -0.7 0.02 -0.81 -0.02 -1.11 -0.72 -1.13 -0.08 -1.24 0.13 -1.4 -0.9 -1.54 0.02 -1.89 0.21 -3.48 -1.07 -6.77 0 -3.49 1.07z"/>
   <polygon class="fil1" points="239.68,67.61 280.94,67.61 189.09,159.86 150.99,122.17 70.06,202.71 78.77,211.86 150.61,140.42 188.7,178.1 290.27,76.94 290.46,118.4 303.16,118.4 303.16,54.91 239.68,54.91 "/>
   <path class="fil1" d="M334.97 148.87l0.67 -1.34 -0.01 -0.56 0.95 -0.85 0.66 -0.66 0.85 -0.95 0.56 0.01 1.34 -0.67 78.69 0 1.34 0.67 0.55 -0.01 0.85 0.95 0.67 0.66 0.95 0.85 -0.01 0.57 0.67 1.35 -0 53.25 -0.67 1.35 0.01 0.56 -0.95 0.85 -0.67 0.67 -0.86 0.95 -0.55 -0.01 -1.35 0.67c-3.64,0.13 -9.06,-0.46 -11.63,0.65 0.09,1.29 0.42,1.02 -0.79,1.02l-0 0.57c0.09,1.29 0.42,1.02 -0.79,1.02l-0 0.57c0.09,1.29 0.42,1.02 -0.79,1.02l-0 0.57c0.09,1.29 0.42,1.02 -0.79,1.02l-0 0.57c0.09,1.3 0.43,1.02 -0.79,1.02l-0 0.57c0.09,1.3 0.43,1.02 -0.79,1.02l0 0.57c0.1,1.3 0.43,1.03 -0.79,1.03l0 0.56c0.1,1.3 0.43,1.03 -0.79,1.03l0 0.56c0.1,1.3 0.43,1.03 -0.79,1.03l0 0.56c0.1,1.3 0.43,1.03 -0.79,1.03l0 0.56c0.1,1.3 0.43,1.03 -0.79,1.03l0 0.56c0.1,1.3 0.43,1.03 -0.79,1.03l0 0.56c0.1,1.3 0.43,1.03 -0.79,1.03l0 0.56c0.1,1.3 0.43,1.03 -0.79,1.03l0 0.56c0.1,1.3 0.43,1.03 -0.79,1.03 -4.21,5.18 -3.11,-5.34 -3.1,-8.74 0.02,-5.02 0,-10.05 0,-15.07l-52.02 -0.08 -1.35 -0.67 -0.56 0.01 -0.85 -0.95 -0.67 -0.67 -0.95 -0.85 0.01 -0.55 -0.67 -1.34 0 -53.31zm-12.77 -0.32l0 53.96c0,8.73 8.73,17.46 17.46,17.46l39.67 0c0,10.34 -2.16,25.39 15.08,25.39 7.12,0 10.64,-4.88 13.23,-9.78 1.85,-3.49 6.64,-12.34 7.4,-15.61 7.54,0 10.34,-0.88 14.78,-4.26 3.03,-2.31 6.64,-8.16 6.64,-13.2l0 -53.96c0,-8.73 -8.73,-17.46 -17.46,-17.46l-79.35 0c-8.73,0 -17.46,8.73 -17.46,17.46z"/>
   <path class="fil4" d="M398.38 181.88l12.7 0 0 12.7 -12.7 0 0 -12.7zm-25.39 0l12.69 0 0 12.7 -12.69 0 0 -12.7zm-25.39 0l12.7 0 0 12.7 -12.7 0 0 -12.7zm0 -25.39l63.48 0 0 12.7 -63.48 0 0 -12.7zm-8.95 -11.95l-0.56 -0.01 -0.85 0.95 -0.66 0.66 -0.95 0.85 0.01 0.56 -0.67 1.34 0 53.31 0.67 1.34 -0.01 0.55 0.95 0.85 0.67 0.67 0.85 0.95 0.56 -0.01 1.35 0.67 52.02 0.08c0,5.02 0.02,10.05 0,15.07 -0.01,3.4 -1.11,13.92 3.1,8.74l0.79 -1.03 0 -0.56 0.79 -1.03 0 -0.56 0.79 -1.03 0 -0.56 0.79 -1.03 0 -0.56 0.79 -1.03 0 -0.56 0.79 -1.03 0 -0.56 0.79 -1.03 0 -0.56 0.79 -1.03 0 -0.56 0.79 -1.03 -0 -0.57 0.79 -1.02 0 -0.57 0.79 -1.02 0 -0.57 0.79 -1.02 0 -0.57 0.79 -1.02 0 -0.57 0.79 -1.02 0 -0.57 0.79 -1.02c2.56,-1.11 7.99,-0.52 11.63,-0.65l1.35 -0.67 0.55 0.01 0.86 -0.95 0.67 -0.67 0.95 -0.85 -0.01 -0.56 0.67 -1.35 0 -53.25 -0.67 -1.35 0.01 -0.57 -0.95 -0.85 -0.67 -0.66 -0.85 -0.95 -0.55 0.01 -1.34 -0.67 -78.69 0 -1.34 0.67z"/>
   <path class="fil5" d="M89.62 246.92l-3.08 5.47 -0.89 0.88 -3.08 5.47 -0.89 0.88 -3.08 5.47 -0.89 0.88 -3.08 5.47 -0.89 0.88 -3.08 5.47 -0.89 0.88 -2.57 4.74 111.61 0.05 18.77 -37.89c-10.22,-0.79 -104.46,-0.86 -107.08,0.47l-0.89 0.88z"/>
   <path class="fil5" d="M346.1 278.65l-0.89 -0.88 -3.08 -5.47 -0.89 -0.88 -3.08 -5.47 -0.89 -0.88 -3.08 -5.47 -0.89 -0.88 -3.08 -5.47 -0.89 -0.88 -3.08 -5.47 -0.89 -0.88c-2.58,-1.3 -97.07,-1.3 -106.96,-0.51l18.77 37.86 111.42 0.07 -2.5 -4.81z"/>
   <path class="fil1" d="M357.35 346.94l-1.79 0.82 -1.28 0.07 -1.21 0.69 -0.64 -0.01c0,1.15 0.25,0.8 -1,0.78l-0.57 0.01 -0.88 0.88 -1.52 0.69 -0.84 0.84 -0.81 0.77 -0.8 0.8c0.02,1.13 0.3,0.85 -0.82,0.85l-0.71 1.47 -0.88 0.89 0.01 0.62c0.03,1.26 0.37,1 -0.78,1l0.01 0.64 -0.69 1.2 -0.12 1.14 0.11 1.23 -0.88 1.38 0 4.52 0.84 1.6 -0.11 1.2 0.16 0.95 0.69 1.21 -0.01 0.64c1.15,0 0.81,-0.26 0.78,1l-0 0.61 0.88 0.89 0.71 1.47c1.12,0 0.84,-0.28 0.82,0.85l0.8 0.81 0.82 0.76 0.84 0.83 1.49 0.71 0.89 0.88 0.62 -0c1.25,-0.03 1,-0.37 1,0.78l0.63 -0.01 1.21 0.69 1.28 0.07 1.79 0.82 16.93 0.08 1.33 0.66 0.56 -0 0.83 0.94 0.65 0.66 0.94 0.84 -0 0.57 0.66 1.33 0 2.59 -0.66 1.33 0 0.57 -0.95 0.83 -0.67 0.66 -0.84 0.94 -0.56 -0 -1.33 0.66 -20.34 0.08 0 -6.36 -12.69 0 0 19.04 19.05 0 0 12.7 12.64 0 0.05 -12.72 2.92 -0 1.78 -0.82 1.41 -0.01 1.24 -0.71 0.47 -0.04c0,-1.16 -0.26,-0.82 1,-0.78l0.67 0.03 0.88 -0.89 1.44 -0.73c0,-1.11 -0.27,-0.84 0.86,-0.79l0.83 -0.79 0.76 -0.84c-0.02,-1.12 -0.29,-0.84 0.82,-0.84l0.71 -1.49 0.88 -0.89 -0.01 -0.62c-0.04,-1.27 -0.38,-1.01 0.78,-1.01l0.04 -0.46 0.71 -1.24 0.1 -1.09 -0.11 -1.19 0.85 -1.59 0 -4.47 -0.85 -1.6 0.11 -1.2 -0.17 -0.95 -0.69 -1.21 0.01 -0.63c-1.16,0 -0.82,0.26 -0.78,-1l0.01 -0.61 -0.88 -0.89 -0.7 -1.5c-1.12,0 -0.85,0.28 -0.82,-0.84l-0.76 -0.83 -0.82 -0.78c-1.14,0.04 -0.86,0.32 -0.86,-0.8l-1.47 -0.71 -0.89 -0.88 -0.61 0c-1.26,0.03 -1,0.37 -1,-0.78l-0.63 0.01 -1.21 -0.69 -1.28 -0.07 -1.78 -0.82 -16.93 -0.08 -1.33 -0.66 -0.57 0.01 -0.84 -0.94 -0.66 -0.66 -0.94 -0.84 0 -0.56 -0.66 -1.32 -0 -2.64 0.66 -1.32 -0 -0.57 0.94 -0.83 0.65 -0.65 0.83 -0.94 0.57 0.01 1.33 -0.66 20.36 -0.07 0 6.36 12.69 0 0 -19.04 -18.94 0 -0.1 -12.7 -12.69 0 0 12.72 -2.95 -0.01z"/>
   <polygon class="fil6" points="271.42,232.66 284.12,232.66 284.12,143.79 271.47,143.79 "/>
   <polygon class="fil1" points="347.6,169.18 411.08,169.18 411.08,156.48 347.6,156.48 "/>
   <polygon class="fil1" points="106.37,372.32 169.85,372.32 169.85,359.63 106.37,359.63 "/>
   <polygon class="fil6" points="220.63,232.66 233.33,232.66 233.33,181.88 220.63,181.88 "/>
   <polygon class="fil6" points="169.85,232.66 182.54,232.66 182.54,194.57 169.85,194.57 "/>
   <polygon class="fil6" points="119.06,232.66 131.66,232.66 131.76,207.27 119.06,207.27 "/>
   <polygon class="fil1" points="347.6,194.57 360.3,194.57 360.3,181.88 347.6,181.88 "/>
   <polygon class="fil1" points="372.99,194.57 385.69,194.57 385.69,181.88 372.99,181.88 "/>
   <polygon class="fil1" points="398.38,194.57 411.08,194.57 411.08,181.88 398.38,181.88 "/>
   <polygon class="fil1" points="157.15,397.71 169.85,397.71 169.85,385.03 157.16,385.03 "/>
   <polygon class="fil1" points="106.37,397.71 119.06,397.71 119.06,385.03 106.37,385.03 "/>
   <polygon class="fil1" points="131.76,397.71 144.45,397.71 144.45,385.03 131.76,385.03 "/>
   <polygon class="fil7" points="309.45,375.3 310.51,371.8 309.53,371.8 "/>
   <polygon class="fil7" points="309.54,385.54 310.52,385.54 309.45,382.04 "/>
   <polygon class="fil7" points="363.3,435.86 359.81,434.78 359.81,435.76 "/>
   <polygon class="fil7" points="373.51,322.55 373.51,321.57 370.03,321.48 "/>
   <polygon class="fil7" points="363.26,321.48 359.77,321.57 359.77,322.55 "/>
   <polygon class="fil7" points="423.83,375.34 423.73,371.85 422.75,371.85 "/>
   <polygon class="fil7" points="373.47,435.76 373.47,434.78 369.98,435.86 "/>
   <polygon class="fil7" points="422.95,385.09 423.85,385.09 423.83,381.99 "/>
   <path class="fil8" d="M354.95 323.22l0 -0.83c-1.48,-0.09 -1.25,-0.53 -1.25,0.7l1.25 0.13z"/>
   <path class="fil8" d="M311.18 366.95l-0.12 -1.23c-1.23,0 -0.81,-0.24 -0.71,1.23l0.84 0z"/>
   <path class="fil8" d="M379.57 323.09c0,-1.23 0.24,-0.79 -1.24,-0.7l0 0.83 1.24 -0.13z"/>
   <path class="fil8" d="M311.06 391.6l0.13 -1.23 -0.83 0c-0.08,1.47 -0.52,1.23 0.71,1.23z"/>
   <path class="fil7" d="M392.01 387.53c0.1,-1.45 0.52,-1.2 -0.73,-1.2l-0.11 1.2 0.84 0z"/>
   <path class="fil7" d="M341.99 371.03l0.11 -1.2 -0.84 0c-0.1,1.45 -0.51,1.2 0.73,1.2z"/>
   <path class="fil7" d="M392.01 395.2l-0.84 0 0.11 1.19c1.23,0 0.82,0.25 0.73,-1.19z"/>
   <polygon class="fil9" points="422.92,387.22 423.85,385.09 422.95,385.09 "/>
   <polygon class="fil8" points="309.53,371.8 310.51,371.8 310.3,369.9 "/>
   <polygon class="fil8" points="422.75,371.85 423.73,371.85 422.97,369.95 "/>
   <path class="fil10" d="M352.75 323.21l-1.12 -0.07 0 0.81c1.36,0.05 1.12,0.44 1.12,-0.74z"/>
   <polygon class="fil8" points="359.77,322.55 359.77,321.57 357.88,322.34 "/>
   <polygon class="fil8" points="375.39,322.34 373.51,321.57 373.51,322.55 "/>
   <path class="fil10" d="M311.91 363.65l-0.81 0 0.07 1.11c1.17,0 0.78,0.24 0.74,-1.11z"/>
   <polygon class="fil8" points="375.35,435 373.47,434.78 373.47,435.76 "/>
   <polygon class="fil8" points="359.81,435.76 359.81,434.78 357.94,435 "/>
   <polygon class="fil8" points="310.31,387.42 310.52,385.54 309.54,385.54 "/>
   <path class="fil8" d="M311.91 363.65l-0.04 -0.99c-1.15,0 -0.81,-0.26 -0.77,0.99l0.81 0z"/>
   <path class="fil8" d="M351.62 323.94l0 -0.81c-1.24,-0.04 -0.99,-0.38 -0.99,0.77l0.99 0.04z"/>
   <path class="fil8" d="M313.42 358.72l0.06 -0.84c-1.17,0 -0.91,-0.3 -0.86,0.84l0.8 0z"/>
   <path class="fil8" d="M420.62 398.53l-0.8 0 -0.04 0.85c1.13,0 0.86,0.29 0.83,-0.85z"/>
   <path class="fil8" d="M346.76 432.66l0 -0.8 -0.85 -0.04c0,1.13 -0.28,0.86 0.85,0.83z"/>
   <path class="fil8" d="M387.35 431.82l-0.84 0.04 0 0.8c1.13,0.02 0.84,0.3 0.84,-0.83z"/>
   <path class="fil8" d="M346.7 325.45l0 -0.8c-1.12,-0.04 -0.82,-0.3 -0.82,0.86l0.82 -0.06z"/>
   <path class="fil8" d="M313.49 399.43l-0.06 -0.83 -0.79 0c-0.04,1.12 -0.3,0.83 0.85,0.83z"/>
   <path class="fil8" d="M387.39 325.52c0,-1.14 0.29,-0.88 -0.82,-0.85l0 0.79 0.82 0.06z"/>
   <path class="fil8" d="M420.62 358.8c0.02,-1.12 0.29,-0.83 -0.84,-0.83l0.04 0.83 0.79 0z"/>
   <polygon class="fil9" points="392.02,389.14 392.01,387.53 391.17,387.53 "/>
   <polygon class="fil9" points="341.27,369.84 342.1,369.84 341.26,368.23 "/>
   <polygon class="fil9" points="391.17,395.2 392.01,395.2 392.02,393.61 "/>
   <polygon class="fil10" points="310.28,368.36 311.18,366.95 310.34,366.95 "/>
   <polygon class="fil10" points="310.35,390.37 311.18,390.37 310.28,388.97 "/>
   <polygon class="fil10" points="378.34,323.22 378.34,322.38 376.94,322.31 "/>
   <polygon class="fil10" points="422.09,390.33 422.92,390.33 422.99,388.93 "/>
   <polygon class="fil10" points="423,368.41 422.92,367.01 422.09,367.01 "/>
   <polygon class="fil10" points="356.38,435.03 354.99,434.12 354.99,434.95 "/>
   <polygon class="fil10" points="356.33,322.31 354.95,322.38 354.95,323.22 "/>
   <polygon class="fil10" points="378.29,434.94 378.29,434.11 376.9,435.02 "/>
   <path class="fil10" d="M380.33 408.85l-1.24 0.71c1.49,0.15 1.24,0.58 1.24,-0.71z"/>
   <path class="fil10" d="M391.18 397.47l-0.71 1.24c1.28,0 0.85,0.25 0.71,-1.24z"/>
   <polygon class="fil9" points="341.26,363.71 342.14,362.33 341.34,362.33 "/>
   <path class="fil9" d="M300.76 401.05c0.12,-1.52 0.57,-1.29 -0.68,-1.29l0.68 1.29z"/>
   <path class="fil11" d="M302.36 351.54c-1.29,0 -0.9,-0.27 -0.73,1.16l0.73 -1.16z"/>
   <path class="fil7" d="M315.01 354.66l-0.77 1.11c1.28,0 0.91,0.28 0.77,-1.11z"/>
   <path class="fil7" d="M343.73 326.27l-1.1 0.77c1.38,0.14 1.1,0.5 1.1,-0.77z"/>
   <path class="fil12" d="M301.53 403.48l-0.69 -1.23c-0.1,1.46 -0.53,1.23 0.69,1.23z"/>
   <polygon class="fil8" points="354.99,434.95 354.99,434.12 353.76,434.25 "/>
   <polygon class="fil8" points="422.92,390.33 422.09,390.33 422.22,391.56 "/>
   <polygon class="fil8" points="422.92,367.01 422.22,365.78 422.09,367.01 "/>
   <path class="fil9" d="M301.54 353.91l-0.7 1.19c1.21,0 0.8,0.24 0.7,-1.19z"/>
   <polygon class="fil8" points="379.5,434.24 378.29,434.11 378.29,434.94 "/>
   <polygon class="fil10" points="342.14,362.33 342.03,361.1 341.34,362.33 "/>
   <path class="fil11" d="M419.75 399.87c-1.2,0 -0.8,-0.24 -0.72,1.15l0.72 -1.15z"/>
   <path class="fil11" d="M419.76 357.47l-0.72 -1.15c-0.08,1.39 -0.48,1.15 0.72,1.15z"/>
   <path class="fil11" d="M388.99 431.07c-1.38,-0.07 -1.14,-0.47 -1.14,0.72l1.14 -0.72z"/>
   <path class="fil11" d="M389 326.27l-1.14 -0.72c0,1.19 -0.24,0.8 1.14,0.72z"/>
   <path class="fil11" d="M345.42 431.79c0,-1.19 0.24,-0.8 -1.14,-0.72l1.14 0.72z"/>
   <path class="fil11" d="M345.41 325.55l-1.13 0.72c1.38,0.07 1.13,0.47 1.13,-0.72z"/>
   <path class="fil11" d="M314.23 356.3l-0.72 1.13c1.18,0 0.79,0.24 0.72,-1.13z"/>
   <path class="fil11" d="M314.24 401.04c0.07,-1.37 0.46,-1.13 -0.72,-1.13l0.72 1.13z"/>
   <path class="fil13" d="M401.48 218.95l-0.79 1.03c1.23,0 0.89,0.28 0.79,-1.03z"/>
   <path class="fil13" d="M402.28 217.37l-0.79 1.03c1.23,0 0.89,0.28 0.79,-1.03z"/>
   <path class="fil13" d="M398.31 225.3l-0.79 1.03c1.23,0 0.89,0.28 0.79,-1.03z"/>
   <path class="fil13" d="M399.9 222.13l-0.79 1.03c1.23,0 0.89,0.28 0.79,-1.03z"/>
   <path class="fil13" d="M396.72 228.48l-0.79 1.03c1.23,0 0.89,0.28 0.79,-1.03z"/>
   <path class="fil13" d="M399.1 223.72l-0.79 1.03c1.23,0 0.89,0.28 0.79,-1.03z"/>
   <path class="fil13" d="M400.69 220.54l-0.79 1.03c1.23,0 0.89,0.28 0.79,-1.03z"/>
   <path class="fil13" d="M395.93 230.06l-0.79 1.03c1.23,0 0.89,0.28 0.79,-1.03z"/>
   <path class="fil13" d="M397.52 226.89l-0.79 1.03c1.23,0 0.89,0.28 0.79,-1.03z"/>
   <path class="fil13" d="M403.86 214.19l-0.79 1.02c1.22,0 0.88,0.28 0.79,-1.02z"/>
   <path class="fil13" d="M403.06 215.77l-0.79 1.02c1.22,0 0.88,0.28 0.79,-1.02z"/>
   <path class="fil8" d="M304.75 346.84l-0.82 1c1.23,0 0.9,0.29 0.82,-1z"/>
   <path class="fil13" d="M404.65 212.6l-0.79 1.02c1.21,0 0.88,0.28 0.79,-1.02z"/>
   <path class="fil13" d="M406.24 209.43l-0.79 1.02c1.21,0 0.88,0.28 0.79,-1.02z"/>
   <path class="fil13" d="M405.45 211.01l-0.79 1.02c1.21,0 0.88,0.28 0.79,-1.02z"/>
   <path class="fil13" d="M407.03 207.84l-0.79 1.02c1.21,0 0.88,0.28 0.79,-1.02z"/>
   <path class="fil7" d="M417.52 404.87c-1.21,0 -0.89,-0.28 -0.81,0.98l0.81 -0.98z"/>
   <path class="fil12" d="M303.13 349.93c-1.18,0 -0.82,-0.26 -0.76,1.05l0.76 -1.05z"/>
   <path class="fil10" d="M416.69 350.98l-0.85 -0.95c-0.06,1.25 -0.37,0.95 0.85,0.95z"/>
   <path class="fil10" d="M419.07 401.69c-1.17,0 -0.82,-0.25 -0.75,1.05l0.75 -1.05z"/>
   <path class="fil7" d="M393.83 428.74c-1.27,-0.07 -0.99,-0.4 -0.99,0.8l0.99 -0.8z"/>
   <path class="fil11" d="M308.81 339.72c-1.24,0 -0.96,-0.32 -0.93,0.89l0.93 -0.89z"/>
   <path class="fil10" d="M395.27 427.85c-1.24,-0.05 -0.94,-0.35 -0.94,0.86l0.94 -0.86z"/>
   <path class="fil7" d="M417.52 352.46l-0.8 -0.98c-0.07,1.26 -0.39,0.98 0.8,0.98z"/>
   <path class="fil10" d="M419.08 355.64l-0.75 -1.05c-0.06,1.29 -0.42,1.05 0.75,1.05z"/>
   <path class="fil12" d="M303.2 407.26l-0.75 -1.06c-0.04,1.31 -0.41,1.06 0.75,1.06z"/>
   <path class="fil10" d="M390.72 430.36c-1.3,-0.06 -1.05,-0.42 -1.05,0.74l1.05 -0.74z"/>
   <path class="fil12" d="M303.93 408.98l-0.77 -1.02c-0.05,1.28 -0.4,1.02 0.77,1.02z"/>
   <path class="fil10" d="M338.94 428.72c0,-1.21 0.29,-0.9 -0.93,-0.86l0.93 0.86z"/>
   <path class="fil10" d="M395.3 329.48l-0.94 -0.86c0,1.2 -0.29,0.89 0.94,0.86z"/>
   <path class="fil10" d="M317.45 407.33c0.04,-1.23 0.35,-0.94 -0.86,-0.94l0.86 0.94z"/>
   <path class="fil8" d="M326.22 419.22c0,-1.22 0.31,-0.92 -0.9,-0.92l0.9 0.92z"/>
   <path class="fil10" d="M314.94 402.78c0.06,-1.29 0.42,-1.05 -0.74,-1.05l0.74 1.05z"/>
   <path class="fil10" d="M390.75 326.97l-1.05 -0.74c0,1.16 -0.25,0.79 1.05,0.74z"/>
   <path class="fil10" d="M343.6 431.11c0,-1.16 0.25,-0.8 -1.04,-0.74l1.04 0.74z"/>
   <path class="fil12" d="M390.43 399.17c-1.17,0 -0.82,-0.26 -0.78,1.01l0.78 -1.01z"/>
   <path class="fil7" d="M340.41 429.55c0,-1.18 0.27,-0.86 -0.98,-0.79l0.98 0.79z"/>
   <polygon class="fil11" points="311.85,393.87 311.13,392.75 311.06,393.87 "/>
   <path class="fil12" d="M381.81 408.03c-1.26,-0.04 -1,-0.38 -1,0.78l1 -0.78z"/>
   <path class="fil12" d="M390.44 383.55l-0.78 -1c-0.04,1.26 -0.38,1 0.78,1z"/>
   <path class="fil7" d="M393.86 328.59l-0.97 -0.8c0,1.17 -0.27,0.85 0.97,0.8z"/>
   <polygon class="fil11" points="381.82,323.89 381.82,323.1 380.71,323.16 "/>
   <path class="fil10" d="M338.9 328.61l-0.93 0.85c1.22,0.03 0.93,0.33 0.93,-0.85z"/>
   <path class="fil12" d="M381.84 374.69l-1 -0.78c0,1.15 -0.25,0.81 1,0.78z"/>
   <path class="fil7" d="M418.31 403.34c-1.16,0 -0.82,-0.26 -0.76,0.99l0.76 -0.99z"/>
   <path class="fil12" d="M352.47 383.43c0,-1.15 0.26,-0.81 -1,-0.78l1 0.78z"/>
   <path class="fil7" d="M316.55 405.89c0.05,-1.24 0.38,-0.98 -0.78,-0.98l0.78 0.98z"/>
   <path class="fil7" d="M316.54 351.44l-0.79 0.97c1.16,0 0.84,0.27 0.79,-0.97z"/>
   <path class="fil7" d="M392.3 429.58c-1.25,-0.06 -0.99,-0.39 -0.99,0.77l0.99 -0.77z"/>
   <path class="fil12" d="M343.61 374.83c0.03,-1.26 0.37,-1 -0.78,-1l0.78 1z"/>
   <path class="fil12" d="M343.61 357.11l-0.78 1c1.15,0 0.8,0.25 0.78,-1z"/>
   <path class="fil12" d="M352.44 348.51l-1 0.78c1.26,0.02 1,0.37 1,-0.78z"/>
   <path class="fil7" d="M340.39 327.78l-0.97 0.79c1.23,0.05 0.97,0.37 0.97,-0.79z"/>
   <path class="fil10" d="M317.43 350l-0.85 0.92c1.18,0 0.87,0.29 0.85,-0.92z"/>
   <path class="fil8" d="M401.58 333.44c0.09,-1.18 0.35,-0.88 -0.84,-0.87l0.84 0.87z"/>
   <polygon class="fil11" points="352.6,434.17 351.52,433.45 351.52,434.23 "/>
   <path class="fil8" d="M332.56 424.76l-0.81 -0.88c-0.11,1.18 -0.38,0.89 0.81,0.88z"/>
   <path class="fil11" d="M319.96 411.14c-0.05,-1.17 0.25,-0.87 -0.95,-0.87l0.95 0.87z"/>
   <path class="fil7" d="M341.95 430.35c0,-1.14 0.25,-0.81 -0.98,-0.76l0.98 0.76z"/>
   <path class="fil7" d="M418.32 353.98l-0.76 -0.98c-0.05,1.24 -0.38,0.98 0.76,0.98z"/>
   <path class="fil12" d="M334.85 426.39l-0.85 -0.95c0,1.21 -0.31,0.92 0.85,0.95z"/>
   <polygon class="fil11" points="422.14,364.64 422.19,363.56 421.42,363.56 "/>
   <path class="fil11" d="M383.36 407.18l-0.88 0.89c1.18,-0 0.88,0.29 0.88,-0.89z"/>
   <path class="fil11" d="M335.02 331.04l-0.86 0.95c1.17,-0.06 0.86,0.24 0.86,-0.95z"/>
   <path class="fil8" d="M321.41 413.61l-0.85 -0.86c-0.02,1.19 -0.32,0.93 0.85,0.86z"/>
   <polygon class="fil11" points="381.74,434.22 381.74,433.44 380.66,434.17 "/>
   <path class="fil11" d="M319.95 346.19l-0.94 0.86c1.19,0 0.89,0.3 0.94,-0.86z"/>
   <path class="fil12" d="M414.35 410.45l-0.94 0.85c1.2,0 0.91,0.31 0.94,-0.85z"/>
   <path class="fil12" d="M399.28 331.89c0,-1.19 0.31,-0.9 -0.85,-0.94l0.85 0.94z"/>
   <path class="fil12" d="M399.27 425.45l-0.85 0.93c1.16,-0.03 0.85,0.26 0.85,-0.93z"/>
   <path class="fil9" d="M305.51 345.19l-0.8 0.96c1.13,0 0.8,0.26 0.8,-0.96z"/>
   <path class="fil11" d="M344.48 355.61c-1.17,0 -0.87,-0.29 -0.88,0.89l0.88 -0.89z"/>
   <path class="fil12" d="M414.36 346.88c-0.04,-1.15 0.25,-0.84 -0.95,-0.84l0.95 0.84z"/>
   <path class="fil12" d="M318.3 348.48c-1.17,0 -0.87,-0.29 -0.88,0.89l0.88 -0.89z"/>
   <path class="fil8" d="M70.67 277.78c-1.17,0 -0.87,-0.29 -0.89,0.88l0.89 -0.88z"/>
   <path class="fil8" d="M86.54 252.39c-1.17,0 -0.87,-0.29 -0.89,0.88l0.89 -0.88z"/>
   <path class="fil8" d="M78.61 265.08c-1.17,0 -0.87,-0.29 -0.89,0.88l0.89 -0.88z"/>
   <path class="fil8" d="M74.64 271.43c-1.17,0 -0.87,-0.29 -0.89,0.88l0.89 -0.88z"/>
   <path class="fil8" d="M82.57 258.74c-1.17,0 -0.87,-0.29 -0.89,0.88l0.89 -0.88z"/>
   <path class="fil8" d="M90.51 246.04c-1.17,0 -0.87,-0.29 -0.89,0.88l0.89 -0.88z"/>
   <path class="fil7" d="M392.33 327.74l-0.98 -0.75c0,1.12 -0.25,0.79 0.98,0.75z"/>
   <polygon class="fil11" points="422.18,393.75 422.14,392.69 421.41,393.75 "/>
   <path class="fil11" d="M383.34 375.57c0,-1.16 0.29,-0.86 -0.89,-0.88l0.89 0.88z"/>
   <path class="fil11" d="M344.49 376.33l-0.88 -0.89c0.02,1.17 -0.28,0.89 0.88,0.89z"/>
   <path class="fil8" d="M412.73 344.59c0.01,-1.18 0.31,-0.91 -0.85,-0.84l0.85 0.84z"/>
   <path class="fil12" d="M337.34 329.46c-1.17,0.02 -0.88,-0.28 -0.88,0.88l0.88 -0.88z"/>
   <path class="fil12" d="M318.31 408.84l-0.88 -0.89c0.02,1.17 -0.28,0.89 0.88,0.89z"/>
   <path class="fil11" d="M389.66 381.93c-0.03,-1.17 0.28,-0.89 -0.88,-0.89l0.88 0.89z"/>
   <path class="fil11" d="M350.85 382.65l-0.89 -0.88c0,1.16 -0.29,0.85 0.89,0.88z"/>
   <path class="fil11" d="M389.65 400.8l-0.88 0.89c1.15,0 0.85,0.28 0.88,-0.89z"/>
   <path class="fil8" d="M342.13 272.3c-0.03,-1.16 0.27,-0.88 -0.89,-0.88l0.89 0.88z"/>
   <path class="fil8" d="M326.26 246.91c-0.03,-1.17 0.27,-0.88 -0.89,-0.88l0.89 0.88z"/>
   <path class="fil8" d="M334.2 259.6c-0.03,-1.17 0.27,-0.88 -0.89,-0.88l0.89 0.88z"/>
   <path class="fil8" d="M330.23 253.26c-0.03,-1.17 0.27,-0.88 -0.89,-0.88l0.89 0.88z"/>
   <path class="fil8" d="M346.1 278.65c-0.03,-1.16 0.27,-0.88 -0.89,-0.88l0.89 0.88z"/>
   <path class="fil8" d="M338.17 265.95c-0.03,-1.16 0.27,-0.88 -0.89,-0.88l0.89 0.88z"/>
   <path class="fil12" d="M337.37 427.87l-0.89 -0.88c0,1.15 -0.28,0.85 0.89,0.88z"/>
   <path class="fil12" d="M306.39 343.72c-1.14,0 -0.83,-0.27 -0.86,0.91l0.86 -0.91z"/>
   <path class="fil12" d="M396.81 330.34c0,-1.15 0.28,-0.84 -0.88,-0.87l0.88 0.87z"/>
   <path class="fil11" d="M350.86 349.31c-1.17,0.04 -0.88,-0.27 -0.88,0.88l0.88 -0.88z"/>
   <path class="fil11" d="M322.29 342.94c-1.16,0 -0.89,-0.3 -0.87,0.85l0.87 -0.85z"/>
   <path class="fil12" d="M415.83 407.92l-0.88 0.88c1.14,0 0.84,0.28 0.88,-0.88z"/>
   <path class="fil8" d="M412.71 412.74l-0.86 0.83c1.14,0.07 0.85,0.33 0.86,-0.83z"/>
   <path class="fil12" d="M396.77 426.98l-0.88 0.87c1.16,-0.04 0.88,0.27 0.88,-0.87z"/>
   <path class="fil12" d="M415.85 349.4c-0.04,-1.16 0.26,-0.87 -0.88,-0.87l0.88 0.87z"/>
   <path class="fil8" d="M407.97 339.05l-0.87 -0.82c-0.05,1.13 -0.3,0.82 0.87,0.82z"/>
   <path class="fil8" d="M320.62 326.32c-1.14,-0.04 -0.84,-0.31 -0.84,0.85l0.84 -0.85z"/>
   <path class="fil11" d="M411.85 413.57c-1.13,-0.07 -0.85,-0.32 -0.78,0.84l0.78 -0.84z"/>
   <path class="fil8" d="M401.56 423.9l-0.85 0.85c1.16,-0.02 0.89,0.29 0.85,-0.85z"/>
   <path class="fil8" d="M326.2 338.23l-0.9 0.81c1.17,0 0.9,0.31 0.9,-0.81z"/>
   <path class="fil8" d="M327.01 337.34l-0.81 0.9c1.12,0 0.81,0.27 0.81,-0.9z"/>
   <path class="fil8" d="M315.14 331.81c-1.17,0 -0.9,-0.31 -0.89,0.81l0.89 -0.81z"/>
   <path class="fil7" d="M411.08 414.41l-0.78 0.87c1.13,0 0.86,0.28 0.78,-0.87z"/>
   <path class="fil11" d="M331.78 333.47c-1.13,-0 -0.83,-0.28 -0.83,0.87l0.83 -0.87z"/>
   <path class="fil11" d="M331.75 423.88c0.11,-1.13 0.37,-0.84 -0.76,-0.91l0.76 0.91z"/>
   <path class="fil7" d="M403.26 422.33l-0.86 0.8c1.13,0.06 0.86,0.33 0.86,-0.8z"/>
   <path class="fil7" d="M385.68 377.08l-0.86 -0.8c0,1.12 -0.28,0.84 0.86,0.8z"/>
   <path class="fil7" d="M346.01 353.28l-0.82 0.85c1.12,0 0.84,0.28 0.82,-0.85z"/>
   <path class="fil11" d="M402.4 423.13c-1.14,-0.05 -0.89,-0.34 -0.84,0.77l0.84 -0.77z"/>
   <path class="fil7" d="M346.02 378.65c0.03,-1.13 0.3,-0.85 -0.82,-0.85l0.82 0.85z"/>
   <path class="fil9" d="M321.43 343.79l-0.81 0.86c1.11,0 0.83,0.27 0.81,-0.86z"/>
   <path class="fil7" d="M385.66 405.65c-1.13,-0.04 -0.86,-0.32 -0.86,0.79l0.86 -0.79z"/>
   <path class="fil7" d="M388.08 379.54l-0.82 -0.84c-0.03,1.12 -0.3,0.84 0.82,0.84z"/>
   <path class="fil7" d="M388.06 403.18c-1.11,0 -0.83,-0.28 -0.82,0.84l0.82 -0.84z"/>
   <path class="fil9" d="M303.97 409.48l0.02 0.96c1.17,-0.84 1.12,-0.13 -0.02,-0.96z"/>
   <path class="fil10" d="M386.49 404.86l-0.83 0.79c1.12,0.04 0.85,0.32 0.83,-0.79z"/>
   <polygon class="fil7" points="313.42,358.72 312.62,358.72 312.65,359.63 "/>
   <path class="fil10" d="M386.5 377.87c0.02,-1.09 0.28,-0.82 -0.82,-0.78l0.82 0.78z"/>
   <polygon class="fil7" points="312.61,361.05 311.84,361.05 311.86,361.98 "/>
   <polygon class="fil7" points="313.43,398.6 312.65,397.71 312.64,398.6 "/>
   <polygon class="fil7" points="347.58,324.68 346.7,324.66 346.7,325.45 "/>
   <polygon class="fil7" points="420.62,398.53 420.62,397.65 419.82,398.53 "/>
   <polygon class="fil7" points="386.51,432.65 386.51,431.85 385.63,432.65 "/>
   <polygon class="fil7" points="347.65,432.65 346.76,431.86 346.76,432.66 "/>
   <polygon class="fil7" points="312.62,396.27 311.86,395.36 311.85,396.27 "/>
   <polygon class="fil7" points="386.56,325.46 386.56,324.67 385.68,324.69 "/>
   <polygon class="fil7" points="349.95,323.89 349.04,323.88 349.04,324.64 "/>
   <polygon class="fil7" points="384.24,324.65 384.24,323.88 383.33,323.89 "/>
   <polygon class="fil7" points="384.18,433.45 384.18,432.67 383.28,433.44 "/>
   <polygon class="fil7" points="349.99,433.45 349.09,432.68 349.09,433.45 "/>
   <polygon class="fil7" points="420.62,359.67 420.62,358.8 419.83,358.8 "/>
   <polygon class="fil7" points="421.41,362.03 421.42,361.14 420.64,361.14 "/>
   <polygon class="fil7" points="421.4,396.18 421.41,395.3 420.63,396.18 "/>
   <polygon class="fil9" points="421.42,361.14 420.63,360.27 420.64,361.14 "/>
   <polygon class="fil9" points="421.4,396.18 420.63,396.18 420.62,397.05 "/>
   <polygon class="fil9" points="385.04,432.66 384.18,432.67 384.18,433.45 "/>
   <polygon class="fil9" points="349.09,433.45 349.09,432.68 348.24,432.66 "/>
   <polygon class="fil8" points="382.58,433.42 381.74,433.44 381.74,434.22 "/>
   <polygon class="fil8" points="422.18,393.75 421.41,393.75 421.39,394.6 "/>
   <polygon class="fil8" points="422.19,363.56 421.4,362.72 421.42,363.56 "/>
   <polygon class="fil9" points="312.65,397.11 312.62,396.27 311.85,396.27 "/>
   <polygon class="fil9" points="385.08,324.68 384.24,323.88 384.24,324.65 "/>
   <polygon class="fil9" points="349.04,324.64 349.04,323.88 348.19,324.68 "/>
   <polygon class="fil8" points="351.52,434.23 351.52,433.45 350.69,433.43 "/>
   <polygon class="fil9" points="312.61,361.05 312.64,360.22 311.84,361.05 "/>
   <polygon class="fil8" points="382.63,323.91 381.82,323.1 381.82,323.89 "/>
   <polygon class="fil8" points="311.88,394.67 311.85,393.87 311.06,393.87 "/>
   <polygon class="fil11" points="378.62,394.56 377.67,395.39 "/>
   <polygon class="fil8" points="299.18,395.57 298.34,393.92 "/>
   <polygon class="fil8" points="407.1,338.23 406.3,337.31 "/>
   <polygon class="fil9" points="311.18,336.6 310.19,337.42 "/>
   <polygon class="fil10" points="402.35,334.35 401.58,333.44 "/>
   <polygon class="fil11" points="379.28,392.67 378.61,393.99 "/>
   <polygon class="fil11" points="313.45,333.4 312.56,334.2 "/>
   <polygon class="fil10" points="387.25,404.02 386.49,404.86 "/>
   <polygon class="fil9" points="332.62,332.65 331.78,333.47 "/>
   <polygon class="fil9" points="314.25,332.62 313.45,333.4 "/>
   <polygon class="fil11" points="357.35,346.94 355.56,347.76 "/>
   <polygon class="fil11" points="416.73,406.49 415.88,407.4 "/>
   <polygon class="fil11" points="354.28,347.84 353.08,348.53 "/>
   <polygon class="fil9" points="303.88,348.28 303.13,349.33 "/>
   <polygon class="fil9" points="298.45,392.22 297.5,389.99 "/>
   <polygon class="fil14" points="420.01,206.52 418.66,207.19 "/>
   <polygon class="fil11" points="378.62,388.18 377.68,387.34 "/>
   <polygon class="fil7" points="348.46,350.87 347.62,351.71 "/>
   <polygon class="fil10" points="347.62,351.71 346.81,352.48 "/>
   <polygon class="fil14" points="338.09,144.52 337.24,145.47 "/>
   <polygon class="fil11" points="377.68,409.57 375.91,410.39 "/>
   <polygon class="fil11" points="377.03,386.68 376.19,385.73 "/>
   <polygon class="fil9" points="297.69,387.43 296.76,383.44 "/>
   <polygon class="fil11" points="375.63,385.74 374.31,385.08 "/>
   <polygon class="fil10" points="346.81,352.48 346.01,353.28 "/>
   <polygon class="fil11" points="322.31,414.38 321.41,413.61 "/>
   <polygon class="fil11" points="391.12,385.38 390.43,384.18 "/>
   <polygon class="fil11" points="357.38,385 355.59,384.18 "/>
   <polygon class="fil11" points="354.3,384.11 353.1,383.42 "/>
   <polygon class="fil8" points="407.96,418.28 407.06,419.09 "/>
   <polygon class="fil8" points="407.06,419.09 406.26,419.99 "/>
   <polygon class="fil14" points="421.43,145.47 420.58,144.52 "/>
   <polygon class="fil14" points="340,143.86 338.65,144.53 "/>
   <polygon class="fil14" points="336.58,146.13 335.63,146.98 "/>
   <polygon class="fil14" points="423.04,146.99 422.09,146.14 "/>
   <polygon class="fil7" points="348.48,381.06 347.64,380.23 "/>
   <polygon class="fil10" points="347.64,380.23 346.82,379.47 "/>
   <polygon class="fil14" points="335.65,147.54 334.97,148.87 "/>
   <polygon class="fil10" points="346.82,379.47 346.02,378.65 "/>
   <polygon class="fil10" points="387.26,378.7 386.5,377.87 "/>
   <polygon class="fil14" points="423.7,148.9 423.03,147.55 "/>
   <polygon class="fil14" points="335.65,203.52 334.97,202.19 "/>
   <polygon class="fil9" points="321.49,325.58 320.62,326.32 "/>
   <polygon class="fil14" points="423.7,202.15 423.02,203.5 "/>
   <polygon class="fil14" points="336.59,204.92 335.63,204.07 "/>
   <polygon class="fil14" points="420.03,144.53 418.68,143.86 "/>
   <polygon class="fil12" points="322.25,324.83 321.49,325.58 "/>
   <polygon class="fil14" points="423.04,204.06 422.09,204.91 "/>
   <polygon class="fil14" points="338.1,206.54 337.25,205.59 "/>
   <polygon class="fil14" points="421.42,205.58 420.56,206.53 "/>
   <polygon class="fil14" points="340.01,207.19 338.66,206.52 "/>
   <polygon class="fil11" points="355.6,361.94 354.66,362.77 "/>
   <polygon class="fil11" points="354.66,363.34 354,364.66 "/>
   <polygon class="fil12" points="298.37,362.89 299.28,361.36 "/>
   <polygon class="fil9" points="300.66,356.06 300.02,357.39 "/>
   <polygon class="fil11" points="354.67,368.61 354.01,367.29 "/>
   <polygon class="fil11" points="357.09,360.34 356.25,361.28 "/>
   <polygon class="fil11" points="379.28,390.07 378.62,388.75 "/>
   <polygon class="fil11" points="355.61,370.01 354.66,369.17 "/>
   <polygon class="fil11" points="358.98,359.69 357.65,360.35 "/>
   <polygon class="fil9" points="299.92,358.55 299.29,360.02 "/>
   <polygon class="fil11" points="377,396.05 376.16,396.99 "/>
   <polygon class="fil11" points="375.61,396.99 374.28,397.65 "/>
   <polygon class="fil11" points="380.2,373.93 378.99,373.23 "/>
   <polygon class="fil11" points="377.71,373.16 375.93,372.34 "/>
   <polygon class="fil11" points="342.85,373.19 342.16,371.98 "/>
   <polygon class="fil12" points="296.75,373.22 297.74,369.41 "/>
   <polygon class="fil11" points="359,372.26 357.67,371.6 "/>
   <polygon class="fil11" points="342.85,358.76 342.15,359.96 "/>
   <polygon class="fil12" points="299.93,398.79 299.31,397.32 "/>
   <polygon class="fil11" points="357.1,371.61 356.27,370.66 "/>
   <polygon class="fil11" points="411.87,343.75 410.97,342.98 "/>
  </g>
 </g>
</svg>
