<?xml version="1.0" encoding="UTF-8"?>
<!DOCTYPE svg PUBLIC "-//W3C//DTD SVG 1.1//EN" "http://www.w3.org/Graphics/SVG/1.1/DTD/svg11.dtd">
<!-- Creator: CorelDRAW 2019 (64-Bit) -->
<svg xmlns="http://www.w3.org/2000/svg" xml:space="preserve" width="19.6664mm" height="19.6664mm" version="1.1" style="shape-rendering:geometricPrecision; text-rendering:geometricPrecision; image-rendering:optimizeQuality; fill-rule:evenodd; clip-rule:evenodd"
viewBox="0 0 1004.55 1004.55"
 xmlns:xlink="http://www.w3.org/1999/xlink"
 xmlns:xodm="http://www.corel.com/coreldraw/odm/2003">
 <defs>
  <style type="text/css">
   <![CDATA[
    .fil0 {fill:none}
    .fil6 {fill:#465A60}
    .fil1 {fill:#596C76}
    .fil7 {fill:#8C9BA7}
    .fil11 {fill:#9FABBA}
    .fil14 {fill:#A6A86A}
    .fil12 {fill:#ADA136}
    .fil13 {fill:#CBBD57}
    .fil5 {fill:#D88A55}
    .fil3 {fill:#EA9A57}
    .fil10 {fill:#F6FBFF}
    .fil2 {fill:#FAEA5E}
    .fil9 {fill:#FB2B3A}
    .fil8 {fill:#FC4855}
    .fil4 {fill:#FFD501}
   ]]>
  </style>
 </defs>
 <g id="Layer_x0020_1">
  <metadata id="CorelCorpID_0Corel-Layer"/>
  <rect class="fil0" width="1004.55" height="1004.55"/>
  <g id="_1983405161536">
   <path class="fil1" d="M547.5 698.22c29.55,-5.01 52.93,15.47 57.56,39.51 12.98,67.43 -87.37,83.29 -98.95,19.57 -5.79,-31.86 15.67,-54.71 41.39,-59.07zm-136.5 0.07c64.76,-11.51 82.25,86.19 18.34,98.78 -66.14,13.03 -85.53,-86.84 -18.34,-98.78zm409.55 -0.18c28.8,-5.43 52.87,16.52 57.26,40.02 5.76,30.88 -15.77,54.4 -40.1,59.04 -63.68,12.13 -86.42,-85.99 -17.15,-99.05zm-136.52 0.06c62.87,-12.23 82.93,87.16 17.07,99.05 -30.3,5.47 -54.53,-16.17 -58.79,-41.03 -5.37,-31.3 16.2,-53.06 41.72,-58.02zm-407.31 -0.4c64.79,-9.37 78.2,89.85 14.55,99.68 -30.38,4.69 -54.27,-16.83 -58.08,-41.93 -4.71,-31.03 17.35,-53.96 43.53,-57.75zm-76.02 -35.3l-11.07 -0.26c-8.81,7.34 -35.11,8.46 -49.37,35.66 31.35,-3.8 56.72,19.61 56.75,49.54 0.04,30.17 -25.17,53.08 -56.69,50.22 5.72,14.03 28.26,28.75 49.24,33.58 -16.3,3.51 -47.29,0.68 -64.32,-0.01 7.24,4.99 62.98,1.92 76.45,1.78 107.45,-2.7 218.43,-0.14 326.27,-0.14 54.54,0 109.08,0 163.62,0 50.89,0 112.7,3.03 161.94,-1.13 21.63,-1.78 40.76,-17.48 51.13,-31.52 14.16,-19.18 14.64,-33.68 14.65,-63.8l0 -1.49 0 -1.52 0 -1.54 -1.73 -7.7 -1.93 -3.37c-1.07,-10.18 -7.16,-18.43 -11.34,-25.58l-2.1 -1.76c-4.44,-7.03 -13.93,-15.98 -23.22,-20.24l-1.96 -1.78 -1.11 -0.07 -2.16 -1.64 -1.62 0.15c-2.86,0.12 -2.34,0.92 -2.34,-1.58l-12.87 -3.3 -5.34 -1.98 -15.72 -0.29c-22.49,0.39 -180.23,2.67 -187.62,-1.34l-66.31 0.61 -1.24 -0.65c-10.28,4.98 3.06,0.36 -5.54,1.39l-89.38 0.07c-12.82,0 -86.84,1.45 -92,-1.43l-67.34 0c-5.21,2.92 -110.74,1.63 -125.74,1.11z"/>
   <path class="fil2" d="M201.69 833c0,11.95 0.01,23.9 -0.01,35.84 -0.03,15.34 -2.52,19.92 5.63,28.68 206.13,0 416.71,-1.38 622.61,0.01 29.05,0.2 23.6,1.91 23.6,-65.8 -49.24,4.17 -111.05,1.13 -161.94,1.13 -54.54,0 -109.08,0 -163.62,0 -107.84,0 -218.82,-2.56 -326.27,0.14z"/>
   <path class="fil3" d="M200.71 662.47c15,0.52 120.53,1.8 125.74,-1.11 3.04,-16.98 2.16,-163.97 -0.9,-177.12 -20.9,-4.87 -98.51,-1.69 -127.07,-1.69 -7.69,8.89 -3.26,70.31 -3.26,87.72 0,29.81 0,59.61 0,89.41 11.25,0 0.94,-0.5 5.5,2.8z"/>
   <path class="fil2" d="M857.3 663.69l-0.36 1.28 12.87 3.3 2.34 1.58 1.62 -0.15c2.7,-0.08 2.16,-0.81 2.16,1.64l1.11 0.07c2.52,0.05 1.96,-0.63 1.96,1.78 9.29,4.26 18.78,13.21 23.22,20.24l2.1 1.76c4.18,7.15 10.27,15.4 11.34,25.58l1.93 3.37 1.73 7.7 0 -352.14c-0.28,-4.95 -1.4,-8.19 -5.39,-11.54 -4.27,-3.59 -12.5,-5.96 -19.91,-4.58 -13.22,2.25 -26.33,-2.71 -33.39,8 -6.1,9.26 -2.97,107.84 -2.97,122.76 0,37.11 1.74,140.29 -0.36,169.33z"/>
   <path class="fil3" d="M580.7 661.32l1.24 0.65c0,-45.06 2.04,-133.02 -1.69,-177.73 -17.75,-4.14 -43.84,-1.69 -64.48,-1.69l-0.93 82.04 -28.33 0.73 -27.34 -1.14 -0.02 -81.63 -6.59 0c-6.95,8.61 -3.64,71.24 -3.64,86.03 0,30.49 0,60.99 0,91.49l131.78 1.25z"/>
   <path class="fil3" d="M835.41 660.66c-3.13,-24.99 0.43,-126.16 -0.3,-166.48 -0.27,-14.72 -4.04,-7.67 -12.75,-11.64l-52.21 0 -0.03 64.15c0.02,2.5 0.29,7.82 0.06,10 -1.27,12.14 -7.98,7.98 -29.25,8.56 -22.21,-0.47 -27.05,3.3 -27.51,-11.69l0.32 -71.02 -7.71 0c-6.7,6.29 -3.37,30.46 -3.37,42.18l-0.32 135.94 133.07 0z"/>
   <path class="fil4" d="M460.49 179.07l53.98 0 324.44 -0.16 -4.05 -9.79c-2.59,0 -1.74,0.52 -1.48,-2.48 -1.32,-19.91 -0.19,-18.62 6.35,-33.28l-374.19 0c-17.05,-0.04 -39.36,-0.8 -42.12,20.47 -3.69,28.36 28.38,24.92 37.06,25.23z"/>
   <path class="fil4" d="M890.7 189.25l-1.54 -0.09c-7.35,6.48 -16.93,5.62 -28.34,4.8 -2.99,0.22 -2.48,1.08 -2.48,-1.49l-9.88 -4.03 0 174.33c-32.52,0 -26.99,14.98 -26.99,45.55 0,17.53 -2.07,59.7 0.89,74.22 8.71,3.97 12.48,-3.07 12.75,11.64 0.73,40.32 -2.83,141.49 0.3,166.48l0.45 2.03 15.72 0.29 5.71 0.7c2.1,-29.05 0.36,-132.22 0.36,-169.33 0,-14.92 -3.13,-113.5 2.97,-122.76 7.06,-10.71 20.16,-5.75 33.39,-8l0 -176.21 -1.28 0.05 -2.04 1.82z"/>
   <path class="fil5" d="M393.79 661.36c5.16,2.88 79.18,1.43 92,1.43l89.38 -0.07c8.6,-1.03 -4.74,3.59 5.54,-1.39l-131.78 -1.25c0,-30.49 0,-60.99 0,-91.49 0,-14.8 -3.32,-77.42 3.64,-86.03l-42.74 -0.06c-20.5,-0.2 -16.81,1.38 -16.81,42.24 0,28.36 -1.94,121.43 0.77,136.64z"/>
   <path class="fil5" d="M648.25 661.36c7.39,4.01 165.13,1.73 187.62,1.34l-0.45 -2.03 -133.07 0 0.32 -135.94c0,-11.71 -3.33,-35.89 3.37,-42.18 -13.4,0 -47.78,-2.55 -56.61,1.69 -3.41,7.12 -3.33,158.98 -1.16,177.12z"/>
   <path class="fil5" d="M140.6 661.36c7.11,3.15 38.53,1.06 49.04,0.85l11.07 0.26c-4.55,-3.3 5.75,-2.8 -5.5,-2.8 0,-29.8 0,-59.6 0,-89.41 0,-17.41 -4.43,-78.83 3.26,-87.72 -18.84,0 -42.48,-2.04 -58.49,1.69l0.61 177.12z"/>
   <path class="fil6" d="M121.43 831.81l3.82 -0.59c17.03,0.68 48.01,3.51 64.32,0.01 -20.98,-4.83 -43.53,-19.55 -49.24,-33.58 -24.5,-3.46 -44.36,-22.67 -44.14,-50.25 0.21,-25.4 20.14,-47.73 44.08,-49.51 14.27,-27.21 40.57,-28.33 49.37,-35.66 -10.51,0.21 -41.94,2.3 -49.04,-0.85 -47.05,0 -83.17,33.02 -84.96,73.3l0 22.38c0.6,16.05 3.49,28.24 15.39,44.12 9.44,12.61 29.96,29.82 50.41,30.64z"/>
   <path class="fil2" d="M460.82 320.61c5.02,2.68 16.48,1.34 23.62,1.23l30.03 0.16 0 -142.93 -53.98 0 0.33 141.54z"/>
   <path class="fil7" d="M414.12 723.64c31.22,-8.15 43.08,40.65 11.81,48.31 -31.45,7.7 -46.49,-39.24 -11.81,-48.31zm-3.12 -25.34c-67.19,11.94 -47.81,111.81 18.34,98.78 63.91,-12.59 46.42,-110.3 -18.34,-98.78z"/>
   <path class="fil7" d="M550.62 723.55c31.11,-7.62 42.67,40.04 11.82,48.23 -32.4,8.6 -46.18,-39.81 -11.82,-48.23zm-3.12 -25.33c-25.72,4.37 -47.18,27.21 -41.39,59.07 11.57,63.72 111.93,47.86 98.95,-19.57 -4.63,-24.03 -28.01,-44.52 -57.56,-39.51z"/>
   <path class="fil7" d="M687.1 723.47c32.54,-8.41 41.03,41.85 10.56,48.57 -31.4,6.93 -45.05,-39.66 -10.56,-48.57zm-3.06 -25.3c-25.52,4.96 -47.1,26.72 -41.72,58.02 4.27,24.87 28.49,46.5 58.79,41.03 65.86,-11.89 45.8,-111.28 -17.07,-99.05z"/>
   <path class="fil7" d="M307.25 754.13c-9.4,33.23 -57.54,17.67 -48.24,-14.21 8.75,-30.05 57.16,-17.29 48.24,14.21zm-30.53 -56.36c-26.18,3.79 -48.24,26.71 -43.53,57.75 3.81,25.11 27.7,46.62 58.08,41.93 63.65,-9.82 50.24,-109.04 -14.55,-99.68z"/>
   <path class="fil7" d="M823.58 723.36c32.46,-8.07 40.27,42.21 10.68,48.74 -32.1,7.08 -44.97,-40.22 -10.68,-48.74zm-3.03 -25.25c-69.27,13.06 -46.53,111.19 17.15,99.05 24.33,-4.64 45.86,-28.16 40.1,-59.04 -4.38,-23.49 -28.45,-45.45 -57.26,-40.02z"/>
   <path class="fil7" d="M170.93 754.13c-8.69,31.25 -58.09,19.25 -48.26,-13.92 9.11,-30.71 57.02,-17.56 48.26,13.92zm-30.6 43.5c31.53,2.86 56.73,-20.05 56.69,-50.22 -0.04,-29.92 -25.41,-53.34 -56.75,-49.54 -23.94,1.78 -43.87,24.11 -44.08,49.51 -0.22,27.57 19.64,46.78 44.14,50.25z"/>
   <path class="fil4" d="M207.32 897.52c-8.15,-8.77 -5.65,-13.34 -5.63,-28.68 0.02,-11.95 0.01,-23.9 0.01,-35.84 -13.47,0.13 -69.21,3.21 -76.45,-1.78l-3.82 0.59 0 60.65c11.61,7.78 20.21,5.07 40.48,5.06 15.13,0 30.27,0.01 45.4,0.01z"/>
   <path class="fil8" d="M484.77 391.46l60.06 0 4.7 -5.42c0.36,-15.98 0.43,-32.32 0.46,-48.65 0.04,-21.8 -5.85,-13.33 -35.52,-15.39l-30.03 -0.16c-7.13,10.28 -4.64,19.59 -4.64,35.88 0,15.68 -2.38,23.53 4.98,33.74z"/>
   <path class="fil9" d="M484.77 391.46c-7.36,-10.21 -4.98,-18.06 -4.98,-33.74 0,-16.29 -2.48,-25.6 4.64,-35.88 -7.14,0.12 -18.6,1.46 -23.62,-1.23 -30.72,0 -36.08,-3.09 -35.84,16.78 0.2,17.02 -1.55,38.11 1.77,52.38 15.87,3.69 39.32,1.69 58.02,1.69z"/>
   <path class="fil7" d="M839.73 133.36c-6.54,14.65 -7.67,13.37 -6.35,33.28l1.48 2.48 4.05 9.79 9.56 9.54 9.88 4.03 2.48 1.49c11.41,0.82 20.99,1.69 28.34,-4.8 -9.62,-5.31 -19.09,-16.39 -18.5,-33.76 0.68,-19.65 10.9,-22.18 18.03,-32.16 -17.92,-10.42 -38.83,-2.79 -48.97,10.12z"/>
   <path class="fil8" d="M740.93 565.25c21.27,-0.58 27.98,3.59 29.25,-8.56 0.23,-2.19 -0.04,-7.5 -0.06,-10l0.03 -64.15 -32.11 0c2.11,19.72 -3.38,69.61 2.89,82.7z"/>
   <path class="fil8" d="M486.51 565.31l28.33 -0.73 0.93 -82.04 -32.24 0c2.46,19.4 -3.94,69.48 2.97,82.76z"/>
   <path class="fil9" d="M740.93 565.25c-6.26,-13.09 -0.77,-62.99 -2.89,-82.7l-24.3 0 -0.32 71.02c0.46,14.99 5.3,11.22 27.51,11.69z"/>
   <path class="fil9" d="M486.51 565.31c-6.92,-13.28 -0.52,-63.36 -2.97,-82.76l-24.38 0 0.02 81.63 27.34 1.14z"/>
   <path class="fil10" d="M307.25 754.13c8.91,-31.5 -39.49,-44.26 -48.24,-14.21 -9.29,31.88 38.85,47.44 48.24,14.21z"/>
   <path class="fil10" d="M170.93 754.13c8.76,-31.48 -39.15,-44.63 -48.26,-13.92 -9.83,33.17 39.57,45.16 48.26,13.92z"/>
   <path class="fil10" d="M550.62 723.55c-34.35,8.42 -20.57,56.83 11.82,48.23 30.84,-8.19 19.29,-55.85 -11.82,-48.23z"/>
   <path class="fil10" d="M414.12 723.64c-34.68,9.07 -19.64,56.01 11.81,48.31 31.27,-7.66 19.41,-56.46 -11.81,-48.31z"/>
   <path class="fil10" d="M687.1 723.47c-34.49,8.91 -20.84,55.5 10.56,48.57 30.46,-6.72 21.98,-56.98 -10.56,-48.57z"/>
   <path class="fil10" d="M823.58 723.36c-34.29,8.53 -21.42,55.82 10.68,48.74 29.59,-6.53 21.79,-56.81 -10.68,-48.74z"/>
   <path class="fil11" d="M889.16 189.16l1.54 0.09c0,-2.46 -0.57,-1.75 2.04,-1.82l1.28 -0.05 5.72 -6.11c14.36,-15.95 13.02,-43.35 -11.04,-58.02 -7.14,9.98 -17.35,12.51 -18.03,32.16 -0.59,17.37 8.87,28.45 18.5,33.76z"/>
   <polygon class="fil12" points="856.93,664.97 857.3,663.69 851.59,662.99 "/>
   <path class="fil13" d="M834.87 169.12l-1.48 -2.48c-0.26,3 -1.11,2.48 1.48,2.48z"/>
   <path class="fil13" d="M860.83 193.96l-2.48 -1.49c0,2.56 -0.51,1.71 2.48,1.49z"/>
   <path class="fil14" d="M872.14 669.85l-2.34 -1.58c0,2.5 -0.52,1.7 2.34,1.58z"/>
   <path class="fil14" d="M875.92 671.35c0,-2.46 0.54,-1.72 -2.16,-1.64l2.16 1.64z"/>
   <path class="fil13" d="M892.74 187.43c-2.61,0.07 -2.04,-0.64 -2.04,1.82l2.04 -1.82z"/>
   <path class="fil14" d="M878.99 673.2c0,-2.41 0.57,-1.74 -1.96,-1.78l1.96 1.78z"/>
   <polygon class="fil14" points="904.32,695.2 902.21,693.44 "/>
   <polygon class="fil14" points="917.59,724.15 915.65,720.78 "/>
  </g>
 </g>
</svg>
