<?xml version="1.0" encoding="UTF-8"?>
<!DOCTYPE svg PUBLIC "-//W3C//DTD SVG 1.1//EN" "http://www.w3.org/Graphics/SVG/1.1/DTD/svg11.dtd">
<!-- Creator: CorelDRAW 2019 (64-Bit) -->
<svg xmlns="http://www.w3.org/2000/svg" xml:space="preserve" width="19.6664mm" height="19.6664mm" version="1.1" style="shape-rendering:geometricPrecision; text-rendering:geometricPrecision; image-rendering:optimizeQuality; fill-rule:evenodd; clip-rule:evenodd"
viewBox="0 0 8335.14 8335.14"
 xmlns:xlink="http://www.w3.org/1999/xlink"
 xmlns:xodm="http://www.corel.com/coreldraw/odm/2003">
 <defs>
  <style type="text/css">
   <![CDATA[
    .fil0 {fill:none}
    .fil2 {fill:black}
    .fil4 {fill:#EEAB7D}
    .fil5 {fill:#F0AC7F}
    .fil6 {fill:#F9CF58}
    .fil8 {fill:#FC2B3A}
    .fil1 {fill:#FDC59D}
    .fil7 {fill:#FE4654}
    .fil3 {fill:#FEE179}
   ]]>
  </style>
 </defs>
 <g id="Layer_x0020_1">
  <metadata id="CorelCorpID_0Corel-Layer"/>
  <rect class="fil0" width="8335.14" height="8335.14"/>
  <g id="_1983214830944">
   <path class="fil1" d="M2594.96 5438.46c-57.05,29.46 -115.2,46.2 -171.01,79.98 31.32,158.43 -160.63,175.63 -430.18,375.13 -141.35,104.56 -94,78.49 -334.91,78.49 -142.49,0 -285.32,-0.97 -427.73,0.34l0.34 1126.49c253.87,3.09 510.33,-9.37 760.73,11.78 235.48,19.96 476.13,44.08 711.35,63.91 475.02,40.01 948.74,85.66 1424.4,127.19 674.22,58.87 1443.3,-355.93 2010.21,-687.49 31.36,-18.35 99.3,-59.59 131.64,-70.02 70.52,-22.72 100.57,21.19 136.47,43.32 46.83,-38.95 105.11,-65.69 163.47,-92.95 -16.11,-89.55 -2.08,-115.58 61.41,-149.91l935.77 -508.55c209.2,-121.51 99.34,-467.52 -218.06,-298.08 -544.24,290.45 -1061.18,644.22 -1668.52,792 -674.44,164.15 -1187.18,70.52 -1855.17,-9.54 -214.88,-25.77 -143.38,-172.24 -78.24,-198.1 60.78,-24.12 1290.55,-168.17 1467.46,-190.51 106.97,-13.52 269.98,-10.68 344.32,-70.91 91.67,-74.34 79.17,-207.21 -9.37,-274.64 -78.07,-59.42 -657.74,-33.4 -801.33,-33.4 -230.31,0 -567,27.12 -769.2,-40.98 -223.27,-75.14 -475.07,-116.34 -728.56,-106.21 -499.56,19.96 -482.31,184.41 -655.28,32.63z"/>
   <path class="fil2" d="M6561.6 4178.08c-14.58,-365.04 504.9,-374.07 512.83,-16.36 -35.9,332.87 -463.75,327.79 -512.83,16.36zm0.51 -1512.38c-22.29,-369.41 511.39,-376.19 512.02,-18.06 -27.42,314.95 -457.69,339.99 -512.02,18.06zm-4344.01 -1038.8l135.75 -142.02c70.14,37.51 207.46,156.52 240.73,169.78 79.13,31.62 203.52,-76.8 289.39,-113.12 363.9,-153.85 317.06,7.84 373.52,-363.13 8.56,-56.24 -3.22,-52.22 32.85,-78.49l160.5 0c78.79,58.45 24.45,263.87 89.17,330.63 20.13,20.73 256.46,85.57 316.98,111.21 77.73,32.97 210.51,139.02 279.43,116.09 52.55,-17.46 186.7,-140.03 250.52,-172.5l138.93 138.72c-120.96,205.34 -246.58,210.94 -134.06,385.68 28.82,44.63 50.44,89.98 73.45,141.01 156.35,346.69 -29.75,335.71 442.73,386.11l0.89 202.67c-470.96,54.42 -288.16,35.05 -442.18,384.5 -33.91,76.92 -140.46,212.21 -113.16,286.59 25.09,68.45 141.64,170.04 168.39,248.96l-133.55 132.87c-78.79,-35.35 -173.43,-142.15 -245.4,-170.76 -72.56,-28.82 -149.95,47.04 -275.66,107.06 -70.23,33.57 -284.6,85.91 -310.88,103.5 -73.19,49.08 -63.53,237.98 -87.48,340.29l-196.99 3.52c-21.32,-96.42 -21.11,-288.24 -79.93,-337.66 -18.56,-15.6 -249.51,-77.22 -309.39,-105.15 -48.7,-22.63 -89.3,-41.75 -132.49,-68.53 -42.17,-26.11 -80.78,-66.03 -142.91,-46.62 -67.69,21.11 -178.6,139.27 -253.02,172.96 -38.1,-29.96 -114.39,-96.89 -135.2,-144.86 259.38,-374.2 202.67,-185.55 55.06,-521.69 -150.46,-342.79 24.54,-335.5 -441.84,-384.96l0.21 -202.67c464.94,-48.23 289.39,-36.62 438.91,-377.38 64.29,-146.47 140.46,-209.33 119.31,-286.76 -13.39,-48.99 -140.46,-187.67 -172.58,-245.82zm4344.56 -473.08c-30.01,-371.31 519.82,-380.05 511.13,-20.09 -34.2,318.97 -454,333.59 -511.13,20.09zm-196.53 -142.11c-316.98,0 -668.63,-65.65 -668.63,280.83l0 1243.72 -588.44 0c0,-196.32 -199.07,-227.38 -374.41,-227.38 -36.83,-157.96 -93.33,-274.17 -160.5,-401.19 150.84,-225.18 260.02,-268.32 36.79,-491.43 -109.52,-109.43 -106.47,-137.07 -250.74,-137.07 -71.03,0 -210.94,122.61 -267.48,160.46l-39.97 -26.91c-86.55,-50.6 -254.63,-125.79 -347.83,-133.55 -33.57,-403.4 -131.73,-387.8 -414.59,-387.8 -93.2,0 -171.23,52.13 -203.18,117.74 -19.71,40.6 -46.2,213.69 -50.9,270.06 -70.99,5.89 -145.33,37.64 -204.33,63.11 -63.66,27.46 -131.43,52.13 -183.47,97.35 -145.92,-97.69 -168.3,-160.46 -320.96,-160.46 -86.59,0 -320.92,221.75 -320.92,334.31 0,75.4 30.94,117.7 64.68,162.62 34.97,46.58 64.08,84.26 95.78,131.56 -67.22,127.02 -123.67,243.23 -160.46,401.19 -437.18,0 -374.45,191.44 -374.45,454.68 0,202.55 307.91,183.3 353.98,207.72 37.47,19.84 63.07,149.95 83.24,197.59 27.59,65.06 66.12,136.9 97.69,196.49 -31.58,47.13 -59.42,89.13 -93.71,133.67 -120.49,156.56 -68.36,232.94 43.57,344.44 241.71,240.86 227.85,197.76 518.17,3.31 68.41,15.94 263.62,144.06 401.19,147.11 0.85,37.34 32.59,234.63 44.67,262.9 65.18,152.37 230.43,124.94 383.31,124.94 90.36,0 160.29,-52.22 191.82,-115.75 15.43,-31.07 47.85,-227.98 48.87,-272.1 137.07,-3.05 332.49,-131.09 401.19,-147.11 57.26,38.36 105.74,81.25 162.41,118.46 60.44,39.67 142.91,52.38 211.87,15.22 38.65,-20.85 106.89,-100.11 143.93,-136.98 228.65,-227.85 63.19,-280.79 -32.68,-443.66 -28.78,-48.91 4.28,-79 31.49,-132.49 176.69,-347.5 11.87,-277.99 281.89,-319.99 112.1,-17.42 204.03,-73.66 204.03,-210.47l588.44 0 0 1243.68c0,366.65 395.26,280.83 668.63,280.83 44.54,92.78 17.97,101 115.11,205.85 1.86,1.99 4.58,4.92 6.44,6.91 1.95,1.99 4.7,4.79 6.61,6.74 296.13,296.93 781.2,63.66 781.2,-299.73 0,-214.54 -79.38,-359.15 -271.5,-450.65 -262.05,-124.86 -573.86,42.26 -637.86,316.9l-362.2 1.14c-49.88,0.42 -92.48,10.34 -92.48,-41.24l0 -1270.42 454.68 0c89.39,383.65 543.77,465.57 778.82,230.52 30.64,-30.64 65.27,-85.36 86.42,-127.53 64.85,-129.22 59.34,-283.88 -4.37,-415.6 -170.93,-353.51 -756.06,-337.87 -860.88,112.02l-454.68 0 0 -1270.46c0,-65.27 138.13,-40.14 200.6,-40.09 84.68,0.04 169.4,0 254.08,0 83.54,358.51 519.74,474.01 759.24,237.68 334.87,-330.58 62.73,-799.38 -277.82,-799.38 -134.69,0 -229.84,12.21 -337.96,116.72 -99.98,96.63 -84.77,108.67 -143.47,230.99z"/>
   <path class="fil3" d="M4002.91 3042.69c-49.97,255.02 -306.05,481.42 -605.65,491.77 -165.17,5.72 -315.37,-51.92 -415.52,-128.12 -115.7,-88.07 -158.81,-154.36 -232.81,-320.75 -7.97,-41.83 -16.7,-42.72 -41.62,-86.63 -17.76,-31.32 -29.75,-58.91 -42.43,-91.46 -83.62,-214.67 -59.29,-438.91 43.23,-632.39 99.6,-188.05 332.03,-383.14 635.78,-392.08 723.94,-21.28 948.31,820.49 659.01,1159.67zm-1784.82 -1415.79c32.13,58.15 159.19,196.83 172.58,245.82 21.15,77.43 -55.01,140.29 -119.31,286.76 -149.53,340.76 26.02,329.14 -438.91,377.38l-0.21 202.67c466.38,49.46 291.38,42.17 441.84,384.96 147.62,336.14 204.33,147.49 -55.06,521.69 20.81,47.98 97.1,114.9 135.2,144.86 74.42,-33.69 185.34,-151.86 253.02,-172.96 62.13,-19.41 100.74,20.51 142.91,46.62 43.19,26.79 83.79,45.9 132.49,68.53 59.89,27.93 290.83,89.55 309.39,105.15 58.83,49.42 58.62,241.24 79.93,337.66l196.99 -3.52c23.95,-102.31 14.28,-291.21 87.48,-340.29 26.28,-17.59 240.65,-69.93 310.88,-103.5 125.71,-60.01 203.1,-135.88 275.66,-107.06 71.97,28.61 166.61,135.41 245.4,170.76l133.55 -132.87c-26.74,-78.92 -143.3,-180.51 -168.39,-248.96 -27.29,-74.38 79.26,-209.67 113.16,-286.59 154.02,-349.44 -28.78,-330.08 442.18,-384.5l-0.89 -202.67c-472.48,-50.39 -286.38,-39.42 -442.73,-386.11 -23.01,-51.03 -44.63,-96.38 -73.45,-141.01 -112.53,-174.74 13.1,-180.34 134.06,-385.68l-138.93 -138.72c-63.83,32.47 -197.97,155.04 -250.52,172.5 -68.91,22.93 -201.7,-83.11 -279.43,-116.09 -60.52,-25.64 -296.85,-90.49 -316.98,-111.21 -64.72,-66.75 -10.38,-272.18 -89.17,-330.63l-160.5 0c-36.07,26.28 -24.29,22.25 -32.85,78.49 -56.45,370.98 -9.62,209.29 -373.52,363.13 -85.87,36.32 -210.26,144.74 -289.39,113.12 -33.27,-13.27 -170.59,-132.28 -240.73,-169.78l-135.75 142.02z"/>
   <path class="fil2" d="M4633.31 6208.59c266.33,-38.1 531.39,-68.58 796.12,-101.13 261.33,-32.13 313.63,-122.66 382.16,-287.69 24.84,-59.84 64.76,-58.49 124.44,-90.15 200.39,-106.08 389.37,-202.72 585.18,-310.24 97.73,-53.7 186.57,-98.2 288.2,-152.83 377.59,-203.06 347.54,95.91 311.17,150.88 -48.57,73.53 -915,515.63 -998.15,552.59 -205.43,91.29 -446.93,164.83 -688.34,206.62 -417.64,72.3 -445.1,33.4 -800.78,31.96zm3243.97 -605.35l0 123.16c-20.39,114.14 -100.45,230.82 -271.84,322.53l-911.4 494.69c-79.55,21.32 -83.54,-17.04 -124.31,-48.99 -16.11,-89.55 -2.08,-115.58 61.41,-149.91l935.77 -508.55c209.2,-121.51 99.34,-467.52 -218.06,-298.08 -544.24,290.45 -1061.18,644.22 -1668.52,792 -674.44,164.15 -1187.18,70.52 -1855.17,-9.54 -214.88,-25.77 -143.38,-172.24 -78.24,-198.1 60.78,-24.12 1290.55,-168.17 1467.46,-190.51 106.97,-13.52 269.98,-10.68 344.32,-70.91 91.67,-74.34 79.17,-207.21 -9.37,-274.64 -78.07,-59.42 -657.74,-33.4 -801.33,-33.4 -230.31,0 -567,27.12 -769.2,-40.98 -223.27,-75.14 -475.07,-116.34 -728.56,-106.21 -499.56,19.96 -482.31,184.41 -655.28,32.63 0,-122.44 54.67,-127.53 152.7,-155.16 408.44,-115.07 874.69,-114.26 1272.92,26.57 115.41,40.86 125.37,4.7 210.26,-41.15l976.5 -507.91c123.59,-62.73 253.15,-175.46 440.36,-128.72 131.77,32.89 263.75,164.49 263.75,324.65 155.88,-82.48 274.64,-163.26 431.62,-124.05 117.1,29.24 188.9,106.34 233.02,208.31 19.37,44.63 13.18,66.33 30.77,102.99l200.43 -107.19c311,-157.2 535.08,69.68 535.08,267.65 130.28,-30.35 207.93,-45.56 330.37,17.33 99.3,51.03 182.92,158.17 204.54,281.46zm-2286.37 -231.92c104.73,-74.72 255.99,-139.95 370.21,-204.71 129.27,-73.32 288.71,-190.55 391.53,-103.16 59.8,50.82 57.39,162.58 -0.59,213.61 -23.73,20.85 -138.51,79.38 -179.53,100.7 -107.48,55.86 -276.59,157.62 -384.71,195.81 -48.74,-131 -154.87,-158.26 -196.91,-202.25zm-225.9 -465.87c86.16,-46.03 207.63,-122.1 299.77,-36.45 67.13,62.39 82.94,186.87 -77.14,271.76 -393.86,208.9 -297.99,210.39 -639.05,211.7 -133.42,0.51 -290.28,7.59 -421.11,-1.86l837.52 -445.15z"/>
   <path class="fil2" d="M6406.27 6587.58c-35.9,-22.12 -65.95,-66.03 -136.47,-43.32 -32.34,10.43 -100.28,51.66 -131.64,70.02 -566.91,331.56 -1335.99,746.36 -2010.21,687.49 -475.66,-41.54 -949.37,-87.18 -1424.4,-127.19 -235.22,-19.84 -475.87,-43.95 -711.35,-63.91 -250.4,-21.15 -506.85,-8.69 -760.73,-11.78l-0.34 -1126.49c142.41,-1.31 285.24,-0.34 427.73,-0.34 240.9,0 193.56,26.07 334.91,-78.49 269.55,-199.5 461.5,-216.7 430.18,-375.13 -93.33,-115.7 -212.72,-17.97 -396.19,101.42 -35.64,23.18 -54.63,37.85 -86.04,61.07 -16.87,12.46 -28.57,19.41 -47.51,32.76 -123.16,86.59 -110.07,58.83 -328.97,58.83 -102.52,0 -205.05,0.08 -307.57,0 -151.69,-0.25 -208.44,-5.85 -227.34,78.66l0 616.71 0 9.41 0 9.41 0 9.41c0.04,189.62 0.25,379.24 0,568.86l0 144.78c5.47,43.74 23.44,75.53 75.19,92.31 96.63,31.41 666.76,-13.1 904.78,17.97 192.37,25.09 374.83,22.76 567.55,47.6 164.15,21.15 375.21,40.35 551.65,50.14 336.26,18.69 805.14,93.37 1137.08,93.2 214.12,-0.08 379.62,-22.89 548.56,-66.58 213.82,-55.27 676.13,-236.79 868.38,-348.55 66.58,-38.7 131.26,-69.72 201.36,-106.21l489.39 -272.9c39.88,-33.02 32,-64.85 32,-129.14z"/>
   <path class="fil2" d="M2748.94 3085.58c93.2,67.64 173.3,230.48 463.58,291.89 131.17,27.76 582.42,40.69 528.6,-199.33 -94.22,-129.56 -187.84,36.41 -408.7,12.04 -473.92,-52.22 -691.81,-601.11 -339.87,-951.74 389.07,-387.63 1106.87,17.67 888.13,607.3 -34.25,92.31 -76.54,105.74 -1.91,194.45 56.54,10.64 63.91,16.49 124.14,2.5 289.3,-339.19 64.93,-1180.95 -659.01,-1159.67 -303.76,8.94 -536.18,204.03 -635.78,392.08 -102.52,193.48 -126.85,417.72 -43.23,632.39 12.67,32.55 24.67,60.14 42.43,91.46 24.92,43.91 33.65,44.8 41.62,86.63z"/>
   <path class="fil4" d="M4633.31 6208.59c355.68,1.44 383.14,40.35 800.78,-31.96 241.41,-41.79 482.91,-115.32 688.34,-206.62 83.15,-36.96 949.58,-479.05 998.15,-552.59 36.36,-54.97 66.41,-353.94 -311.17,-150.88 -101.63,54.63 -190.47,99.13 -288.2,152.83 -195.81,107.52 -384.79,204.16 -585.18,310.24 -59.67,31.66 -99.6,30.3 -124.44,90.15 -68.53,165.04 -120.83,255.57 -382.16,287.69 -264.72,32.55 -529.78,63.02 -796.12,101.13z"/>
   <path class="fil5" d="M4527.48 5350.6c130.84,9.45 287.69,2.37 421.11,1.86 341.05,-1.31 245.18,-2.8 639.05,-211.7 160.08,-84.89 144.27,-209.37 77.14,-271.76 -92.14,-85.66 -213.61,-9.58 -299.77,36.45l-837.52 445.15z"/>
   <path class="fil5" d="M5590.91 5371.32c42.04,43.99 148.17,71.25 196.91,202.25 108.12,-38.19 277.22,-139.95 384.71,-195.81 41.03,-21.32 155.8,-79.85 179.53,-100.7 57.98,-51.03 60.4,-162.79 0.59,-213.61 -102.82,-87.39 -262.26,29.84 -391.53,103.16 -114.22,64.76 -265.48,129.99 -370.21,204.71z"/>
   <path class="fil6" d="M3741.12 3178.15c53.83,240.01 -397.42,227.09 -528.6,199.33 -290.28,-61.41 -370.38,-224.25 -463.58,-291.89 74,166.39 117.1,232.68 232.81,320.75 100.15,76.2 250.35,133.84 415.52,128.12 299.6,-10.34 555.68,-236.75 605.65,-491.77 -60.23,13.99 -67.6,8.14 -124.14,-2.5 -18.65,33.57 -33.69,47.04 -63.19,74.76 -31.53,29.71 -47.26,33.91 -74.47,63.19z"/>
   <path class="fil7" d="M6562.66 1153.83c175.13,110.7 357.03,142.62 511.13,-20.09 8.69,-359.96 -541.14,-351.23 -511.13,20.09z"/>
   <path class="fil7" d="M6562.11 2665.7l55.82 34.12c60.69,38.48 126.13,59.76 203.18,58.32 137.07,-2.5 195.77,-68.45 253.02,-110.49 -0.64,-358.13 -534.32,-351.35 -512.02,18.06z"/>
   <path class="fil7" d="M6561.6 4178.08c73.24,35.86 113.63,95.49 259,91.93 49.42,-1.23 96.04,-13.01 137.66,-31.11 20.43,-8.9 45.05,-22.63 60.52,-33.23l55.65 -43.95c-7.93,-357.71 -527.41,-348.68 -512.83,16.36z"/>
   <path class="fil8" d="M6561.6 4178.08c49.08,311.43 476.93,316.51 512.83,-16.36l-55.65 43.95c-15.47,10.6 -40.09,24.33 -60.52,33.23 -41.62,18.1 -88.24,29.88 -137.66,31.11 -145.37,3.56 -185.76,-56.07 -259,-91.93z"/>
   <path class="fil8" d="M6562.11 2665.7c54.33,321.94 484.6,296.89 512.02,-18.06 -57.26,42.04 -115.96,107.99 -253.02,110.49 -77.05,1.44 -142.49,-19.84 -203.18,-58.32l-55.82 -34.12z"/>
   <path class="fil8" d="M6562.66 1153.83c57.13,313.5 476.93,298.88 511.13,-20.09 -154.1,162.71 -336.01,130.79 -511.13,20.09z"/>
  </g>
 </g>
</svg>
