<?xml version="1.0" encoding="UTF-8"?>
<!DOCTYPE svg PUBLIC "-//W3C//DTD SVG 1.1//EN" "http://www.w3.org/Graphics/SVG/1.1/DTD/svg11.dtd">
<!-- Creator: CorelDRAW 2019 (64-Bit) -->
<svg xmlns="http://www.w3.org/2000/svg" xml:space="preserve" width="19.6664mm" height="19.6664mm" version="1.1" style="shape-rendering:geometricPrecision; text-rendering:geometricPrecision; image-rendering:optimizeQuality; fill-rule:evenodd; clip-rule:evenodd"
viewBox="0 0 1068.31 1068.31"
 xmlns:xlink="http://www.w3.org/1999/xlink"
 xmlns:xodm="http://www.corel.com/coreldraw/odm/2003">
 <defs>
  <style type="text/css">
   <![CDATA[
    .fil0 {fill:none}
    .fil2 {fill:black}
    .fil4 {fill:#6C90AB}
    .fil5 {fill:#CAE458}
    .fil1 {fill:#FEC044}
    .fil3 {fill:#FEFEFE}
   ]]>
  </style>
 </defs>
 <g id="Layer_x0020_1">
  <metadata id="CorelCorpID_0Corel-Layer"/>
  <rect class="fil0" width="1068.31" height="1068.31"/>
  <g id="_1983325455088">
   <path class="fil1" d="M323.85 806.57c19.85,-8.96 29.93,21.8 12.25,29.74 -9.21,4.13 -18.53,-1.23 -21.63,-8.38 -2.05,-4.73 -2.04,-8.6 -0.02,-13.35 2.31,-5.44 5,-6.02 9.4,-8.01zm-154.7 -1.83l80.96 0c28.35,0 30.57,33.03 -1.65,33.03l-79.3 0c-0.01,17.25 -2.14,33.06 21.48,33.06l-1.65 0c61.04,0 477.38,1.81 501.49,-0.58 -15.85,-14.81 -41.13,-63.58 -50.32,-87.13 -18.86,-48.3 -26.12,-109.73 -18.84,-163.69 6.33,-46.95 10.3,-19.14 90.54,-46.85 22.7,-7.84 43.86,-17.2 61.81,-29.06 7.09,-4.69 18.57,-16.78 28.1,-16.17 8.06,0.52 14.36,10 27.93,17.69l0.33 -49.26c0,-28.26 -24.08,-21.48 -47.91,-21.48l-317.22 0.01c-34.1,0.11 -27.31,-3.2 -49.28,-58.11 -17.77,-44.4 -11.01,-41.02 -41.59,-41.02l-204.87 0 0 429.58z"/>
   <path class="fil2" d="M654.95 621.35c19.14,-7.5 55.67,-6.81 114.48,-37.46 44.48,-23.18 17.3,-22.72 62.76,0.59 32.2,16.51 76.12,31.22 112.78,36.1 8.3,18.73 2.23,82.44 -2.09,103.89 -11.87,59.04 -38.28,107.76 -78.99,147.19 -9.86,9.55 -54.27,48.93 -63.61,48.89 -8.66,-0.04 -55.17,-40.41 -64.49,-49.66 -39.87,-39.6 -66.66,-87.5 -78.29,-146.48 -4.83,-24.54 -9.46,-79.18 -2.55,-103.05zm-485.8 -246.18l204.87 0c30.58,0 23.82,-3.38 41.59,41.02 21.97,54.91 15.17,58.22 49.28,58.11l317.22 -0.01c23.83,0 47.91,-6.77 47.91,21.48l-0.33 49.26c-13.57,-7.69 -19.87,-17.17 -27.93,-17.69 -9.53,-0.61 -21,11.48 -28.1,16.17 -17.95,11.86 -39.11,21.22 -61.81,29.06 -80.23,27.71 -84.2,-0.1 -90.54,46.85 -7.28,53.96 -0.02,115.4 18.84,163.69 9.19,23.54 34.47,72.31 50.32,87.13 -24.11,2.4 -440.46,0.58 -501.49,0.58l1.65 0c-23.62,0 -21.49,-15.81 -21.48,-33.06l79.3 0c32.22,0 30,-33.03 1.65,-33.03l-80.96 0 0 -429.58zm82.61 -231.3l495.65 0.01 0 297.39 -286.55 0c-6.03,-19.32 -16.74,-42.57 -24.59,-62.25 -8.83,-22.16 -20.32,-36.88 -49.03,-36.88l-135.48 0 0 -198.27zm-33.04 -4.95l0 203.21 -54.52 0c-12.11,0 -28.09,15.98 -28.09,28.09l0 489.04c0,20.54 20.78,44.74 49.5,44.67 172.59,-0.45 350.84,1.77 522.17,-0.09 19.58,-0.21 9.65,-1.73 32.04,15.87 12.57,9.88 47.35,37.03 62.1,37.03 5.93,0 13.93,-6.23 18.89,-9.2 52.15,-31.23 98.11,-77.59 125.4,-132.34 7.21,-14.45 12.18,-24.61 17.42,-40.41 17.07,-51.52 18.38,-70.94 18.38,-125.36 0,-15.1 -2.05,-33.82 -4.98,-46.23 -4.04,-17.06 -16.52,-14.26 -34.41,-16.81 -21.97,-3.12 -62.88,-15.7 -79.56,-24.52 0,-17.69 2.25,-68.17 -0.65,-81.97 -3.86,-18.37 -23.14,-38.64 -43.96,-38.64l-38 0 0 -302.34c0,-12.11 -15.98,-28.09 -28.08,-28.09l-505.56 0c-12.11,0 -28.09,15.98 -28.09,28.09z"/>
   <path class="fil3" d="M585.04 376.01c7.08,-2.23 66.97,-0.83 79.76,-0.83 12.98,0 28.21,-2.36 35.14,6.13 8.22,10.07 1.69,23.15 -7.9,26 -8.35,2.49 -66.58,0.89 -80.1,0.9 -12.95,0 -28.2,2.35 -35.16,-6.11 -8.53,-10.39 -1.67,-22.97 8.27,-26.1zm99.69 -66.95c24.98,0.98 23.28,28.67 6.02,32.51l-189.62 0.58c-23.27,-1.06 -22.34,-28.27 -5.65,-32.48l189.26 -0.61zm-377.23 -65.21c12.45,-3.93 189.49,-0.84 218.52,-0.84 14.87,0 157.02,-1.15 164.73,0.56 15.98,3.54 16.39,27.08 1.29,31.58 -9.83,2.92 -92.61,0.89 -109.85,0.89 -27.7,0 -265.4,1.3 -273.78,-0.55 -16.17,-3.57 -17.68,-26.35 -0.91,-31.64zm0 -66.09c12.45,-3.93 189.49,-0.84 218.52,-0.84 14.87,0 157.02,-1.15 164.73,0.56 15.98,3.54 16.39,27.09 1.29,31.58 -9.82,2.92 -92.61,0.89 -109.85,0.89 -27.7,0 -265.4,1.3 -273.78,-0.55 -16.17,-3.57 -17.68,-26.35 -0.91,-31.64zm-55.74 164.38l135.48 0c28.71,0 40.2,14.73 49.03,36.88 7.84,19.68 18.56,42.92 24.59,62.25l286.55 0 0 -297.39 -495.65 -0.01 0 198.27z"/>
   <path class="fil4" d="M781.89 711.78c8.24,-8.83 16.61,-16.72 25.45,-25.55 17.86,-17.83 35.84,-43.09 70.35,-31.61 28.07,9.33 41.52,41.18 29.07,68.27 -5.96,12.97 -65.33,69.15 -77.36,81.22 -6.9,6.93 -16.43,18.51 -27.79,23.41 -40.38,17.42 -66.21,-20.21 -97.99,-53.37 -35.84,-37.41 -0.58,-93.62 46.55,-82.8 17.23,3.95 22.21,14.11 31.71,20.42zm-126.94 -90.43c-6.91,23.87 -2.28,78.52 2.55,103.05 11.62,58.98 38.42,106.88 78.29,146.48 9.32,9.25 55.83,49.62 64.49,49.66 9.34,0.04 53.75,-39.34 63.61,-48.89 40.72,-39.43 67.12,-88.15 78.99,-147.19 4.31,-21.45 10.39,-85.16 2.09,-103.89 -36.66,-4.87 -80.58,-19.59 -112.78,-36.1 -45.46,-23.31 -18.28,-23.77 -62.76,-0.59 -58.81,30.65 -95.34,29.96 -114.48,37.46z"/>
   <path class="fil2" d="M876.3 711.07c-0.15,0.24 -16.69,15.64 -18.46,17.41l-55.32 55.38c-25.74,25.72 -24.34,17.84 -62.14,-20 -4.13,-4.13 -16.52,-13.46 -17.8,-20.47 -2.18,-11.97 5.23,-20.56 16.57,-20.18 9.01,0.3 17.11,10.95 21.54,15.38 21.58,21.59 26.01,15.44 44.62,-3.17 12.79,-12.8 24.37,-24.38 37.18,-37.17 5.64,-5.64 10.78,-15.08 23.65,-12.53 5.06,1 8.73,4.23 10.48,8 2.19,4.72 2.09,13.44 -0.32,17.33zm-94.41 0.72c-9.51,-6.32 -14.48,-16.47 -31.71,-20.42 -47.13,-10.82 -82.39,45.39 -46.55,82.8 31.77,33.16 57.61,70.79 97.99,53.37 11.36,-4.9 20.88,-16.49 27.79,-23.41 12.04,-12.07 71.41,-68.25 77.36,-81.22 12.45,-27.1 -1,-58.94 -29.07,-68.27 -34.51,-11.48 -52.49,13.78 -70.35,31.61 -8.84,8.83 -17.21,16.71 -25.45,25.55z"/>
   <path class="fil2" d="M307.5 177.76c-16.76,5.3 -15.25,28.07 0.91,31.64 8.38,1.85 246.08,0.55 273.78,0.55 17.24,0 100.03,2.03 109.85,-0.89 15.1,-4.49 14.68,-28.04 -1.29,-31.58 -7.71,-1.71 -149.86,-0.56 -164.73,-0.56 -29.03,0 -206.07,-3.1 -218.52,0.84z"/>
   <path class="fil2" d="M307.5 243.85c-16.76,5.3 -15.25,28.07 0.91,31.64 8.38,1.85 246.08,0.55 273.78,0.55 17.24,0 100.02,2.03 109.85,-0.89 15.1,-4.49 14.69,-28.04 -1.29,-31.58 -7.71,-1.71 -149.86,-0.56 -164.73,-0.56 -29.03,0 -206.07,-3.1 -218.52,0.84z"/>
   <path class="fil2" d="M495.47 309.68c-16.69,4.21 -17.62,31.42 5.65,32.48l189.62 -0.58c17.26,-3.84 18.96,-31.53 -6.02,-32.51l-189.26 0.61z"/>
   <path class="fil5" d="M876.3 711.07c2.41,-3.89 2.5,-12.62 0.32,-17.33 -1.75,-3.77 -5.42,-7 -10.48,-8 -12.86,-2.55 -18,6.89 -23.65,12.53 -12.8,12.78 -24.38,24.37 -37.18,37.17 -18.61,18.61 -23.04,24.75 -44.62,3.17 -4.43,-4.43 -12.53,-15.08 -21.54,-15.38 -11.34,-0.37 -18.75,8.21 -16.57,20.18 1.28,7.01 13.67,16.34 17.8,20.47 37.81,37.84 36.4,45.72 62.14,20l55.32 -55.38c1.77,-1.77 18.31,-17.17 18.46,-17.41z"/>
   <path class="fil2" d="M585.04 376.01c-9.94,3.13 -16.8,15.71 -8.27,26.1 6.95,8.46 22.21,6.11 35.16,6.11 13.52,-0.01 71.75,1.59 80.1,-0.9 9.59,-2.86 16.12,-15.93 7.9,-26 -6.92,-8.49 -22.15,-6.13 -35.14,-6.13 -12.79,0.01 -72.67,-1.4 -79.76,0.83z"/>
   <path class="fil2" d="M323.85 806.57c-4.4,1.98 -7.09,2.56 -9.4,8.01 -2.02,4.75 -2.03,8.62 0.02,13.35 3.1,7.14 12.42,12.5 21.63,8.38 17.68,-7.93 7.61,-38.69 -12.25,-29.74z"/>
  </g>
 </g>
</svg>
