<?xml version="1.0" encoding="UTF-8"?>
<!DOCTYPE svg PUBLIC "-//W3C//DTD SVG 1.1//EN" "http://www.w3.org/Graphics/SVG/1.1/DTD/svg11.dtd">
<!-- Creator: CorelDRAW 2019 (64-Bit) -->
<svg xmlns="http://www.w3.org/2000/svg" xml:space="preserve" width="19.6664mm" height="19.6664mm" version="1.1" style="shape-rendering:geometricPrecision; text-rendering:geometricPrecision; image-rendering:optimizeQuality; fill-rule:evenodd; clip-rule:evenodd"
viewBox="0 0 865.12 865.12"
 xmlns:xlink="http://www.w3.org/1999/xlink"
 xmlns:xodm="http://www.corel.com/coreldraw/odm/2003">
 <defs>
  <style type="text/css">
   <![CDATA[
    .fil0 {fill:none}
    .fil2 {fill:black}
    .fil7 {fill:#9FE457}
    .fil3 {fill:#B2B5C2}
    .fil8 {fill:#D6F992}
    .fil6 {fill:#FDD99A}
    .fil5 {fill:#FE5D5D}
    .fil4 {fill:#FEFEFE}
    .fil1 {fill:#FFC66C}
   ]]>
  </style>
 </defs>
 <g id="Layer_x0020_1">
  <metadata id="CorelCorpID_0Corel-Layer"/>
  <rect class="fil0" width="865.12" height="865.12"/>
  <g id="_1983398542704">
   <path class="fil1" d="M734.66 654.21c4.42,-3.04 8.79,0.91 5.93,6.07 0.43,0.79 1.33,1.74 1.95,2.6 0.63,0.88 1.34,1.98 1.85,2.9 4.34,-1.66 5.74,1.42 7.08,4.57 1.28,3.03 2.31,5.87 3.12,9.28 3.3,13.78 0.93,28.5 -6.31,40.29 -17.6,28.66 -56.66,35.36 -83.01,10.65 -29.92,-28.04 -16.95,-81.35 25.4,-90.68 7.34,-1.62 14.87,-1.79 22.37,-0.28 4.48,0.9 17.49,3.61 14.27,9.61 2.75,1.44 5.02,3.77 7.36,4.99zm-106.93 -18.08c0.4,2.09 5.55,6.57 7.06,8.09 3.68,3.66 6.9,5.64 6,9 -0.25,0.94 -5.25,8.06 -8.91,21.12 -1.46,5.22 -5.81,3.85 -11.42,3.85 -14.57,0 -12.39,-1.51 -12.41,17.95 -0,5.31 -1.1,9.71 4.8,9.85 4.47,0.11 11.09,-0.48 15.22,0.04 4.13,0.51 4.28,6.08 5.52,9.77 4.68,13.91 10.48,15.19 5.09,20.56 -14.7,14.6 -14.68,10.87 -0.99,24.56 8.52,8.53 7.69,8.09 16.87,-1.09 4.07,-4.07 5.57,-6.92 8.96,-5.99 1.62,0.44 7.4,4.01 10.07,5.16 15.67,6.78 14.99,0.62 14.99,15.14 0,14.51 -1.54,12.4 17.89,12.4 5.36,0 9.74,1.11 9.9,-4.79 0.12,-4.48 -0.48,-11.07 0.04,-15.22 0.52,-4.13 6.04,-4.28 9.73,-5.52 15.06,-5.08 14.97,-10.65 20.46,-4.99 14.49,14.95 11.52,14.02 24.67,0.9 7.23,-7.21 8.12,-7.47 2.61,-12.98 -13.5,-13.5 -11.2,-8.27 -4.54,-22.96 6.99,-15.44 0.18,-15.01 15.15,-15.01 14.45,0 12.41,1.57 12.4,-17.84 -0,-5.47 1.16,-9.76 -4.78,-9.96 -4.51,-0.15 -11.02,0.49 -15.21,-0.04 -4.07,-0.51 -4.22,-5.75 -5.54,-9.67 -5.09,-15.11 -10.65,-14.96 -4.98,-20.45 14.94,-14.45 13.98,-11.6 0.89,-24.68 -7.25,-7.25 -7.47,-8.11 -12.98,-2.6 -13.61,13.6 -8.25,11.13 -22.95,4.53 -15.36,-6.89 -14.97,-0.27 -14.97,-15.14 0,-14.53 1.53,-12.4 -17.89,-12.4 -5.36,0 -9.76,-1.12 -9.9,4.79 -0.11,4.44 0.48,11.12 -0.04,15.22 -0.53,4.11 -6.02,4.29 -9.71,5.54 -14.28,4.83 -15.16,10.51 -20.56,5.07 -14.55,-14.67 -10.93,-14.67 -24.58,-0.99 -1.68,1.68 -6.64,5.34 -5.97,8.78z"/>
   <path class="fil2" d="M627.73 636.14c-0.68,-3.44 4.28,-7.1 5.97,-8.78 13.65,-13.68 10.03,-13.68 24.58,0.99 5.4,5.44 6.28,-0.24 20.56,-5.07 3.69,-1.25 9.18,-1.43 9.71,-5.54 0.53,-4.1 -0.07,-10.78 0.04,-15.22 0.15,-5.91 4.54,-4.79 9.9,-4.79 19.42,0 17.89,-2.12 17.89,12.4 0,14.87 -0.39,8.25 14.97,15.14 14.71,6.59 9.35,9.07 22.95,-4.53 5.51,-5.5 5.72,-4.64 12.98,2.6 13.09,13.08 14.05,10.24 -0.89,24.68 -5.68,5.49 -0.11,5.34 4.98,20.45 1.32,3.92 1.47,9.16 5.54,9.67 4.19,0.53 10.7,-0.11 15.21,0.04 5.94,0.2 4.78,4.49 4.78,9.96 0.01,19.41 2.05,17.84 -12.4,17.84 -14.97,0 -8.16,-0.43 -15.15,15.01 -6.66,14.69 -8.95,9.45 4.54,22.96 5.51,5.5 4.61,5.77 -2.61,12.98 -13.14,13.12 -10.17,14.05 -24.67,-0.9 -5.49,-5.67 -5.39,-0.09 -20.46,4.99 -3.69,1.24 -9.21,1.39 -9.73,5.52 -0.52,4.15 0.08,10.75 -0.04,15.22 -0.16,5.89 -4.54,4.79 -9.9,4.79 -19.43,0 -17.89,2.11 -17.89,-12.4 0,-14.51 0.68,-8.35 -14.99,-15.14 -2.67,-1.16 -8.45,-4.72 -10.07,-5.16 -3.39,-0.93 -4.89,1.92 -8.96,5.99 -9.18,9.17 -8.35,9.62 -16.87,1.09 -13.69,-13.7 -13.7,-9.96 0.99,-24.56 5.4,-5.36 -0.41,-6.65 -5.09,-20.56 -1.24,-3.69 -1.39,-9.26 -5.52,-9.77 -4.14,-0.51 -10.76,0.07 -15.22,-0.04 -5.9,-0.15 -4.8,-4.54 -4.8,-9.85 0.02,-19.46 -2.17,-17.95 12.41,-17.95 5.61,0 9.95,1.37 11.42,-3.85 3.66,-13.07 8.66,-20.18 8.91,-21.12 0.9,-3.37 -2.33,-5.34 -6,-9 -1.52,-1.51 -6.66,-6 -7.06,-8.09zm52.75 -22c-1.2,0.58 -3.17,1.13 -4.45,1.55 -1.85,0.61 -2.91,1.02 -4.64,1.76 -2.39,1.03 -6.53,3.43 -8.51,3.89 -3.15,-2.11 -6.89,-7.25 -10.11,-9.89 -4.4,-3.62 -10.61,-2.65 -14.71,0.28 -2.69,1.93 -7.43,7.25 -10.09,9.92 -6.13,6.13 -8.3,6.89 -8.3,14.9 0,6.77 8.96,11.45 12,16 -0.43,1.86 -4.03,8.26 -5.55,12.85 -0.5,1.51 -1.03,3.47 -1.65,4.75 -8.55,0 -16.78,-1.79 -21.89,4.51 -0.95,1.17 -2.51,4.29 -2.51,6.29l0 21.6c0,5.04 3.59,9.17 7.35,10.65 4.3,1.7 11.45,0.95 17.05,0.95l3.32 9.09c1.05,2.65 3.37,6.28 3.88,8.51 -2.11,3.15 -7.25,6.89 -9.89,10.11 -3.57,4.35 -2.64,10.63 0.28,14.71 1.93,2.69 7.25,7.43 9.92,10.09 6.13,6.13 6.89,8.3 14.9,8.3 6.77,0 11.45,-8.96 16,-12 1.68,0.39 8.45,4.09 12.85,5.55 1.53,0.51 3.45,1.02 4.76,1.65 0,5.6 -0.74,12.75 0.95,17.05 1.48,3.76 5.61,7.35 10.65,7.35l20.8 0c5.04,0 9.17,-3.59 10.65,-7.35 1.7,-4.3 0.95,-11.45 0.95,-17.05l9.09 -3.32c2.65,-1.05 6.28,-3.37 8.51,-3.88 5.3,3.55 8.12,11.19 15.98,12.04 7.83,0.86 12.57,-5.99 16.92,-10.35 3.97,-3.97 11.6,-9.52 10.45,-17.02 -0.77,-4.99 -2.43,-5.97 -5.25,-8.79 -1.83,-1.82 -5.67,-5.27 -6.9,-7.1 0.43,-1.86 4.03,-8.26 5.55,-12.85 0.5,-1.51 1.03,-3.47 1.65,-4.75 5.6,0 12.75,0.74 17.05,-0.95 3.76,-1.48 7.35,-5.61 7.35,-10.65l0 -21.6c0,-2 -1.55,-5.12 -2.51,-6.29 -1.24,-1.53 -3.24,-2.93 -5.09,-3.71 -3.7,-1.57 -11.7,-0.8 -16.8,-0.8l-3.31 -9.09c-1.03,-2.39 -3.43,-6.53 -3.89,-8.51 4.96,-7.41 12,-6.98 12,-18.8 0,-5.37 -8.5,-12.3 -13.1,-16.91 -1.53,-1.52 -3.41,-3.69 -5.06,-4.94 -12.32,-9.3 -19.8,5.93 -25.04,9.44 -1.86,-0.43 -8.26,-4.03 -12.85,-5.55 -1.51,-0.5 -3.47,-1.03 -4.75,-1.65 0,-5.6 0.74,-12.75 -0.95,-17.05 -1.48,-3.76 -5.61,-7.35 -10.65,-7.35l-20.8 0c-5.04,0 -9.17,3.59 -10.65,7.35 -1.7,4.3 -0.95,11.45 -0.95,17.05z"/>
   <path class="fil3" d="M688.58 720.79c-1.79,-0.59 -4.56,-1.99 -5.28,-3.48 -4.81,3.84 -9.53,-0.9 -6.25,-5.49 -0.94,-1.83 -2.96,-4.06 -3.21,-6.09 -5.64,1.41 -6.2,-3.38 -6.95,-8.38 -4.25,-28.13 24.85,-50.1 51.24,-37.65 19.8,9.34 27.02,36.19 13.3,53.79 -4.43,5.67 -9.91,10.74 -19.1,13.31 -5.3,1.48 -25.58,3.65 -23.75,-6.01zm55.81 -55c-0.51,-0.93 -1.21,-2.02 -1.85,-2.9 -0.62,-0.87 -1.53,-1.81 -1.95,-2.6 -5.21,2.33 -8.99,-1.4 -5.93,-6.07 -2.34,-1.22 -4.61,-3.55 -7.36,-4.99 -4.25,6.83 -11.21,-6.62 -34.51,-1.62 -5.26,1.13 -11.37,3.73 -15.02,6.22 -6.51,4.46 -4.71,3.83 -8.5,7.1 -1.24,1.06 -1.61,1.85 -2.56,3.04 -10.42,13.06 -13.32,32.44 -4.86,48.79 1.83,3.54 3.84,6.41 6.25,9.38 0.96,1.18 1.85,1.64 2.82,2.77 5.41,6.25 17.69,12.3 29.59,12.77 35.89,1.41 57.4,-36.15 43.4,-64.55 -1.87,-3.8 -2.21,-4.5 0.48,-7.34z"/>
   <path class="fil4" d="M673.84 705.73c0.25,2.03 2.27,4.26 3.21,6.09 4.32,-2.82 7.9,0.33 6.25,5.49 0.72,1.49 3.5,2.89 5.28,3.48 3.16,-3.78 3.48,-2.08 9.15,-1.07 3.84,0.68 7.85,0.51 11.53,-0.4 21.99,-5.42 27.32,-32.73 13.1,-47.05 -14.88,-14.98 -41.82,-8.25 -47.05,13.1 -3.21,13.09 4.07,16.83 -1.47,20.36z"/>
   <path class="fil2" d="M744.38 665.79c-2.69,2.83 -2.34,3.54 -0.48,7.34 13.99,28.4 -7.52,65.96 -43.4,64.55 -11.89,-0.47 -24.18,-6.52 -29.59,-12.77 -0.98,-1.13 -1.87,-1.59 -2.82,-2.77 -2.41,-2.97 -4.42,-5.84 -6.25,-9.38 -8.46,-16.36 -5.56,-35.73 4.86,-48.79 0.95,-1.2 1.33,-1.98 2.56,-3.04 3.8,-3.27 1.99,-2.64 8.5,-7.1 3.65,-2.5 9.76,-5.09 15.02,-6.22 23.29,-5.01 30.25,8.45 34.51,1.62 3.22,-6 -9.79,-8.71 -14.27,-9.61 -7.5,-1.5 -15.03,-1.34 -22.37,0.28 -42.35,9.33 -55.32,62.63 -25.4,90.68 26.35,24.71 65.41,18.01 83.01,-10.65 7.24,-11.78 9.61,-26.51 6.31,-40.29 -0.81,-3.4 -1.84,-6.25 -3.12,-9.28 -1.34,-3.15 -2.74,-6.23 -7.08,-4.57z"/>
   <path class="fil2" d="M673.84 705.73c5.54,-3.53 -1.73,-7.27 1.47,-20.36 5.23,-21.35 32.17,-28.08 47.05,-13.1 14.22,14.32 8.89,41.63 -13.1,47.05 -3.68,0.91 -7.69,1.08 -11.53,0.4 -5.67,-1.01 -5.99,-2.71 -9.15,1.07 -1.83,9.66 18.44,7.49 23.75,6.01 9.19,-2.57 14.68,-7.63 19.1,-13.31 13.72,-17.6 6.5,-44.45 -13.3,-53.79 -26.39,-12.45 -55.49,9.52 -51.24,37.65 0.75,4.99 1.31,9.78 6.95,8.38z"/>
   <path class="fil2" d="M734.66 654.21c-3.06,4.67 0.72,8.4 5.93,6.07 2.87,-5.16 -1.5,-9.11 -5.93,-6.07z"/>
   <path class="fil2" d="M677.05 711.82c-3.29,4.59 1.44,9.33 6.25,5.49 1.66,-5.15 -1.93,-8.31 -6.25,-5.49z"/>
  </g>
  <path class="fil2" d="M410.12 380.83c-9.29,-5.73 -35.22,-36.81 -43.83,-42.19 -11.94,-7.46 -24.36,5.99 -15.11,17.47l63.9 64.11c15.01,15.01 7.88,6.39 18.76,23.53 4.41,6.96 14.13,19.91 18.55,23.99 -18.83,3.18 -46,-6.62 -60.72,-13.49 -52.92,-24.68 -84.08,-83.29 -76.96,-141.15 0.14,-1.12 0.32,-3.01 0.54,-4.05l1.56 -4.46c12.57,-4.23 39.31,-2.4 52.59,0.49 27.54,6 26.19,10.1 42.65,15.95 -2.82,25.05 -3.8,33.77 -1.91,59.8zm-85.35 -249.76l20.24 0c58.38,3.59 107.34,38.26 134.93,90.42 6.31,-3.34 11.03,-6.72 18,-10.18 37.54,-18.65 87.26,-23.14 125.93,-8.12 3.22,1.25 6.31,2.16 9.34,3.58 10.24,4.81 7.73,11.42 7.6,16.5l-1.44 1.23c-0.18,0.17 -0.48,0.43 -0.68,0.62 -7.65,6.96 -9.89,5.16 -21.32,1.03 -59.34,-21.41 -122.1,-0.43 -157.98,47.61 -53.38,71.47 -26.05,173.14 54.87,209.3 52.58,23.49 113.53,10.98 154.03,-28.6 19.02,-18.59 33.31,-46.08 38.29,-73.22 4.82,-26.24 1.65,-56.76 -9.6,-80.9 -7.91,-16.98 -1.65,-16.14 2.36,-22.48 8.55,-0.18 12.36,-2.61 18.6,10.94 8.59,18.63 13.42,38.46 14.46,58.63l0 16.72c-0.91,17.65 -4.7,35.38 -11.39,52.62 -15.68,40.39 -52.28,76.67 -92.95,91.4 -40.44,14.65 -87.68,14.97 -128.55,-5.63 -3.7,-1.87 -6.89,-3.26 -10.13,-5.13 -2.49,-1.45 -6.84,-5.05 -9.2,-6.1 -10.05,-4.46 -56.07,14.6 -120.71,-28.38 -6.97,-4.63 -10.89,-8.51 -17.08,-13.45 -6.07,-4.84 -10.22,-10.52 -15.4,-16.31 -24.43,-27.36 -42.17,-78.79 -36.78,-116.06 1.3,-9 1.71,-19.04 4.29,-26.24 3.9,-10.86 11.38,-6.58 19.88,-10.65 -2.04,-7.63 -27.45,-33.38 -31.64,-85.78 -1.09,-13.57 1.31,-45.63 5.54,-53.05 3.69,-6.48 11.73,-7.26 20.73,-8.63 5.31,-0.81 10.57,-1.35 15.77,-1.67zm98.16 155.61c-0.62,4.56 -1.63,7.48 -4.05,11.05 -6.51,-1.37 -19.88,-10.17 -47.28,-15.96 -25.79,-5.45 -22.49,5.99 -41.86,-22.84 -21.08,-31.35 -25.48,-57.86 -21.18,-102.03 54.24,-6.16 94.15,5.78 128.52,44.06 8.01,8.92 21.47,26.26 23.32,37.38 -9.12,5.75 -16.99,18.52 -25.08,27.83 -5.27,-2.59 -56.98,-55.93 -65.73,-64.68 -2.31,-2.31 -8.69,-9.45 -11.41,-10.97 -11.53,-6.43 -24.61,7.76 -13.1,19.06 11.55,11.34 72.7,73.59 77.84,77.1z"/>
  <path class="fil5" d="M363.03 572.58c-3.71,-4.71 -6.22,-9.06 -8.73,-14.3 -7.61,1.78 -13.58,1.67 -17.07,-3.91 -4.74,-7.59 0.91,-12.96 3.33,-17.02 -1.7,-4.07 -4.42,-7.48 -6.59,-11.38 -2.51,-4.51 -4.43,-7.81 -6.68,-12.14 -15.47,3.54 -16.18,-1.87 -28.38,-25.61 -13.34,-25.96 -25.97,-49.07 -37.84,-76.03 -9.34,-21.21 -6.56,-22.01 -17.9,-24.43 -4.33,-0.92 -8.14,-1.8 -13.01,-1.32 -23.78,2.38 -13.25,22.48 -36.61,19.37 -13.61,-1.81 -21.17,-4.56 -32.99,4.74 -3.97,3.12 -4.99,3.98 -4.38,9.92 6,58.23 29.41,120.7 65.3,163.98 9.08,10.94 17.29,21.59 26.74,30.8 49.27,48.03 115.29,84.79 196.71,90.06 -2.49,-4.71 -7.88,-10.9 -11.73,-15.54 -22.02,-26.52 -51.37,-67.81 -71.77,-97.3 -6.11,-8.83 -4.06,-13.1 1.61,-19.9z"/>
  <path class="fil2" d="M154.69 386.03c2.56,-48.72 56.51,-45.59 77.34,-23.53 -8.58,1.22 -13.82,1.83 -21.23,5.53 -8.06,4.03 -9.08,6.5 -14.36,11.55 -4.54,4.33 -14.61,0.55 -21.54,0.98 -8.73,0.54 -13.12,3.11 -20.22,5.47zm317.43 346.24l-3.66 0 -0.15 -0.01c-91.64,-8.06 -147.77,-25.84 -217.52,-82.01 -10.24,-8.24 -24.53,-23.55 -33.6,-33.34 -2.21,-2.38 -2.17,-2.9 -4.15,-5.24 -27.85,-32.92 -56.21,-80.78 -67.52,-122.71 -5.23,-19.37 -11.89,-48.69 -14.32,-75.68l0 -35.57c0.32,-2.46 0.72,-4.82 1.22,-7.06 3.04,-13.64 16.43,-34.5 28.13,-37.62 0,-18.41 4.23,-39.1 12.12,-54.81 4.73,-9.42 19.05,-33.46 28.8,-37.07 7.96,-2.95 18.15,4.4 15.01,15.03 -1.23,4.16 -9.5,12.15 -14.14,18.84 -8.83,12.73 -16.77,32.67 -17.13,48.62 18.03,0 24.48,0.27 37.93,5.52 24.48,9.54 32.95,21.17 45.23,41.66 2.27,3.8 4.89,9.88 6.76,14.38 8.15,19.62 37.61,81.05 49.59,100.71 2.45,4.02 5.74,9.71 7.22,14.01 0.97,2.82 1.19,4.43 -0.06,7.86 -2.14,5.88 -1.35,1.72 -4.59,6.05 -15.47,3.54 -16.18,-1.87 -28.38,-25.61 -13.34,-25.96 -25.97,-49.07 -37.84,-76.03 -9.34,-21.21 -6.56,-22.01 -17.9,-24.43 -4.33,-0.92 -8.14,-1.8 -13.01,-1.32 -23.78,2.38 -13.25,22.48 -36.61,19.37 -13.61,-1.81 -21.17,-4.56 -32.99,4.74 -3.97,3.12 -4.99,3.98 -4.38,9.92 6,58.23 29.41,120.7 65.3,163.98 9.08,10.94 17.29,21.59 26.74,30.8 49.27,48.03 115.29,84.79 196.71,90.06 -2.49,-4.71 -7.88,-10.9 -11.73,-15.54 -22.02,-26.52 -51.37,-67.81 -71.77,-97.3 -6.11,-8.83 -4.06,-13.1 1.61,-19.9 15.29,-1.56 13.5,-0.79 20.86,10.33 23.76,35.94 58.04,80.13 85.32,114.29 3.26,4.08 12.73,14.79 14.24,18.73 3.24,8.5 -2.07,15.53 -11.33,16.33z"/>
  <path class="fil2" d="M582.17 376.84l64.65 36.92c-7.56,15.84 -37.69,34.88 -64.81,38.1l0.15 -75.01zm-23.62 0.32l0 74.62c-22.82,-2.16 -57.17,-21.06 -64.59,-37.78l64.59 -36.85zm99.87 -57.78c8.17,9.01 9.51,40.84 5.92,57.22 -1.41,6.44 -2.66,11.91 -6.06,17.06l-63.5 -37.15 63.64 -37.14zm-177.38 74.22c-3.15,-14.13 -7.13,-21.14 -6.92,-38.26 0.12,-9.93 2.33,-30.22 8.27,-36.15l63.43 37.33c-3.28,2.99 -60.1,35.7 -64.78,37.07zm100.98 -132.59c14.97,1.95 27.74,6.82 38.69,13.48 9.23,5.61 22.48,16.16 25.95,24.36l-64.64 36.87 0 -74.71zm-88.24 38.19c5.25,-9.88 16.11,-18.62 26.88,-25.23 10.36,-6.36 23.96,-11.43 37.89,-12.88l-0.17 74.88 -64.6 -36.78zm62.14 -61.34c-28.88,3.98 -60.76,18.92 -78.08,42.61 -17.21,23.53 -31.65,51.99 -26.18,91.48 8.37,60.39 63,112.35 133.85,103.17 60.23,-7.8 112.65,-63.11 103.47,-133.8 -7.77,-59.88 -63.27,-113.07 -133.07,-103.46z"/>
  <path class="fil6" d="M555.92 237.84c69.79,-9.61 125.29,43.58 133.07,103.46 9.18,70.69 -43.25,126.01 -103.47,133.8 -70.85,9.17 -125.49,-42.78 -133.85,-103.17 -5.47,-39.49 8.97,-67.95 26.18,-91.48 17.32,-23.68 49.2,-38.63 78.08,-42.61zm143.41 40c-2.54,-2.08 -4.19,-5.52 -6.38,-8.7 -2.08,-3.02 -4.29,-6.09 -6.35,-8.56 -6.49,2.38 -10.71,5 -17.02,-0.95 -6.16,-5.8 -4.62,-10.88 -1.72,-18.2 -4.32,-2.83 -8.35,-6.49 -12.78,-9.57 -3.71,-2.58 -9.94,-6.42 -14.27,-8.61l-1.44 1.23c-0.18,0.17 -0.48,0.43 -0.68,0.62 -7.65,6.96 -9.89,5.16 -21.32,1.03 -59.34,-21.41 -122.1,-0.43 -157.98,47.61 -53.38,71.47 -26.05,173.14 54.87,209.3 52.58,23.49 113.53,10.98 154.03,-28.6 19.02,-18.59 33.31,-46.08 38.29,-73.22 4.82,-26.24 1.65,-56.76 -9.6,-80.9 -7.91,-16.98 -1.65,-16.14 2.36,-22.48z"/>
  <path class="fil7" d="M422.93 286.68c-5.14,-3.51 -66.3,-65.76 -77.84,-77.1 -11.51,-11.29 1.57,-25.48 13.1,-19.06 2.71,1.51 9.1,8.66 11.41,10.97 8.75,8.75 60.45,62.09 65.73,64.68 8.09,-9.31 15.96,-22.08 25.08,-27.83 -1.86,-11.12 -15.31,-28.46 -23.32,-37.38 -34.36,-38.28 -74.28,-50.22 -128.52,-44.06 -4.3,44.17 0.1,70.68 21.18,102.03 19.37,28.82 16.07,17.39 41.86,22.84 27.4,5.79 40.77,14.59 47.28,15.96 2.42,-3.57 3.43,-6.49 4.05,-11.05z"/>
  <path class="fil2" d="M511.28 605.01c10.89,-6.66 21.15,22.23 14.43,42.69 -1.32,4.02 -4.93,11.02 -8.36,12.86 -15.49,8.31 -24.7,-44.15 -6.07,-55.55zm-31.18 6.07c-4.24,-24.63 13.34,-57.28 35.07,-56.47 22.92,0.86 34.44,32.13 33.84,57.09 -6.04,-9.71 -11.36,-31.37 -35.04,-31.26 -21.82,0.11 -28.66,21.35 -33.87,30.65zm31.54 74.22c31.23,0 46.48,-20.35 55.88,-45.1 16.3,-42.89 -5.91,-109.9 -53.54,-109.9 -27.41,0 -45.84,24.02 -53.61,47.37 -3.07,9.24 -3.93,19.01 -4.78,29.28 -2.36,28.44 19.82,78.35 56.05,78.35z"/>
  <path class="fil8" d="M410.12 380.83c-1.89,-26.03 -0.91,-34.76 1.91,-59.8 -16.46,-5.85 -15.11,-9.95 -42.65,-15.95 -13.28,-2.89 -40.02,-4.72 -52.59,-0.49l-1.56 4.46c-0.22,1.04 -0.4,2.93 -0.54,4.05 -7.12,57.86 24.04,116.46 76.96,141.15 14.71,6.87 41.89,16.66 60.72,13.49 -4.42,-4.08 -14.13,-17.03 -18.55,-23.99 -10.88,-17.14 -3.74,-8.52 -18.76,-23.53l-63.9 -64.11c-9.25,-11.48 3.17,-24.92 15.11,-17.47 8.61,5.38 34.54,36.46 43.83,42.19z"/>
  <path class="fil8" d="M493.78 299.19l64.6 36.78 0.17 -74.88c-13.93,1.45 -27.54,6.52 -37.89,12.88 -10.77,6.61 -21.63,15.35 -26.88,25.23z"/>
  <path class="fil8" d="M582.02 451.85c27.11,-3.21 57.24,-22.26 64.81,-38.1l-64.65 -36.92 -0.15 75.01z"/>
  <path class="fil8" d="M582.02 335.71l64.64 -36.87c-3.48,-8.2 -16.72,-18.75 -25.95,-24.36 -10.95,-6.66 -23.72,-11.53 -38.69,-13.48l0 74.71z"/>
  <path class="fil8" d="M481.03 393.59c4.68,-1.38 61.51,-34.09 64.78,-37.07l-63.43 -37.33c-5.95,5.93 -8.16,26.22 -8.27,36.15 -0.21,17.12 3.77,24.13 6.92,38.26z"/>
  <path class="fil8" d="M493.96 414c7.42,16.72 41.76,35.62 64.59,37.78l0 -74.62 -64.59 36.85z"/>
  <path class="fil8" d="M594.78 356.52l63.5 37.15c3.4,-5.15 4.65,-10.62 6.06,-17.06 3.59,-16.39 2.25,-48.21 -5.92,-57.22l-63.64 37.14z"/>
  <path class="fil7" d="M154.69 386.03c7.1,-2.36 11.49,-4.94 20.22,-5.47 6.92,-0.43 17,3.36 21.54,-0.98 5.28,-5.05 6.3,-7.52 14.36,-11.55 7.41,-3.7 12.64,-4.31 21.23,-5.53 -20.83,-22.06 -74.78,-25.2 -77.34,23.53z"/>
  <path class="fil8" d="M480.1 611.08c5.21,-9.3 12.05,-30.54 33.87,-30.65 23.68,-0.11 28.99,21.55 35.04,31.26 0.6,-24.96 -10.92,-56.23 -33.84,-57.09 -21.74,-0.81 -39.31,31.84 -35.07,56.47z"/>
  <path class="fil8" d="M511.28 605.01c-18.63,11.4 -9.43,63.86 6.07,55.55 3.44,-1.84 7.04,-8.84 8.36,-12.86 6.72,-20.46 -3.54,-49.35 -14.43,-42.69z"/>
  <path class="fil2" d="M667.86 241.44c-2.89,7.32 -4.44,12.4 1.72,18.2 6.32,5.94 10.54,3.32 17.02,0.95 4.64,-6.51 4.94,-12.7 -0.84,-18.31 -6.41,-6.23 -11.35,-4.38 -17.91,-0.84z"/>
  <path class="fil2" d="M678.38 518.56c0,16.83 23.49,18.59 23.49,-1.17 0,-11.26 -23.49,-14.2 -23.49,1.17z"/>
  <path class="fil2" d="M605.58 542.04c0,16.46 23.48,16.46 23.48,0 0,-15.2 -23.48,-15.09 -23.48,0z"/>
  <path class="fil2" d="M663.12 569.05c16.73,0 17.05,-23.49 0,-23.49 -14.7,0 -14.7,23.49 0,23.49z"/>
  <path class="fil2" d="M340.57 537.35c-2.42,4.07 -8.08,9.43 -3.33,17.02 3.48,5.57 9.46,5.68 17.07,3.91 3.31,-4.39 7.4,-9.92 2.65,-16.52 -4.02,-5.57 -8.68,-6.51 -16.38,-4.41z"/>
 </g>
</svg>
