<?xml version="1.0" encoding="UTF-8"?>
<!DOCTYPE svg PUBLIC "-//W3C//DTD SVG 1.1//EN" "http://www.w3.org/Graphics/SVG/1.1/DTD/svg11.dtd">
<!-- Creator: CorelDRAW 2019 (64-Bit) -->
<svg xmlns="http://www.w3.org/2000/svg" xml:space="preserve" width="19.6664mm" height="19.6664mm" version="1.1" style="shape-rendering:geometricPrecision; text-rendering:geometricPrecision; image-rendering:optimizeQuality; fill-rule:evenodd; clip-rule:evenodd"
viewBox="0 0 16511.58 16511.58"
 xmlns:xlink="http://www.w3.org/1999/xlink"
 xmlns:xodm="http://www.corel.com/coreldraw/odm/2003">
 <defs>
  <style type="text/css">
   <![CDATA[
    .fil0 {fill:none}
    .fil2 {fill:black}
    .fil3 {fill:#79787D}
    .fil8 {fill:#7F482D}
    .fil7 {fill:#7F613B}
    .fil1 {fill:#9B999E}
    .fil5 {fill:#FF905B}
    .fil4 {fill:#FFC277}
    .fil6 {fill:white}
   ]]>
  </style>
 </defs>
 <g id="Layer_x0020_1">
  <metadata id="CorelCorpID_0Corel-Layer"/>
  <rect class="fil0" width="16511.58" height="16511.58"/>
  <g id="_1983032632048">
   <path class="fil1" d="M12872.58 8861.72c-76.82,661.84 -264.22,1201.86 -540.61,1706.45 -833.62,1521.83 -2578.44,2497.84 -4433.59,2294.58 -862.34,-94.45 -1754.9,-470.08 -2370.73,-996 -126.27,-107.8 -182.02,-140.04 -287.64,-265.06 -56.67,-67 -74.3,-74.55 -148.02,-140.38 -62.88,-56.08 -79.42,-96.64 -132.07,-157.51 -679.56,-784.25 -1206.48,-1987.21 -1053.43,-3414.17 93.03,-867.04 473.61,-1756.16 995.33,-2370.98 923.12,-1088.02 2310.7,-1808.04 3971.23,-1621.4 962.92,108.22 2025.91,574.11 2662.57,1263.99 54.66,59.19 79.26,74.72 150.2,138.45 62.72,56.42 79.59,97.14 132.07,157.34 662.6,760.41 1216.98,2007.36 1054.68,3404.68zm-8597.08 -4833.57l-238.95 239.2 117.37 140.55 -504.25 505.09c39.46,101.42 556.64,714.07 638.25,821.7 -41.31,99.24 -141.39,253.3 -201.25,365.13 -65.66,122.58 -129.88,250.7 -187.23,389.57 -59.11,143.32 -107.47,271.77 -155.15,421.89 -44.75,140.88 -78.33,312.33 -129.8,447.5l-1022.86 102.6 -0.08 1839.69 1022.86 100.67c179.84,472.6 116.03,595.68 472.35,1259.54 59.61,110.99 159.86,266.65 201.08,365.3 -98.74,129.63 -206.45,269.34 -314.51,395.61 -65.82,76.91 -96.64,119.64 -162.12,198.56 -64.4,77.75 -124.59,130.39 -165.82,231.81l1275.91 1267.02c101.51,-38.2 727.75,-562.6 821.53,-638 103.6,42.06 248.94,142.65 364.8,201.25 290.92,147.26 492.5,241.72 812.3,341.88 138.87,43.41 314.34,79.34 446.83,130.39l102.68 1022.7 1845.4 0.08 95.46 -1022.78c135.76,-52.05 307.29,-84.71 448.09,-129.8 724.39,-231.81 777.29,-370.34 1176.34,-543.71 125.85,97.98 272.95,210.57 396.03,314.09 98.9,83.12 322.57,285.37 430.03,328.44l1267.52 -1275.5c-37.7,-103.1 -561.01,-723.72 -638.75,-822.04 55.24,-132.4 262.54,-449.93 388.39,-754.95 59.02,-143.15 107.38,-272.11 154.99,-421.97 44.16,-139.29 78.67,-314.68 130.39,-446.99l1022.7 -102.09 0 -1840.37 -1023.03 -101.67c-95.63,-249.94 -118.05,-464.54 -284.95,-869.05 -126.69,-307.2 -334.49,-625.07 -388.48,-754.79 85.47,-108.47 601.56,-720.78 642.62,-825.9l-1275.58 -1267.44c-88.58,33.58 -681.32,529.69 -821.87,638.42 -101.59,-44.25 -251.46,-140.88 -364.72,-201.67 -122.66,-65.82 -250.62,-130.47 -389.9,-186.89 -397.46,-161.03 -645.22,-198.31 -869.3,-285.04l-102.51 -1022.7 -1833.57 -0.08 -107.55 1022.78c-234.24,90.34 -471.93,124.51 -869.47,285.21 -139.71,56.5 -263.55,122.92 -390.07,187.06 -115.86,58.69 -261.45,159.35 -364.8,201.33 -102.93,-82.78 -722.55,-600.81 -825.9,-642.53l-495.94 505.51 -145.5 -114.6z"/>
   <path class="fil2" d="M4275.49 4028.15l145.5 114.6 495.94 -505.51c103.35,41.73 722.97,559.75 825.9,642.53 103.35,-41.98 248.94,-142.65 364.8,-201.33 126.53,-64.14 250.36,-130.56 390.07,-187.06 397.54,-160.7 635.23,-194.87 869.47,-285.21l107.55 -1022.78 1833.57 0.08 102.51 1022.7c224.08,86.73 471.85,124.01 869.3,285.04 139.29,56.42 267.24,121.07 389.9,186.89 113.26,60.79 263.13,157.42 364.72,201.67 140.55,-108.73 733.29,-604.84 821.87,-638.42l1275.58 1267.44c-41.06,105.12 -557.15,717.42 -642.62,825.9 53.99,129.72 261.78,447.58 388.48,754.79 166.91,404.51 189.33,619.11 284.95,869.05l1023.03 101.67 0 1840.37 -1022.7 102.09c-51.72,132.32 -86.23,307.71 -130.39,446.99 -47.6,149.87 -95.96,278.83 -154.99,421.97 -125.85,305.02 -333.15,622.55 -388.39,754.95 77.75,98.32 601.06,718.94 638.75,822.04l-1267.52 1275.5c-107.47,-43.07 -331.13,-245.33 -430.03,-328.44 -123.08,-103.52 -270.18,-216.11 -396.03,-314.09 -399.05,173.37 -451.95,311.91 -1176.34,543.71 -140.8,45.09 -312.32,77.75 -448.09,129.8l-95.46 1022.78 -1845.4 -0.08 -102.68 -1022.7c-132.49,-51.05 -307.96,-86.98 -446.83,-130.39 -319.8,-100.16 -521.38,-194.62 -812.3,-341.88 -115.86,-58.6 -261.19,-159.18 -364.8,-201.25 -93.78,75.39 -720.03,599.8 -821.53,638l-1275.91 -1267.02c41.22,-101.42 101.42,-154.06 165.82,-231.81 65.49,-78.92 96.3,-121.66 162.12,-198.56 108.05,-126.27 215.77,-265.98 314.51,-395.61 -41.22,-98.65 -141.47,-254.31 -201.08,-365.3 -356.32,-663.86 -292.51,-786.94 -472.35,-1259.54l-1022.86 -100.67 0.08 -1839.69 1022.86 -102.6c51.47,-135.17 85.05,-306.62 129.8,-447.5 47.69,-150.12 96.05,-278.57 155.15,-421.89 57.34,-138.87 121.57,-266.99 187.23,-389.57 59.86,-111.83 159.94,-265.9 201.25,-365.13 -81.61,-107.63 -598.79,-720.28 -638.25,-821.7l504.25 -505.09 -117.37 -140.55 -141.55 -124.85 -744.12 756.13c144.74,220.56 337.34,425.67 506.77,635.98 57.76,71.7 141.81,159.77 184.88,224.08 -8.9,33.33 -327.69,680.99 -411.98,935.04 -17.38,52.22 -33.16,97.22 -53.65,162.88 -71.2,228.53 -124.34,161.54 -338.35,190.84 -275.05,37.61 -550.68,76.65 -807.68,82.36l0 2501.62 984.24 98.23c168.17,24.43 159.27,169.01 209.39,319.8 84.88,254.98 417.61,951.58 418.03,953.1 -39.96,59.61 -120.31,145.16 -173.96,210.99 -174.97,214.68 -371.26,427.43 -523.65,654.96l1761.95 1750.03c298.64,-196.13 561.01,-491.41 859.99,-691.65 33.33,8.9 680.99,327.69 935.04,411.98 419.96,139.45 310.39,-8.31 407.95,915.06 10.16,96.22 26.45,211.32 28.13,284.62l2501.62 0c1.85,-81.27 17.38,-157.93 26.19,-262.54 18.39,-220.14 28.55,-507.86 75.39,-742.44 28.55,-143.07 181.52,-143.74 316.44,-188.65 126.86,-42.23 218.04,-72.29 334.41,-122.58 150.79,-65.15 500.31,-263.8 618.69,-295.45l425.58 344.23c76.15,64.4 129.8,111.66 210.32,174.55 92.94,72.54 134.17,114.6 230.05,178.83l1750.03 -1761.95c-144.74,-220.39 -337.34,-425.67 -506.77,-635.9 -57.76,-71.7 -141.81,-159.77 -184.88,-224.08 17.46,-65.32 108.98,-218.04 144.32,-288.65l267.66 -646.4c17.38,-52.22 33.16,-97.22 53.65,-162.88 9.24,-29.72 16.04,-65.07 29.3,-90.93 55.08,-107.13 198.48,-84.8 309.05,-99.91 85.55,-11.67 201.67,-19.81 261.28,-27.37l546.4 -54.99 0 -2501.62c-81.27,-1.85 -157.93,-17.38 -262.54,-26.19 -79.17,-6.55 -162.12,-15.36 -262.62,-26.03l-390.57 -42.31c-22.67,-1.6 -46.76,-0.5 -68.51,-3.69 -7.47,-1.09 -13.85,-2.01 -20.74,-3.36 -96.3,-19.23 -105.96,-58.27 -135.59,-152.97l-175.64 -497.87c-65.15,-150.79 -263.8,-500.31 -295.45,-618.69 200.41,-299.31 496.19,-565.12 697.61,-865.95l-1761.95 -1750.03c-221.65,143.32 -432.05,334.15 -636.07,506.6 -72.12,60.95 -151.88,136.77 -223.92,185.04 -108.22,-28.88 -463.45,-226.86 -601.98,-288.06 -167.41,-73.97 -438.35,-130.56 -586.87,-206.87 -107.13,-55.08 -84.8,-198.48 -99.91,-309.05 -37.61,-275.05 -76.65,-550.68 -82.36,-807.68l-2501.62 0 -98.23 984.24c-24.43,168.17 -169.01,159.27 -319.8,209.39 -126.86,42.23 -218.04,72.29 -334.41,122.58 -150.79,65.15 -500.31,263.8 -618.69,295.45 -59.61,-39.96 -145.16,-120.31 -210.99,-173.96 -77.91,-63.47 -131.06,-110.57 -211.49,-173.29 -157.93,-123.33 -281.6,-241.97 -443.47,-350.36l-739.76 751.6 114.35 139.79z"/>
   <path class="fil3" d="M7934.65 4258.37c1374.23,-168.76 2675.16,440.78 3414,1210.34 49.2,51.3 78.67,86.98 123.92,141.13 38.7,46.18 75.06,76.91 114.02,125.77 150.45,188.91 279.92,382.09 420.04,614.57 245.66,407.28 440.28,1009.35 504.84,1565.66 282.1,2430.59 -1545.34,4346.61 -3655.55,4587.06 -2437.73,277.73 -4345.77,-1539.21 -4589.75,-3655.46 -101.59,-881.48 97.48,-1808.21 531.79,-2542.17 121.74,-205.7 293.6,-464.79 426.76,-607.94 755.54,-812.3 1505.54,-1291.03 2709.92,-1438.96zm4937.93 4603.35c162.29,-1397.32 -392.09,-2644.27 -1054.68,-3404.68 -52.47,-60.2 -69.35,-100.92 -132.07,-157.34 -70.94,-63.72 -95.54,-79.26 -150.2,-138.45 -636.66,-689.89 -1699.65,-1155.77 -2662.57,-1263.99 -1660.53,-186.64 -3048.11,533.39 -3971.23,1621.4 -521.72,614.83 -902.3,1503.95 -995.33,2370.98 -153.06,1426.96 373.87,2629.91 1053.43,3414.17 52.64,60.87 69.18,101.42 132.07,157.51 73.72,65.82 91.35,73.38 148.02,140.38 105.62,125.01 161.37,157.25 287.64,265.06 615.83,525.92 1508.4,901.54 2370.73,996 1855.14,203.26 3599.97,-772.75 4433.59,-2294.58 276.39,-504.59 463.79,-1044.61 540.61,-1706.45z"/>
   <path class="fil4" d="M9651.51 7538.7c0,-49.28 10.91,-60.2 60.28,-60.2 222.74,0 300.74,-28.63 300.74,60.2 0,222.83 28.63,300.82 -60.2,300.82 -362.95,0 -300.82,62.13 -300.82,-300.82zm0 -721.62c0,-49.28 10.91,-60.2 60.28,-60.2 222.74,0 300.74,-28.63 300.74,60.2 0,222.83 28.63,300.82 -60.2,300.82 -362.95,0 -300.82,62.13 -300.82,-300.82zm-2886.07 2092.75l1452.82 11.92 -9.74 371.52 -1442.82 11.75 0 316.19 1442.82 11.67 11.92 371.1 2117.18 0.25 0 -3599.88 -1227.22 -8.4 -1.09 1443.58 -1442.15 0 -5.37 -1407.73 -896.59 0.08 0.25 2477.95z"/>
   <path class="fil2" d="M8485 12157.17c-640.27,0 -1185.24,-98.73 -1676.06,-344.48 -311.91,-156.16 -582.59,-307.54 -842.44,-528.69l-241.97 -215.02c-86.48,-86.65 -133.58,-152.13 -216.19,-240.88 -176.14,-189.07 -431.46,-600.97 -538.42,-832.7 -678.3,-1468.77 -377.31,-3171.11 742.61,-4291.03 623.56,-623.64 1618.88,-1100.27 2531.93,-1100.27 952.59,0 1611.08,189.66 2333.45,697.36 417.27,293.27 616,520.46 910.28,917.92 140.71,190.08 221.23,358.84 332.64,581.41 629.44,1257.11 375.38,2939.63 -528.69,4002.13 -247.59,291 -409.46,436.5 -728.25,666.88 -539.94,390.15 -1329.73,687.37 -2078.89,687.37zm-550.35 -7898.8c-1204.38,147.93 -1954.38,626.67 -2709.92,1438.96 -133.16,143.15 -305.02,402.24 -426.76,607.94 -434.32,733.96 -633.38,1660.7 -531.79,2542.17 243.98,2116.25 2152.02,3933.2 4589.75,3655.46 2110.21,-240.46 3937.65,-2156.47 3655.55,-4587.06 -64.56,-556.31 -259.18,-1158.37 -504.84,-1565.66 -140.13,-232.48 -269.59,-425.67 -420.04,-614.57 -38.96,-48.86 -75.31,-79.59 -114.02,-125.77 -45.25,-54.15 -74.72,-89.84 -123.92,-141.13 -738.83,-769.56 -2039.77,-1379.1 -3414,-1210.34z"/>
   <path class="fil2" d="M8027.93 6396.28l721.71 0 0 1082.22 -721.71 0 0 -1082.22zm-168.34 4149.22c-37.95,-59.69 -24.1,-24.52 -24.1,-168.34l-1082.39 0c-141.81,0 -268.92,16.04 -348.68,-24.1 -0.17,-433.06 -24.1,-3829.68 17.97,-3956.96l956.2 -1.26c208.38,-1.18 252.55,-31.74 283.19,36.94l5.37 1407.73 1442.15 0 1.09 -1443.58 1227.22 8.4c53.31,61.37 39.04,112.25 37.28,244.15l-1.76 3701.56c-110.24,62.47 -1305.05,27.12 -1431.07,27.12 0,24.01 3.11,76.65 1.01,97.22 -13.6,131.23 7.39,19.98 -25.1,71.11l0 192.43 1828.11 0 0 -4714.6 -4714.6 0 0 4714.6 1828.11 0 0 -192.43z"/>
   <path class="fil5" d="M6404.43 10353.07l1449.29 11.75 5.88 180.68 336.76 0 12.01 -190.33 366.98 9.66 5.88 180.68 336.76 0 11.92 -191.17 1443.24 -4.28 1.76 -3701.56c1.76,-131.9 16.04,-182.78 -37.28,-244.15l0 3599.88 -2117.18 -0.25 -24.1 -0.25 -1430.65 0 0 -348.18 0 -34.34 0 -316.19 0 -34.34 0 -336.76 -0.25 -24.1 -0.25 -2477.95 896.59 -0.08c-30.64,-68.68 -74.81,-38.12 -283.19,-36.94l-956.2 1.26c-42.06,127.28 -18.14,3523.9 -17.97,3956.96z"/>
   <polygon class="fil6" points="8027.93,7478.5 8749.63,7478.5 8749.63,6396.28 8027.93,6396.28 "/>
   <polygon class="fil2" points="8196.35,10003.72 8196.35,9655.54 6765.7,9655.54 6765.7,10003.72 "/>
   <polygon class="fil2" points="6765.7,9270.68 8196.35,9270.68 8196.35,8933.92 8148.24,8933.92 6765.7,8933.92 "/>
   <path class="fil2" d="M8196.35 10545.5l0 192.43 384.86 0 0 -192.43c-37.95,-59.69 -24.01,-24.52 -24.01,-168.34l-336.76 0c0,224.5 -2.01,133.49 -24.1,168.34z"/>
   <path class="fil6" d="M9651.51 6817.08c0,362.95 -62.13,300.82 300.82,300.82 88.83,0 60.2,-78 60.2,-300.82 0,-88.83 -78,-60.2 -300.74,-60.2 -49.37,0 -60.28,10.91 -60.28,60.2z"/>
   <path class="fil6" d="M9651.51 7538.7c0,362.95 -62.13,300.82 300.82,300.82 88.83,0 60.2,-78 60.2,-300.82 0,-88.83 -78,-60.2 -300.74,-60.2 -49.37,0 -60.28,10.91 -60.28,60.2z"/>
   <polygon class="fil7" points="6765.7,9270.68 6765.7,9305.02 8208.52,9293.26 8218.26,8921.75 6765.45,8909.83 6765.7,8933.92 8148.24,8933.92 8196.35,8933.92 8196.35,9270.68 "/>
   <polygon class="fil7" points="8196.35,10003.72 8220.44,10003.97 8208.52,9632.88 6765.7,9621.21 6765.7,9655.54 8196.35,9655.54 "/>
   <path class="fil8" d="M8917.97 10545.5c32.49,-51.13 11.5,60.11 25.1,-71.11 2.1,-20.57 -1.01,-73.21 -1.01,-97.22 126.02,0 1320.83,35.35 1431.07,-27.12l-1443.24 4.28 -11.92 191.17z"/>
   <path class="fil8" d="M7859.59 10545.5l-5.88 -180.68 -1449.29 -11.75c79.76,40.13 206.87,24.1 348.68,24.1l1082.39 0c0,143.82 -13.85,108.64 24.1,168.34z"/>
   <path class="fil8" d="M8196.35 10545.5c22.08,-34.84 24.1,56.17 24.1,-168.34l336.76 0c0,143.82 -13.94,108.64 24.01,168.34l-5.88 -180.68 -366.98 -9.66 -12.01 190.33z"/>
  </g>
 </g>
</svg>
