<?xml version="1.0" encoding="UTF-8"?>
<!DOCTYPE svg PUBLIC "-//W3C//DTD SVG 1.1//EN" "http://www.w3.org/Graphics/SVG/1.1/DTD/svg11.dtd">
<!-- Creator: CorelDRAW 2019 (64-Bit) -->
<svg xmlns="http://www.w3.org/2000/svg" xml:space="preserve" width="19.6664mm" height="19.6664mm" version="1.1" style="shape-rendering:geometricPrecision; text-rendering:geometricPrecision; image-rendering:optimizeQuality; fill-rule:evenodd; clip-rule:evenodd"
viewBox="0 0 464.45 464.45"
 xmlns:xlink="http://www.w3.org/1999/xlink"
 xmlns:xodm="http://www.corel.com/coreldraw/odm/2003">
 <defs>
  <style type="text/css">
   <![CDATA[
    .fil0 {fill:none}
    .fil3 {fill:#2B2A29}
    .fil1 {fill:#0164A7}
    .fil4 {fill:#E31E24;fill-rule:nonzero}
    .fil2 {fill:white;fill-rule:nonzero}
   ]]>
  </style>
 </defs>
 <g id="Layer_x0020_1">
  <metadata id="CorelCorpID_0Corel-Layer"/>
  <rect class="fil0" width="464.45" height="464.45"/>
  <rect class="fil1" x="60.22" y="273.58" width="364.92" height="145.47"/>
  <path class="fil2" d="M93.73 290.34l37.4 0c7.42,0 12.93,0.3 16.57,0.91 3.66,0.63 6.9,1.92 9.77,3.85 2.87,1.96 5.27,4.55 7.18,7.79 1.92,3.24 2.87,6.9 2.87,10.93 0,4.35 -1.18,8.38 -3.53,12.02 -2.35,3.66 -5.55,6.38 -9.58,8.21 5.68,1.68 10.04,4.51 13.11,8.51 3.05,4.01 4.57,8.71 4.57,14.13 0,4.27 -0.98,8.4 -2.96,12.43 -1.98,4.03 -4.68,7.25 -8.12,9.67 -3.42,2.39 -7.64,3.88 -12.67,4.44 -3.13,0.33 -10.73,0.54 -22.77,0.63l-31.85 0 0 -93.52zm18.94 15.54l0 21.55 12.37 0c7.34,0 11.91,-0.11 13.69,-0.33 3.22,-0.37 5.77,-1.48 7.62,-3.33 1.85,-1.85 2.77,-4.27 2.77,-7.27 0,-2.9 -0.81,-5.22 -2.39,-7.03 -1.59,-1.81 -3.96,-2.9 -7.1,-3.27 -1.87,-0.22 -7.25,-0.33 -16.11,-0.33l-10.84 0zm0 37.1l0 25.08 17.5 0c6.79,0 11.13,-0.19 12.95,-0.56 2.81,-0.52 5.09,-1.76 6.86,-3.75 1.76,-2 2.65,-4.64 2.65,-7.97 0,-2.83 -0.67,-5.2 -2.05,-7.16 -1.35,-1.96 -3.33,-3.4 -5.9,-4.29 -2.57,-0.89 -8.16,-1.35 -16.76,-1.35l-15.26 0zm120.06 40.88l0 -10.15c-2.48,3.61 -5.73,6.49 -9.75,8.64 -4.03,2.13 -8.27,3.2 -12.74,3.2 -4.57,0 -8.66,-1 -12.28,-3 -3.63,-2 -6.25,-4.83 -7.86,-8.45 -1.63,-3.63 -2.44,-8.64 -2.44,-15.04l0 -43 17.89 0 0 31.22c0,9.56 0.33,15.39 1,17.55 0.65,2.16 1.85,3.88 3.61,5.12 1.74,1.26 3.96,1.89 6.66,1.89 3.07,0 5.81,-0.85 8.25,-2.52 2.44,-1.68 4.09,-3.77 4.99,-6.27 0.89,-2.5 1.35,-8.6 1.35,-18.33l0 -28.65 17.89 0 0 67.79 -16.59 0zm28.58 -19.07l18.03 -2.74c0.76,3.46 2.31,6.1 4.66,7.88 2.33,1.81 5.62,2.7 9.82,2.7 4.64,0 8.12,-0.85 10.47,-2.55 1.57,-1.2 2.35,-2.81 2.35,-4.81 0,-1.35 -0.44,-2.48 -1.28,-3.37 -0.89,-0.85 -2.9,-1.66 -5.99,-2.37 -14.48,-3.2 -23.64,-6.12 -27.52,-8.75 -5.38,-3.68 -8.06,-8.77 -8.06,-15.28 0,-5.9 2.33,-10.84 6.97,-14.85 4.64,-4.01 11.82,-6.01 21.55,-6.01 9.27,0 16.17,1.52 20.68,4.55 4.51,3.05 7.62,7.53 9.32,13.48l-16.85 3.14c-0.72,-2.66 -2.11,-4.7 -4.14,-6.12 -2.02,-1.42 -4.92,-2.11 -8.69,-2.11 -4.74,0 -8.14,0.65 -10.21,1.98 -1.37,0.94 -2.05,2.16 -2.05,3.64 0,1.28 0.59,2.37 1.79,3.26 1.63,1.2 7.23,2.87 16.81,5.05 9.58,2.18 16.26,4.83 20.05,7.99 3.77,3.18 5.64,7.64 5.64,13.35 0,6.2 -2.59,11.56 -7.79,16.02 -5.18,4.46 -12.87,6.7 -23.05,6.7 -9.23,0 -16.55,-1.87 -21.94,-5.59 -5.38,-3.72 -8.9,-8.77 -10.56,-15.17zm70.43 -48.72l19.07 0 16.26 48.09 15.87 -48.09 18.55 0 -23.9 65.24 -4.31 11.78c-1.59,3.94 -3.09,6.94 -4.53,9.03 -1.41,2.07 -3.07,3.77 -4.92,5.05 -1.85,1.31 -4.14,2.31 -6.86,3.03 -2.7,0.72 -5.77,1.09 -9.19,1.09 -3.44,0 -6.84,-0.37 -10.17,-1.09l-1.57 -13.98c2.81,0.54 5.36,0.83 7.62,0.83 4.18,0 7.27,-1.22 9.27,-3.68 2,-2.46 3.55,-5.59 4.61,-9.38l-25.82 -67.92z"/>
  <g id="_1983391888144">
   <path class="fil3" d="M41.9 193.46l-2.39 0 0 -6.22 2.39 0c2.16,0 3.29,1.09 3.29,3.16 0,2.07 -1.14,3.05 -3.29,3.05zm-0.45 -9.6l-6.25 0 0 21.93 4.31 0 0 -8.83 1.93 0c5.45,0 8.06,-2.4 8.06,-6.55 0,-4.14 -2.61,-6.55 -8.06,-6.55z"/>
   <path class="fil3" d="M67.92 198.92c0,2.51 -1.02,3.16 -2.84,3.16 -1.7,0 -2.84,-0.65 -2.84,-3.16l0 -8.94c0,-2.4 1.14,-3.06 2.84,-3.06 1.82,0 2.84,0.66 2.84,3.06l0 8.94zm-2.84 -15.71c-4.2,0 -7.16,1.96 -7.16,7.31l0 7.85c0,5.46 2.95,7.42 7.16,7.42 4.32,0 7.27,-1.96 7.27,-7.42l0 -7.85c0,-5.35 -2.95,-7.31 -7.27,-7.31z"/>
   <polygon class="fil3" points="98.13,198.16 98.01,198.16 94.83,183.86 90.63,183.86 87.56,198.16 87.45,198.16 84.38,183.86 80.3,183.86 85.07,205.79 89.27,205.79 92.79,190.74 95.97,205.79 100.17,205.79 105.28,183.86 101.19,183.86 "/>
   <polygon class="fil3" points="118,196.3 123.79,196.3 123.79,192.59 118,192.59 118,187.57 125.61,187.57 125.61,183.86 113.69,183.86 113.69,205.79 125.95,205.79 125.95,202.08 118,202.08 "/>
   <path class="fil3" d="M141.85 193.36l-2.27 0 0 -6.11 2.27 0c1.93,0 3.07,0.98 3.07,3.05 0,2.18 -1.14,3.05 -3.07,3.05zm7.38 -2.94c0,-4.14 -2.5,-6.55 -7.72,-6.55l-6.36 0 0 21.93 4.43 0 0 -8.94 2.05 0 3.86 8.94 4.66 0 -4.32 -9.82c2.5,-0.87 3.41,-2.84 3.41,-5.56z"/>
   <path class="fil3" d="M182.74 198.92c0,2.51 -1.14,3.16 -2.95,3.16 -1.7,0 -2.84,-0.65 -2.84,-3.16l0 -8.94c0,-2.4 1.14,-3.06 2.84,-3.06 1.82,0 2.95,0.66 2.95,3.06l0 8.94zm-2.95 -15.71c-4.2,0 -7.16,1.96 -7.16,7.31l0 7.85c0,5.46 2.95,7.42 7.16,7.42 4.31,0 7.27,-1.96 7.27,-7.42l0 -7.85c0,-5.35 -2.95,-7.31 -7.27,-7.31z"/>
   <polygon class="fil3" points="196.26,205.79 200.69,205.79 200.69,196.3 206.14,196.3 206.14,192.59 200.69,192.59 200.69,187.57 207.73,187.57 207.73,183.86 196.26,183.86 "/>
   <path class="fil3" d="M234.65 189.1c0,-1.53 0.79,-2.4 2.39,-2.4 1.48,0 2.5,0.87 3.18,2.94l3.98 -1.09c-0.8,-3.16 -3.18,-5.34 -7.04,-5.34 -4.54,0 -6.93,2.4 -6.93,6.11 0,6.22 9.77,6.22 9.77,10.37 0,1.64 -1.14,2.62 -2.61,2.62 -1.36,0 -2.95,-0.98 -3.41,-3.6l-4.31 0.87c1.14,4.36 3.86,6.22 7.5,6.22 4.54,0 7.27,-2.51 7.27,-6.33 0,-6.87 -9.77,-7.09 -9.77,-10.37z"/>
   <polygon class="fil3" points="253.16,205.79 257.59,205.79 257.59,183.86 253.16,183.86 "/>
   <polygon class="fil3" points="276.56,198.27 276.44,198.27 272.58,183.86 266.45,183.86 266.45,205.79 270.2,205.79 270.2,188.56 274.85,205.79 278.14,205.79 282.8,188.56 282.92,188.56 282.92,205.79 286.66,205.79 286.66,183.86 280.53,183.86 "/>
   <path class="fil3" d="M301.88 193.46l-2.39 0 0 -6.22 2.39 0c2.16,0 3.29,1.09 3.29,3.16 0,2.07 -1.13,3.05 -3.29,3.05zm-0.46 -9.6l-6.25 0 0 21.93 4.32 0 0 -8.83 1.93 0c5.45,0 8.06,-2.4 8.06,-6.55 0,-4.14 -2.61,-6.55 -8.06,-6.55z"/>
   <polygon class="fil3" points="321.08,183.86 316.65,183.86 316.65,205.79 328.01,205.79 328.01,202.08 321.08,202.08 "/>
   <polygon class="fil3" points="335.73,205.79 340.05,205.79 340.05,183.86 335.73,183.86 "/>
   <path class="fil3" d="M355.49 183.21c-4.2,0 -7.15,1.96 -7.15,7.31l0 7.85c0,5.46 2.95,7.42 7.15,7.42 4.32,0 7.27,-1.96 7.27,-7.42l0 -0.87 -4.32 0 0 1.42c0,2.51 -1.14,3.16 -2.95,3.16 -1.7,0 -2.84,-0.65 -2.84,-3.16l0 -8.94c0,-2.4 1.14,-3.06 2.84,-3.06 1.82,0 2.95,0.66 2.95,3.06l0 0.65 4.32 0 0 -0.11c0,-5.35 -2.95,-7.31 -7.27,-7.31z"/>
   <polygon class="fil3" points="372.3,205.79 376.62,205.79 376.62,183.86 372.3,183.86 "/>
   <polygon class="fil3" points="384.57,187.57 389.68,187.57 389.68,205.79 393.99,205.79 393.99,187.57 399.1,187.57 399.1,183.86 384.57,183.86 "/>
   <polygon class="fil3" points="417.73,183.86 413.98,192.7 410.12,183.86 405.46,183.86 411.71,196.96 411.71,205.79 416.14,205.79 416.14,196.96 422.39,183.87 422.39,183.86 "/>
   <path class="fil4" d="M212.82 96.49c0.38,1.85 0.44,4.4 -1.36,6.35 -2.65,2.99 -10.37,10.18 -10.37,10.18 0,0 -3.11,1.88 -1.61,3.98 0.3,0.47 0.8,0.65 1.39,0.65 0.59,-0.8 1.45,-1.32 1.45,-1.32 0,0 7.72,-7.19 10.48,-10.18 2.65,-2.99 1.04,-7.41 0.58,-8.63 -0.1,-0.25 -0.29,-0.6 -0.56,-1.04z"/>
   <path class="fil4" d="M196.61 95.42c-1.61,0.77 -8.98,6.42 -11.75,8.52 -2.65,2.1 -9.44,8.08 -9.44,8.08 0,0 -3.69,3.21 -2.42,4.87 0.47,0.62 0.95,0.92 1.46,1.01 0.77,-1.33 2.19,-2.56 2.19,-2.56 0,0 6.79,-5.97 9.44,-8.08 2.77,-2.21 10.14,-7.74 11.75,-8.52 1.25,-0.6 2.23,-1.2 3.3,-0.82 0.46,-0.71 0.81,-1.69 -0.27,-2.72 -1.5,-1.33 -2.65,-0.55 -4.26,0.22z"/>
   <path class="fil4" d="M224.25 121.2c-1.61,-2.77 -1.73,-4.75 -3.57,-3.43 -1.84,1.22 -11.4,6.86 -16.47,8.3 -5.18,1.44 -6.45,2.1 -9.33,1.66 -2.99,-0.55 -6.22,-1.77 -7.25,-3.54 -1.15,-1.77 -1.38,-2.21 -2.65,-1.11 -1.27,0.99 -4.95,3.87 -7.72,3.54 -2.88,-0.33 -10.02,-1.99 -13.94,-9.29 -0.07,-0.14 -0.13,-0.26 -0.2,-0.39 0.3,1.11 0.8,2.33 1.54,3.71 3.92,7.19 11.06,8.96 13.82,9.29 2.77,0.22 6.45,-2.54 7.72,-3.65 1.38,-0.99 1.5,-0.55 2.65,1.22 1.15,1.77 4.26,2.99 7.25,3.43 2.88,0.55 4.15,-0.11 9.33,-1.66 5.07,-1.44 14.63,-6.97 16.47,-8.3 1.84,-1.22 2.07,0.77 3.57,3.54 1.61,2.77 5.41,3.76 8.75,3.98 3.46,0.33 5.07,-0.55 7.26,-1.44 2.19,-0.99 8.06,-3.87 9.79,-4.98 1.73,-1.11 2.07,-1.22 2.77,0.44 0.69,1.77 0.81,3.1 6.1,6.75 5.18,3.54 13.94,1.55 16.01,0.77 1.96,-0.66 5.76,-2.43 6.68,-2.99 0.92,-0.66 1.84,1 3.8,2.99 1.31,1.19 3.4,1.58 5.37,1.29 1.51,-1.94 3.19,-4.17 3.19,-4.17 0,0 1.27,-1.88 -1.27,-0.22 -2.53,1.55 -6.56,1.66 -8.52,-0.22 -2.07,-1.99 -2.88,-3.54 -3.8,-2.99 -0.92,0.55 -4.72,2.43 -6.8,3.1 -1.96,0.66 -10.71,2.65 -15.89,-0.89 -5.3,-3.54 -5.41,-4.98 -6.1,-6.64 -0.69,-1.77 -1.04,-1.66 -2.77,-0.55 -1.73,1.22 -7.6,3.98 -9.79,4.98 -2.19,0.99 -3.8,1.77 -7.26,1.55 -3.34,-0.33 -7.14,-1.33 -8.75,-4.1z"/>
   <path class="fil4" d="M340.01 101.06c-2.65,2.43 -11.63,10.4 -15.09,13.72 -3.46,3.21 -13.94,13.94 -15.78,16.04 -1.84,2.21 -6.8,6.86 -4.73,7.08 0.37,0.04 1.16,0.17 2.23,0.36 1.2,-1.45 2.83,-3.1 3.72,-4.12 1.84,-2.1 12.32,-12.84 15.78,-16.15 3.46,-3.21 12.44,-11.28 15.09,-13.72 2.22,-1.95 -0.25,-3.04 -1.11,-3.34 -0.04,0.04 -0.08,0.09 -0.13,0.13z"/>
   <path class="fil4" d="M311.9 94.21c-2.76,2.65 -9.22,9.29 -10.6,10.95 -1.38,1.66 -6.91,7.74 -7.95,9.63 -1.04,1.77 -2.42,3.87 -1.04,4.65 0.32,0.21 0.77,0.3 1.3,0.29 0.29,-0.56 0.64,-1.15 0.96,-1.73 1.04,-1.77 6.57,-7.85 7.95,-9.51 1.38,-1.66 7.83,-8.3 10.6,-11.06 1.63,-1.63 0.47,-2.64 -1.18,-3.27 -0.02,0.02 -0.03,0.04 -0.05,0.06z"/>
   <path class="fil4" d="M124.58 62.45c0,0 2.88,2.99 4.15,4.09 1.15,1.22 3.22,3.98 6.1,2.77 2.99,-1.22 18.08,-2.77 23.04,-3.32 2.1,-0.23 4.09,-0.25 5.69,-0.19 1.38,-1.82 2.29,-3.02 2.29,-3.02 0,0 -4.26,-0.66 -9.22,-0.11 -4.95,0.66 -20.04,2.1 -23.04,3.43 -2.88,1.22 -4.95,-1.66 -6.1,-2.77 -0.7,-0.68 -1.91,-1.9 -2.84,-2.86 -1.07,0.79 -0.08,1.97 -0.08,1.97z"/>
   <path class="fil4" d="M281.84 145.21c1.96,-1.77 -1.15,-1.33 -2.19,-1.55 -1.04,-0.11 -20.85,-1.22 -26.72,-1.11 -5.88,0.11 -26.49,0.11 -33.86,0.55 -7.37,0.55 -34.44,2.99 -41.58,4.2 -7.14,1.11 -35.82,5.31 -39.74,6.09 -3.92,0.77 -11.63,2.1 -11.63,2.1 0,0 -3.92,1 -7.72,-0.77 -1.41,-0.65 -3.12,-1.4 -4.47,-2.16 -3.29,1.63 2.19,3.84 5.7,5.47 3.92,1.66 7.72,0.77 7.72,0.77 0,0 7.72,-1.44 11.63,-2.21 3.92,-0.77 32.71,-4.87 39.85,-6.09 7.14,-1.11 34.09,-3.65 41.46,-4.09 7.37,-0.44 28.11,-0.44 33.86,-0.55 5.55,-0.1 23.63,0.78 26.39,1.06 0.5,-0.77 0.94,-1.37 1.29,-1.73z"/>
   <path class="fil4" d="M345.62 151.84c-0.6,1.26 -2.12,4.31 -2.85,4.66 -0.92,0.33 -2.53,0.33 -6.1,-1.11 -3.57,-1.44 -20.04,-5.64 -24.53,-6.42 -4.38,-0.89 -14.51,-2.65 -14.51,-2.65 0,0 -1.27,-0.77 -3.34,2.54 -2.19,3.21 -8.64,12.61 -8.64,12.61 0,0 -0.46,1.33 -1.61,1.33 -1.27,0 -6.57,-0.33 -8.52,-1.44 -0.01,-0 -0.01,-0.01 -0.02,-0.01 -0.04,0.08 -0.09,0.17 -0.13,0.23 -1.15,2.1 -0.69,1.99 1.38,3.1 1.96,1.11 7.25,1.44 8.52,1.44 1.15,0 1.61,-1.33 1.61,-1.33 0,0 6.57,-9.4 8.64,-12.72 2.08,-3.21 3.34,-2.43 3.34,-2.43 0,0 10.14,1.66 14.51,2.54 4.49,0.89 20.96,5.09 24.53,6.53 3.69,1.44 5.3,1.44 6.22,1 0.81,-0.33 3.11,-5.09 3.11,-5.09 0.14,-1.43 -0.69,-2.25 -1.6,-2.77z"/>
   <path class="fil4" d="M302.8 73.41c-2.88,2.1 -17.74,13.83 -21.77,18.14 -3.92,4.31 -11.98,13.27 -15.09,17.26 -2.99,4.09 -4.95,5.97 -2.65,8.63 0.11,0.13 0.22,0.25 0.33,0.36 0.35,-1.53 1.83,-3.16 3.67,-5.67 2.99,-4.09 11.06,-12.94 15.09,-17.26 4.03,-4.31 18.77,-16.04 21.65,-18.14 2.88,-2.1 1.15,-2.88 1.15,-2.88 0,0 -0.77,-0.45 -1.72,-0.97 -0.19,0.17 -0.4,0.34 -0.66,0.53z"/>
   <path class="fil4" d="M273.89 69.64c-3.11,2.54 -13.94,11.62 -16.59,14.38 -2.77,2.77 -10.6,10.62 -13.13,13.5 -2.53,2.88 -9.68,11.39 -10.71,13.06 -1.15,1.66 -1.73,3.54 0,4.65 0.12,0.09 0.25,0.15 0.38,0.21 0.19,-0.51 0.49,-1.03 0.85,-1.54 1.15,-1.66 8.18,-10.18 10.71,-13.06 2.53,-2.88 10.37,-10.73 13.13,-13.5 2.65,-2.88 13.48,-11.95 16.7,-14.38 2.81,-2.22 0.11,-3.68 -0.63,-4.02 -0.19,0.22 -0.41,0.45 -0.72,0.7z"/>
   <path class="fil4" d="M218.49 61.9c0,0 1.15,2.1 -2.88,1.77 -4.03,-0.33 -10.48,-0.55 -14.98,-0.89 -4.38,-0.33 -15.09,-1.11 -16.7,-0.99 -1.61,0.11 -1.96,0 -2.88,1.33 -0.92,1.22 -5.18,6.75 -6.22,8.08 -1.04,1.33 -5.53,7.19 -9.33,12.28 -3.8,5.09 -8.64,11.62 -12.9,18.36 -4.26,6.75 -8.06,12.95 -9.67,15.71 -1.61,2.77 -2.3,4.53 -2.65,5.2 -0.23,0.66 -0.58,1.88 -2.42,1.99 -1.96,0 -10.94,-0.22 -10.94,-0.22 0,0 -0.25,0.01 -0.58,-0.03 -1.59,3.53 1.81,3.24 1.81,3.24 0,0 8.98,0.33 10.94,0.22 1.84,-0.11 2.19,-1.22 2.53,-1.88 0.23,-0.66 0.92,-2.43 2.53,-5.2 1.61,-2.88 5.53,-9.07 9.68,-15.82 4.26,-6.75 9.1,-13.17 12.9,-18.26 3.8,-5.2 8.29,-10.95 9.33,-12.28 1.04,-1.44 5.3,-6.86 6.22,-8.19 0.92,-1.22 1.38,-1.11 2.88,-1.22 1.61,-0.11 12.33,0.66 16.7,0.99 4.49,0.22 11.06,0.55 14.97,0.89 4.03,0.22 2.88,-1.77 2.88,-1.77 0,0 0.23,-2.54 -0.92,-5.42 -0.2,-0.48 -0.4,-0.86 -0.59,-1.17 0.41,1.86 0.28,3.27 0.28,3.27z"/>
   <path class="fil3" d="M342.66 147.75c0.92,0.55 3.57,1.22 3.22,3.54 0,0 -2.19,4.76 -3.11,5.2 -0.92,0.33 -2.53,0.33 -6.1,-1.11 -3.57,-1.44 -20.04,-5.64 -24.53,-6.42 -4.38,-0.89 -14.51,-2.65 -14.51,-2.65 0,0 -1.27,-0.77 -3.34,2.54 -2.19,3.21 -8.64,12.61 -8.64,12.61 0,0 -0.46,1.33 -1.61,1.33 -1.27,0 -6.57,-0.33 -8.52,-1.44 -2.07,-1 -2.53,-0.89 -1.38,-3.1 1.27,-2.1 5.88,-11.17 7.72,-13.06 1.96,-1.77 -1.15,-1.33 -2.19,-1.55 -1.04,-0.11 -20.85,-1.22 -26.72,-1.11 -5.88,0.11 -26.49,0.11 -33.86,0.55 -7.37,0.55 -34.44,2.99 -41.58,4.2 -7.14,1.11 -35.82,5.31 -39.74,6.09 -3.92,0.77 -11.63,2.1 -11.63,2.1 0,0 -3.92,1 -7.72,-0.77 -3.8,-1.77 -9.9,-4.2 -4.72,-5.75 5.3,-1.66 30.75,-6.75 38.7,-7.97 7.95,-1.11 32.71,-4.76 43.19,-5.31 10.37,-0.55 38.47,-2.1 49.07,-1.99 10.48,0.11 25.11,0.77 31.33,1.22 6.22,0.44 10.37,0.77 11.52,0.99 1.27,0.22 1.38,-0.66 2.53,-2.1 1.27,-1.44 5.18,-6.64 5.18,-6.64 0,0 1.27,-1.88 -1.27,-0.22 -2.53,1.55 -6.56,1.66 -8.52,-0.22 -2.07,-1.99 -2.88,-3.54 -3.8,-2.99 -0.92,0.55 -4.72,2.43 -6.8,3.1 -1.96,0.66 -10.71,2.65 -15.89,-0.89 -5.3,-3.54 -5.41,-4.98 -6.1,-6.64 -0.69,-1.77 -1.04,-1.66 -2.77,-0.55 -1.73,1.22 -7.6,3.98 -9.79,4.98 -2.19,0.99 -3.8,1.77 -7.26,1.55 -3.34,-0.33 -7.14,-1.33 -8.75,-4.1 -1.61,-2.77 -1.73,-4.75 -3.57,-3.43 -1.84,1.22 -11.4,6.86 -16.47,8.3 -5.18,1.44 -6.45,2.1 -9.33,1.66 -2.99,-0.55 -6.22,-1.77 -7.25,-3.54 -1.15,-1.77 -1.38,-2.21 -2.65,-1.11 -1.27,0.99 -4.95,3.87 -7.72,3.54 -2.88,-0.33 -10.02,-1.99 -13.94,-9.29 -3.92,-7.19 -1.04,-10.29 2.42,-13.83 3.57,-3.65 9.79,-8.96 9.79,-8.96 0,0 7.72,-5.64 10.37,-6.97 2.65,-1.22 6.68,-3.65 9.45,-3.87 2.65,-0.11 6.57,0.11 10.37,3.1 3.8,2.99 5.88,6.31 6.45,7.52 0.46,1.11 2.07,5.53 -0.69,8.52 -2.65,2.99 -10.37,10.18 -10.37,10.18 0,0 -3.11,1.88 -1.61,3.98 1.38,2.1 6.45,-1.33 8.06,-2.55 1.73,-1.11 10.6,-8.74 13.36,-11.28 2.65,-2.66 19.93,-19.47 21.42,-20.91 1.5,-1.55 15.78,-15.93 17.97,-17.26 2.07,-1.33 2.88,-2.32 6.68,-1.55 3.8,0.77 6.1,2.1 6.1,2.1 0,0 4.03,1.55 0.81,4.09 -3.11,2.54 -13.94,11.62 -16.59,14.38 -2.77,2.77 -10.6,10.62 -13.13,13.5 -2.53,2.88 -9.68,11.39 -10.71,13.06 -1.15,1.66 -1.73,3.54 0,4.65 1.73,1.22 4.72,-0.11 7.95,-2.65 3.22,-2.66 12.55,-10.73 15.89,-14.05 3.22,-3.32 21.19,-20.36 22.81,-21.68 1.61,-1.44 9.9,-8.08 9.9,-8.08 0,0 1.04,-1.44 3.46,-1.44 2.42,0 4.84,0.44 6.34,1.11 1.5,0.55 4.15,2.21 4.15,2.21 0,0 1.73,0.66 -1.15,2.77 -2.88,2.1 -17.74,13.83 -21.77,18.14 -3.92,4.31 -11.98,13.27 -15.09,17.26 -2.99,4.09 -4.95,5.97 -2.65,8.63 2.3,2.77 5.07,2.1 6.45,1.66 1.38,-0.44 5.99,-3.76 9.33,-7.19 3.34,-3.32 13.82,-14.49 14.86,-15.93 1.15,-1.33 4.95,-5.2 4.95,-5.2 0,0 0.81,-1.55 3,-1.55 2.19,0 3.57,0.33 5.76,0.77 2.19,0.55 6.91,1.44 4.26,4.2 -2.76,2.65 -9.22,9.29 -10.6,10.95 -1.38,1.66 -6.91,7.74 -7.95,9.63 -1.04,1.77 -2.42,3.87 -1.04,4.65 1.38,0.89 4.95,-0.33 8.41,-2.32 3.57,-1.88 8.75,-5.2 13.25,-9.18 4.49,-4.09 11.75,-10.62 11.75,-10.62 0,0 1.15,-2.77 6.45,-1.55 5.18,1.11 6.45,1.77 6.45,1.77 0,0 4.03,1.11 1.38,3.54 -2.65,2.43 -11.63,10.4 -15.09,13.72 -3.46,3.21 -13.94,13.94 -15.78,16.04 -1.84,2.21 -6.8,6.86 -4.73,7.08 2.07,0.22 17.62,3.32 21.31,4.31 3.68,0.89 15.89,5.09 16.93,5.53l0 0zm-160.21 -96.36l-2.7 0c-8.23,0.12 -27.93,1.25 -32.32,1.66 -4.84,0.44 -20.16,3.1 -22.92,3.76 -2.77,0.66 -1.15,2.32 -1.15,2.32 0,0 2.88,2.99 4.15,4.2 1.15,1.11 3.23,3.98 6.1,2.77 2.99,-1.33 18.08,-2.77 23.04,-3.43 4.95,-0.55 9.22,0.11 9.22,0.11 0,0 -13.13,17.26 -15.2,20.14 -2.19,2.77 -13.36,18.26 -15.55,21.46 -2.19,3.32 -7.37,11.95 -9.79,16.15 -2.3,4.2 1.61,3.98 1.61,3.98 0,0 8.99,0.22 10.94,0.22 1.84,-0.11 2.19,-1.33 2.42,-1.99 0.34,-0.66 1.04,-2.43 2.65,-5.2 1.61,-2.77 5.41,-8.96 9.67,-15.71 4.26,-6.75 9.1,-13.27 12.9,-18.36 3.8,-5.09 8.29,-10.95 9.33,-12.28 1.04,-1.33 5.3,-6.86 6.22,-8.08 0.92,-1.33 1.27,-1.22 2.88,-1.33 1.61,-0.11 12.33,0.66 16.7,0.99 4.49,0.33 10.94,0.55 14.98,0.89 4.03,0.33 2.88,-1.77 2.88,-1.77 0,0 0.23,-2.54 -0.92,-5.31 -1.27,-2.88 -2.3,-2.43 -2.3,-2.43 -5.59,-1.61 -26.03,-2.7 -32.81,-2.76zm8.4 57.75c2.99,-2.1 9.44,-9.85 9.79,-10.51 0.46,-0.66 1.73,-1.99 0.23,-3.43 -1.5,-1.33 -2.65,-0.55 -4.26,0.22 -1.61,0.77 -8.98,6.42 -11.75,8.52 -2.65,2.1 -9.44,8.08 -9.44,8.08 0,0 -3.69,3.21 -2.42,4.87 1.27,1.66 2.53,0.99 4.49,0.44 2.07,-0.55 10.25,-6.09 13.36,-8.19l0 0z"/>
  </g>
 </g>
</svg>
