<?xml version="1.0" encoding="UTF-8"?>
<!DOCTYPE svg PUBLIC "-//W3C//DTD SVG 1.1//EN" "http://www.w3.org/Graphics/SVG/1.1/DTD/svg11.dtd">
<!-- Creator: CorelDRAW 2019 (64-Bit) -->
<svg xmlns="http://www.w3.org/2000/svg" xml:space="preserve" width="19.6664mm" height="19.6664mm" version="1.1" style="shape-rendering:geometricPrecision; text-rendering:geometricPrecision; image-rendering:optimizeQuality; fill-rule:evenodd; clip-rule:evenodd"
viewBox="0 0 5574.62 5574.62"
 xmlns:xlink="http://www.w3.org/1999/xlink"
 xmlns:xodm="http://www.corel.com/coreldraw/odm/2003">
 <defs>
  <style type="text/css">
   <![CDATA[
    .fil0 {fill:none}
    .fil2 {fill:#5392F8}
    .fil5 {fill:#5EA570}
    .fil7 {fill:#6CBFF8}
    .fil1 {fill:#6CC07D}
    .fil4 {fill:#91D9FA}
    .fil6 {fill:#E38523}
    .fil3 {fill:#E9A52C}
   ]]>
  </style>
 </defs>
 <g id="Layer_x0020_1">
  <metadata id="CorelCorpID_0Corel-Layer"/>
  <rect class="fil0" width="5574.62" height="5574.62"/>
  <g id="_1983398575408">
   <path class="fil1" d="M3145.72 3541.14c32.63,-15.7 68.14,1.84 79.48,25.45 17.94,37.44 8.62,498.38 8.62,572.81 0,65.17 16.84,167.75 -41.81,185.67 -87.56,26.73 -87.48,-67.83 -87.19,-133.76l0.06 -466.6c0,-74.46 -17.77,-155.34 40.85,-183.57zm-469.72 753.77c-29.03,51.19 -112.56,49.75 -120.53,-34.1 -6.75,-71.32 -2.35,-672.39 8.14,-694.3 23.47,-49.07 113.27,-45.33 120.22,37.73 6.15,73.27 1.76,673.75 -7.82,690.68zm-541.86 -1168.79c12.44,30.1 38.78,646.29 43.14,728.21 3.83,71.32 16.44,168.26 17.72,241.88l26.96 449.28c-4.31,67.12 7.23,107.57 7.23,172.77 63.13,42.29 135.32,25.94 259.17,25.94 285.61,0 571.23,0 856.84,0l89.57 -1607.04c66.84,-17.06 141.62,7.2 208.4,-5.58 -18.85,-11.76 -46.18,-6.97 -76.11,-7.54l-1432.91 2.1z"/>
   <path class="fil2" d="M2341.49 1409.27c64.6,-43.96 57.63,-160.86 6.52,-222.43 -24.72,-29.79 -60.01,-36.88 -61.6,-88.75 -1.16,-38.52 27.78,-77.33 39.26,-112.19 -73.47,35.35 -153.78,54.57 -275.04,115.2 -90.45,45.21 -166.53,88.47 -243.49,145.3 -20.44,15.08 -35.04,23.19 -55.22,39.83 -206.53,170.42 -366.51,327.25 -499.03,572.3 -165.57,306.14 -241.93,557.88 -241.93,924.45 -57.6,0 -115.2,0.03 -172.8,0 -87.96,-0.06 -99.41,-11.65 -155.51,25.91 0,60.29 12.73,61.11 45.41,92.86l332.7 367.11c23.13,25.03 114.01,141.42 140.28,144.82 41.13,5.33 170.16,-165.99 209.33,-205.37l69.19 -77.7c44.28,-47.79 261.52,-270.62 257.13,-304.44 -30.95,-58.51 -52.41,-43.43 -138.21,-43.2 -63.35,0.14 -126.73,0 -190.09,0 0,-367.02 128.97,-648.21 281.5,-867.58 19.59,-28.2 39.77,-50.03 61.37,-76.87 113.19,-140.65 317.42,-307.64 486.53,-386.07l103.69 -43.17z"/>
   <path class="fil2" d="M3594.06 4096.21l-26.13 449.28c106.81,-8.73 389.02,-195.93 479.36,-264.07 282.84,-213.27 505.78,-527.69 628.03,-866.65 68.65,-190.31 72.08,-276 98.98,-462.61 13.15,-91.13 -16.02,-92.58 29.51,-160.55l276.49 0c15.53,-17.91 23.84,-32.06 25.91,-44.93l0 -12.81c-3.06,-18.4 -19.25,-35.94 -45.3,-61.11 -51.7,-49.92 -424.68,-477.63 -453.17,-497.22 -9.78,-6.69 -19.11,-9.64 -28.57,-14.63 -68.68,36.34 -201.31,215.6 -269.91,283.01 -41.53,40.82 -260.47,278.61 -257.1,304.49 10.4,80.39 198.11,23.5 319.66,51.84 47.03,201.79 -109.59,614.94 -231.5,796.61 -106.92,159.3 -109.1,151.96 -237.17,281.22 -50.99,51.45 -239.69,199.78 -309.08,218.12z"/>
   <path class="fil3" d="M2877.14 1115.5c289.24,0 247.2,371.5 17.29,371.5 -248.45,0 -236.55,-371.5 -17.29,-371.5zm-551.47 -129.6c-11.48,34.87 -40.42,73.67 -39.26,112.19 1.59,51.87 36.88,58.96 61.6,88.75 51.11,61.57 58.08,178.47 -6.52,222.43 -31.46,46.88 -126.03,63.47 31.72,279.29 62.56,85.6 97.4,37.22 149.95,31.72 15.96,-1.67 51.39,-0.79 67.04,1.79 171.46,28.35 81.04,189.41 216.87,222.86 44.3,-36.4 42.15,-16.64 59.53,-87.73 11.2,-45.89 27.84,-68.65 54.08,-93.46 74.44,-70.44 126.79,-48.73 224.3,-25.79 52.98,-13.46 45.72,-17.66 117.47,-17.66l-60.97 -2.21c22.56,-54.88 111.99,-149.24 105.48,-221.13 -5.67,-62.45 -108.71,-72.45 -101.28,-208.4 6.58,-120.9 111.77,-123.53 100.6,-204.86 -8.76,-64.06 -83.93,-159.47 -110.52,-201.45 -7.91,-6.01 2.15,-0.31 -15.7,-9.5 -8.19,-4.2 -13.92,-6.21 -26.42,-12.08 -101.65,20.07 -157.63,43.6 -234.39,-20.61 -68.06,-56.89 -23.58,-119.48 -110.07,-182.46 -135.72,2.86 -29.37,161.54 -206.87,217.67 -79.88,25.26 -122.26,-24.12 -179.49,-7.37 -32.54,9.52 -82.23,91.42 -97.14,118z"/>
   <path class="fil4" d="M2134.14 3126.13l1432.91 -2.1c29.79,-56.72 20.72,-123.81 20.72,-202.82 0,-37.59 0.31,-75.12 0.43,-112.65 0.14,-58.02 5.81,-49.72 -26.7,-86.09l-321.47 0 -138.24 -0.06 -414.7 0 -138.24 -0.09c-94.05,0.6 -505.27,-14.09 -552.94,8.79 -21.63,45.1 -8.65,295.85 -8.65,371.53 46.91,31.38 66.98,32.17 146.89,23.47z"/>
   <path class="fil2" d="M3447.37 1409.39c40.99,9.24 115.57,51.02 152.76,71.74 222.35,123.81 396.3,274.79 536.56,491.57 78.15,120.81 116.42,22.14 237.45,-103.21 23.22,-24.01 31.63,-39.51 56.27,-64.74 56.81,-58.17 9.5,-100.4 -24.01,-144.96 -16.67,-22.14 -30.36,-39.91 -49.12,-63.18 -87.67,-108.65 -180.79,-200.24 -291.57,-287.31 -44.67,-35.09 -81.52,-63.61 -129.23,-95.41 -45.47,-30.33 -97.03,-62.36 -146.29,-86.97 -62.73,-31.35 -258.2,-130.67 -321.84,-132.38 10.23,29.34 40.17,73.08 36.11,109.9 -5.27,47.99 -38.58,56.29 -62.59,83.34 -51.99,58.48 -54.62,176.31 5.5,221.61z"/>
   <path class="fil2" d="M2221.95 4545.5l-26.96 -449.28c-39.03,-10.2 -139.83,-79.45 -173.25,-103.6l-153.29 -131.84c-81.04,-81.1 -159.7,-165 -220.87,-262.94 -14.51,-23.24 -19.22,-27.1 -31.83,-45.92 -97.48,0 -65.88,17.86 -157.52,110.32 -197.94,199.75 -143.4,157.83 32.91,385.79 79.82,103.18 259.51,244.51 366.51,316.03 26.96,18 49.69,32.31 79.34,50.26 30.84,18.71 56.35,30.42 88.47,49.78 30.19,18.23 161.63,78.69 196.49,81.41z"/>
   <path class="fil5" d="M3345.19 4744.2l188.59 0c33.28,-49.72 19.02,-6.6 28.71,-83.59 4.37,-34.67 6.29,-67.35 5.44,-115.11l26.13 -449.28c0.37,-44.19 9.47,-59.07 8.96,-112.16l51.7 -856.44 -11.57 3.97c-66.78,12.78 -141.56,-11.48 -208.4,5.58l-89.57 1607.04z"/>
   <path class="fil6" d="M3195.75 882.24c26.59,41.98 101.76,137.39 110.52,201.45 11.17,81.32 -94.02,83.96 -100.6,204.86 -7.43,135.95 95.61,145.95 101.28,208.4 6.52,71.89 -82.91,166.25 -105.48,221.13l60.97 2.21c40.45,7.88 87.31,34.5 126.39,1.98 29.28,-24.38 114.69,-169.23 118.71,-210.58 5.16,-52.58 -37.76,-69.16 -60.18,-102.3 -60.12,-45.3 -57.49,-163.13 -5.5,-221.61 24.01,-27.04 57.32,-35.35 62.59,-83.34 4.05,-36.82 -25.88,-80.56 -36.11,-109.9 -15.17,-31.72 -64.71,-108.65 -89.77,-121.41 -30.08,-15.34 -58.96,-9.1 -87.76,-0.71 -40.02,11.65 -44.76,9.81 -95.07,9.81z"/>
   <path class="fil2" d="M2548.84 2722.34l138.24 0.09c0,-301.6 -39.51,-293.69 207.35,-293.69 246.86,0 207.35,-7.91 207.35,293.69l138.24 0.06c0,-138.47 16.41,-263.53 -42.89,-345.91 -69.42,-96.49 -144.48,-86.09 -302.71,-86.09 -158.23,0 -233.29,-10.4 -302.71,86.09 -59.3,82.37 -42.89,207.32 -42.89,345.76z"/>
   <path class="fil5" d="M2676 4294.92c9.58,-16.92 13.97,-617.4 7.82,-690.68 -6.94,-83.05 -96.74,-86.8 -120.22,-37.73 -10.49,21.91 -14.88,622.99 -8.14,694.3 7.97,83.85 91.5,85.29 120.53,34.1z"/>
   <path class="fil5" d="M3145.72 3541.14c-58.62,28.23 -40.85,109.1 -40.85,183.57l-0.06 466.6c-0.28,65.93 -0.37,160.49 87.19,133.76 58.65,-17.91 41.81,-120.5 41.81,-185.67 0,-74.44 9.33,-535.37 -8.62,-572.81 -11.34,-23.61 -46.86,-41.16 -79.48,-25.45z"/>
   <path class="fil7" d="M3567.05 3124.03c29.93,0.57 57.26,-4.22 76.11,7.54l11.57 -3.97c84.13,3.6 95.19,9.67 146.89,-24.94 0,-75.68 12.98,-326.43 -8.65,-371.53 -44.25,-21.23 -168.74,-8.65 -231.47,-8.65 32.51,36.37 26.84,28.06 26.7,86.09 -0.11,37.53 -0.43,75.06 -0.43,112.65 0,79 9.07,146.09 -20.72,202.82z"/>
   <path class="fil6" d="M2809.17 657.6c86.48,62.98 42.01,125.57 110.07,182.46 76.76,64.2 132.74,40.68 234.39,20.61 -27.16,-13.83 -54.4,-38.86 -69.05,-64.91 -17.74,-31.55 -17.69,-79.51 -37.62,-109.25 -30.33,-45.3 -175.15,-44.5 -237.79,-28.91z"/>
   <path class="fil6" d="M2807.07 1944.93c74.04,0 189.18,24.63 234.25,-25.91 28.06,-31.44 18.23,-92.92 64.32,-143.06 20.21,-22 20.21,-10.23 39.34,-38.01 -97.51,-22.93 -149.86,-44.64 -224.3,25.79 -26.25,24.8 -42.89,47.56 -54.08,93.46 -17.38,71.09 -15.22,51.33 -59.53,87.73z"/>
  </g>
 </g>
</svg>
